<svg width="229" height="210" viewBox="0 0 229 210" fill="none" xmlns="http://www.w3.org/2000/svg">
<path d="M146.715 167.529L148.916 172.466C147.127 172.181 145.463 173.709 145.426 175.672C145.389 177.635 146.984 179.677 148.773 179.956C148.431 181.48 146.956 182.152 145.675 182.768C144.395 183.384 143.014 184.406 143.11 186.03C143.186 187.333 144.264 188.485 145.408 188.947C146.553 189.41 147.753 189.339 148.912 189.262C147.156 191.1 146.985 194.555 148.527 197.034C150.07 199.513 153.15 200.733 155.456 199.779C153.827 201.807 154.181 205.522 156.203 207.615C158.242 209.725 161.197 209.929 163.78 209.707C170.358 209.15 176.625 206.665 181.799 202.562C183.773 200.992 185.618 199.146 186.744 196.737C187.871 194.329 188.203 191.279 187.153 188.538C187.436 191.972 190.871 194.684 193.961 194.835C197.051 194.987 199.748 193.246 202.041 191.26C205.089 188.619 207.912 184.918 207.494 180.351C207.287 178.09 206.3 175.915 205.332 173.809L203.455 169.725C202.697 168.077 201.922 166.4 200.782 165.017C199.642 163.634 198.059 162.563 196.475 162.573C196.837 160.917 197.201 159.2 196.897 157.441C196.594 155.682 195.432 153.861 193.851 153.449C191.84 152.925 190.135 154.782 188.112 154.607C186.165 154.439 184.557 152.484 182.667 151.709C181.888 151.373 181.029 151.27 180.193 151.415C179.358 151.559 178.583 151.945 177.963 152.524C176.764 153.694 176.265 155.671 176.695 157.542C177.071 159.182 178.074 160.627 178.682 162.208C179.291 163.789 179.385 165.821 178.217 166.685C176.807 167.726 174.66 166.309 173.559 164.594C172.457 162.879 171.825 160.802 170.431 159.36C168.787 157.657 166.214 157.259 164.521 158.444C162.828 159.629 162.18 162.282 163.034 164.538C163.732 166.383 165.33 168.249 164.776 169.986C164.19 171.821 161.626 171.589 160.079 170.291C158.533 168.994 157.506 167.04 155.978 165.714C154.427 164.366 152.401 163.776 150.622 164.153C149.72 164.363 148.885 164.796 148.194 165.413C147.503 166.031 146.979 166.813 146.67 167.686" fill="#5F5F61"/>
<path d="M182.342 153.655L177.776 155.778C177.09 156.117 176.312 156.222 175.56 156.076C174.897 155.92 174.449 155.514 174.332 154.964L173.269 149.999C173.069 149.062 173.844 147.954 175.113 147.364L177.634 146.192C178.903 145.602 180.249 145.724 180.835 146.481L183.942 150.496C184.287 150.941 184.308 151.545 184 152.153C183.626 152.821 183.044 153.349 182.342 153.655Z" fill="#29292C"/>
<path d="M40.7646 61.8922C45.0571 50.1372 51.7557 39.4087 60.4316 30.3937C67.7923 22.7482 79.2481 23.0659 79.2481 23.0659L79.3136 22.9846C82.0707 19.5828 85.7705 17.0713 89.9488 15.7653C94.1271 14.4593 98.5977 14.417 102.8 15.6436C103.892 15.9572 104.732 16.0963 105.132 15.9566C112.417 13.4056 112.074 7.64776 118.36 3.0093C129.364 -5.11237 165.867 4.19085 171.014 19.1357C175.185 31.2482 193.807 37.119 200.764 46.384C201.852 47.8327 202.919 49.2982 203.966 50.7805C204.457 51.4691 204.942 52.163 205.422 52.862C210.351 60.004 214.773 67.4834 218.655 75.245C221.2 80.316 223.413 85.5478 225.278 90.9069C232.534 112.129 230.052 127.94 210.047 124.034C207.679 123.57 205.368 123.155 203.113 122.789C199.849 122.256 196.698 121.818 193.662 121.475C189.572 121.01 185.682 120.705 181.99 120.561C180.749 120.511 179.53 120.477 178.335 120.46C160.655 120.215 147.541 123.544 137.55 128.712C135.857 129.586 134.252 130.511 132.736 131.486C130.42 132.967 128.208 134.606 126.117 136.391C123.224 138.876 120.555 141.611 118.144 144.566L118.011 144.729C106.326 159.03 102.48 174.862 94.3516 177.65C59.6049 189.568 37.629 146.364 35.3754 104.101C35.2616 101.971 35.1987 99.8472 35.1868 97.7297C35.1797 96.7833 35.1844 95.8393 35.2007 94.8978C35.2364 92.4417 35.3446 90.0013 35.5258 87.5905C35.5935 86.6688 35.672 85.7519 35.7613 84.8399C35.8598 83.8564 35.9669 82.8788 36.0906 81.9074C36.9745 74.7863 38.5209 68.0111 40.7646 61.8922Z" fill="#141416"/>
<path d="M148.462 85.145C145.687 86.4377 145.641 92.2277 146.511 94.1038L148.088 97.4995L158.14 92.8269L156.563 89.4312C155.691 87.5559 151.239 83.8568 148.462 85.145Z" fill="#29292C"/>
<path d="M121.451 133.899C121.274 133.899 121.1 133.856 120.943 133.775C120.786 133.693 120.652 133.574 120.55 133.429C120.449 133.284 120.384 133.117 120.361 132.942C120.338 132.766 120.358 132.588 120.419 132.422C120.468 132.286 120.543 132.161 120.641 132.055C120.739 131.948 120.857 131.862 120.988 131.802L172.896 107.671C173.027 107.61 173.168 107.576 173.312 107.57C173.457 107.564 173.601 107.586 173.736 107.636C173.872 107.685 173.996 107.761 174.102 107.859C174.209 107.956 174.295 108.074 174.355 108.205C174.478 108.469 174.49 108.772 174.39 109.046C174.29 109.319 174.086 109.542 173.822 109.665H173.822L121.914 133.796C121.769 133.864 121.611 133.899 121.451 133.899Z" fill="#29292C"/>
<path d="M162.055 94.993L147.217 101.891L170.493 152.015L185.33 145.117L162.055 94.993Z" fill="#5F5F61"/>
<path d="M106.355 31.8948C103.58 33.1875 103.534 38.9775 104.405 40.8535L105.981 44.2493L116.033 39.5767L114.456 36.1809C113.584 34.3056 109.132 30.6065 106.355 31.8948Z" fill="#29292C"/>
<path d="M168.531 159.417L163.965 161.54C163.279 161.879 162.5 161.984 161.749 161.839C161.086 161.682 160.638 161.276 160.52 160.726L159.458 155.761C159.257 154.824 160.033 153.716 161.301 153.126L163.823 151.954C165.091 151.364 166.438 151.486 167.024 152.244L170.131 156.258C170.476 156.703 170.496 157.307 170.189 157.915C169.815 158.584 169.233 159.111 168.531 159.417Z" fill="#29292C"/>
<path d="M154.493 166.386L149.927 168.508C149.241 168.848 148.462 168.953 147.711 168.807C147.048 168.651 146.6 168.245 146.482 167.694L145.42 162.73C145.219 161.793 145.995 160.685 147.263 160.095L149.785 158.923C151.053 158.333 152.4 158.455 152.986 159.212L156.093 163.227C156.438 163.672 156.458 164.276 156.151 164.884C155.777 165.552 155.195 166.08 154.493 166.386Z" fill="#29292C"/>
<path d="M123.908 50.2684L109.07 57.166L156.118 158.486L170.956 151.588L123.908 50.2684Z" fill="#5F5F61"/>
<path d="M139.303 102.499L137.638 98.8329L138.596 98.3906L140.256 102.045L164.291 155.366L163.334 155.811" fill="#29292C"/>
<path d="M158.081 99.4522L156.417 95.7865L157.375 95.3442L159.035 98.9982L183.07 152.32L182.112 152.765" fill="#29292C"/>
<path d="M130.911 58.377L110.806 67.723C109.527 65.7306 105.668 55.5203 106.534 52.491L105.884 49.6021L119.766 43.1489L121.624 45.4359C124.382 46.2827 129.751 55.8728 130.911 58.377Z" fill="#5F5F61"/>
<path d="M120.346 43.2726L106.021 49.9319C105.492 50.1777 104.929 50.0874 104.763 49.7301C104.739 49.6786 104.724 49.6234 104.719 49.5669L103.978 41.6532C103.946 41.3143 104.236 40.9303 104.679 40.7245L114.179 36.3082C114.621 36.1025 115.102 36.1286 115.34 36.3714L120.906 42.042C121.191 42.332 121.036 42.8285 120.561 43.1508C120.493 43.1971 120.421 43.2378 120.346 43.2726Z" fill="#5F5F61"/>
<path d="M131.581 105.273C131.426 105.274 131.272 105.255 131.121 105.219C130.909 105.175 130.709 105.083 130.538 104.95C130.366 104.816 130.228 104.646 130.132 104.451L121.374 85.5901C121.012 84.8093 121.499 83.8108 122.459 83.3642L135.283 77.4025C136.244 76.9557 137.32 77.228 137.683 78.0086L146.441 96.8695C146.528 97.0681 146.569 97.2842 146.561 97.5011C146.552 97.718 146.493 97.93 146.39 98.1209C146.165 98.5531 145.801 98.8965 145.356 99.0953L132.532 105.057C132.235 105.197 131.91 105.271 131.581 105.273Z" fill="#29292C"/>
<path d="M133.335 108.128L118.497 115.025L141.773 165.149L156.61 158.252L133.335 108.128Z" fill="#5F5F61"/>
<path d="M115.055 44.0994L110.704 46.1222C109.865 46.5125 108.732 45.8621 108.179 44.6724C107.627 43.4828 107.861 42.1971 108.7 41.8068L113.052 39.784C113.891 39.3937 115.024 40.0441 115.576 41.2337C116.129 42.4233 115.895 43.709 115.055 44.0994Z" fill="#29292C"/>
<path d="M120.031 98.146C117.256 99.4387 117.211 105.229 118.081 107.105L119.658 110.501L129.709 105.828L128.132 102.432C127.26 100.557 122.808 96.8577 120.031 98.146Z" fill="#29292C"/>
<path d="M73.9364 86.5884C72.9563 87.2418 71.9533 85.6868 72.9522 85.0624C73.9321 84.4091 74.9352 85.9642 73.9364 86.5884Z" fill="#5F5F61"/>
<path d="M175.949 64.2447C174.969 64.898 173.966 63.343 174.965 62.7187C175.945 62.0654 176.948 63.6204 175.949 64.2447Z" fill="#5F5F61"/>
<path d="M106.418 82.0181C105.438 82.6715 104.435 81.1165 105.434 80.4921C106.414 79.8388 107.417 81.3938 106.418 82.0181Z" fill="#5F5F61"/>
<path d="M73.9364 142.955C72.9563 143.609 71.9533 142.053 72.9522 141.429C73.9321 140.776 74.9352 142.331 73.9364 142.955Z" fill="#5F5F61"/>
<path d="M123.928 15.7493C122.948 16.4027 121.945 14.8477 122.944 14.2233C123.924 13.57 124.927 15.125 123.928 15.7493Z" fill="#5F5F61"/>
<path d="M75.7125 45.71C74.7325 46.3634 73.7294 44.8084 74.7283 44.184C75.7083 43.5307 76.7113 45.0857 75.7125 45.71Z" fill="#5F5F61"/>
<path d="M145.061 37.1209L144.437 36.984L144.574 36.36L144.158 36.2688L144.021 36.8929L143.398 36.7563L143.307 37.1722L143.93 37.309L143.794 37.9329L144.209 38.024L144.346 37.3999L144.97 37.5368L145.061 37.1209Z" fill="#5F5F61"/>
<path d="M43.5309 89.1145L42.9074 88.9777L43.0439 88.3538L42.6282 88.2627L42.4915 88.8865L41.8677 88.7499L41.7766 89.1658L42.4004 89.3027L42.2638 89.9268L42.6795 90.0177L42.8163 89.3938L43.4398 89.5304L43.5309 89.1145Z" fill="#5F5F61"/>
<path d="M171.398 115.637C170.88 115.878 170.287 115.903 169.749 115.706C169.212 115.51 168.775 115.108 168.533 114.59L165.967 109.063C165.727 108.544 165.703 107.951 165.899 107.414C166.096 106.877 166.497 106.44 167.016 106.199C167.534 105.958 168.127 105.933 168.664 106.129C169.201 106.325 169.638 106.726 169.88 107.244L172.446 112.771C172.686 113.29 172.711 113.883 172.515 114.421C172.318 114.958 171.917 115.396 171.398 115.637Z" fill="#29292C"/>
<path d="M127.751 135.949C127.233 136.19 126.64 136.215 126.102 136.018C125.565 135.822 125.128 135.42 124.886 134.902L122.32 129.375C122.08 128.856 122.056 128.263 122.252 127.726C122.449 127.189 122.85 126.752 123.369 126.511C123.887 126.27 124.48 126.245 125.017 126.441C125.554 126.637 125.991 127.038 126.233 127.556L128.799 133.083C129.039 133.602 129.064 134.195 128.868 134.733C128.671 135.27 128.27 135.708 127.751 135.949Z" fill="#29292C"/>
<path d="M167.445 103.563L150.239 111.562C149.143 109.856 145.841 101.118 146.582 98.5252L146.946 95.6249L157.22 90.5815L159.497 92.4871C162.704 91.4021 167.419 99.3547 167.445 103.563Z" fill="#5F5F61"/>
<path d="M159.457 103.008L155.106 105.031C154.266 105.421 152.989 104.459 152.258 102.886C151.528 101.313 151.617 99.7158 152.456 99.3255L156.808 97.3027C157.647 96.9123 158.925 97.8746 159.655 99.4475C160.386 101.02 160.297 102.618 159.457 103.008Z" fill="#29292C"/>
<path d="M122.555 113.417L120.89 109.751L121.848 109.309L123.508 112.963L147.543 166.284L146.586 166.729" fill="#29292C"/>
<path d="M139.015 116.563L121.809 124.562C119.27 123.251 115.391 114.67 118.152 111.526L118.516 108.625L128.79 103.582L131.067 105.488C133.427 106.212 138.023 114.42 139.015 116.563Z" fill="#5F5F61"/>
<path d="M130.673 115.246L126.321 117.269C125.482 117.659 124.284 116.868 123.651 115.505C123.018 114.143 123.186 112.716 124.026 112.326L128.377 110.303C129.217 109.913 130.415 110.704 131.048 112.067C131.681 113.429 131.512 114.856 130.673 115.246Z" fill="#29292C"/>
<path d="M43.4674 78.1631C57.9027 78.1631 69.6049 66.4544 69.6049 52.011C69.6049 37.5676 57.9027 25.8589 43.4674 25.8589C29.032 25.8589 17.3298 37.5676 17.3298 52.011C17.3298 66.4544 29.032 78.1631 43.4674 78.1631Z" fill="#2B1C3C"/>
<path opacity="0.3" d="M150.635 79.2495L166.519 32.8335L149.077 78.6938C148.991 78.8027 148.932 78.9305 148.905 79.0668C148.878 79.2031 148.884 79.3438 148.922 79.4774C148.96 79.6109 149.03 79.7334 149.125 79.8347C149.22 79.936 149.338 80.0132 149.468 80.0598C149.599 80.1065 149.739 80.1213 149.877 80.103C150.015 80.0846 150.146 80.0338 150.26 79.9545C150.374 79.8753 150.467 79.77 150.533 79.6474C150.598 79.5248 150.633 79.3884 150.635 79.2495H150.635Z" fill="#5F5F61"/>
<path d="M191.124 51.5825C188.014 52.6165 184.567 53.6322 180.782 54.6296C161.206 59.7866 134.966 63.8093 106.895 65.9569C78.8254 68.1045 52.2789 68.1201 32.1463 66.0012C22.3391 64.9689 14.5822 63.4842 9.09108 61.5881C3.27753 59.5809 0.22279 57.162 0.0115884 54.3991C-0.399694 49.0164 10.216 44.2789 19.194 41.2524L19.4371 41.9743C7.10803 46.1303 0.478892 50.5223 0.770769 54.3411C1.14235 59.2049 12.6074 63.1785 32.226 65.2436C52.3142 67.3579 78.8118 67.3417 106.838 65.1976C134.863 63.0533 161.055 59.0385 180.589 53.8929C199.665 48.868 210.393 43.1961 210.021 38.3323C209.713 34.294 201.757 30.8395 187.62 28.6046L187.739 27.8523C198.011 29.4762 210.347 32.6024 210.781 38.2742C210.992 41.0372 208.34 43.8925 202.899 46.7607C199.797 48.3957 195.857 50.0087 191.124 51.5825Z" fill="#29292C"/>
<path d="M198.804 97.966C200.304 97.966 201.52 96.7494 201.52 95.2486C201.52 93.7479 200.304 92.5312 198.804 92.5312C197.304 92.5312 196.088 93.7479 196.088 95.2486C196.088 96.7494 197.304 97.966 198.804 97.966Z" fill="#2B1C3C"/>
<path d="M216.06 171.598C217.56 171.598 218.776 170.382 218.776 168.881C218.776 167.38 217.56 166.164 216.06 166.164C214.56 166.164 213.344 167.38 213.344 168.881C213.344 170.382 214.56 171.598 216.06 171.598Z" fill="#5F5F61"/>
<path d="M123.436 188.143C126.361 188.143 128.731 185.771 128.731 182.845C128.731 179.919 126.361 177.547 123.436 177.547C120.512 177.547 118.141 179.919 118.141 182.845C118.141 185.771 120.512 188.143 123.436 188.143Z" fill="#5F5F61"/>
<path d="M83.0879 118.025C84.5878 118.025 85.8038 116.808 85.8038 115.307C85.8038 113.806 84.5878 112.59 83.0879 112.59C81.588 112.59 80.3721 113.806 80.3721 115.307C80.3721 116.808 81.588 118.025 83.0879 118.025Z" fill="#29292C"/>
<path d="M174.392 121.561L186.11 124.596L193.297 138.72L181.146 139.197L174.392 121.561Z" fill="#5F5F61"/>
<path d="M147.346 101.2L153.795 107.656L170.174 143.09L167.159 145.696L147.346 101.2Z" fill="#5F5F62"/>
<path d="M133.323 107.052L133.829 116.166L149.289 152.011L153.242 151.502L133.323 107.052Z" fill="#5F5F62"/>
<path d="M132.901 143.872L126.591 154.206L131.243 169.356L140.305 161.245L132.901 143.872Z" fill="#5F5F61"/>
<path d="M188.648 150.222C185.371 150.222 181.78 150.098 177.874 149.85C157.671 148.566 131.502 144.103 104.188 137.284C76.8733 130.464 51.6766 122.102 33.2394 113.738C24.2581 109.664 17.365 105.807 12.7518 102.275C7.86765 98.5356 5.73125 95.2762 6.40171 92.5876C7.70806 87.3499 19.2753 86.204 28.749 86.165L28.7523 86.9268C15.7423 86.9802 8.06715 89.0562 7.14045 92.7721C5.95998 97.5049 15.5873 104.894 33.5538 113.044C51.9505 121.39 77.1008 129.736 104.372 136.545C131.643 143.353 157.764 147.809 177.923 149.09C197.609 150.341 209.578 148.344 210.758 143.611C211.738 139.681 205.277 133.893 192.566 127.311L192.916 126.634C202.152 131.417 212.873 138.276 211.497 143.795C210.826 146.484 207.41 148.357 201.342 149.362C197.884 149.934 193.636 150.222 188.648 150.222Z" fill="#29292C"/>
</svg>
