<svg width="249" height="249" viewBox="0 0 249 249" fill="none" xmlns="http://www.w3.org/2000/svg">
<path d="M52.5474 30.8841C52.3058 30.7999 51.4447 31.1108 51.7978 31.3648C52.037 31.5383 52.6044 31.3153 52.8968 31.3834C53.1892 31.4515 53.5522 31.3425 53.8384 31.459C54.0502 31.5457 54.1655 31.7414 54.4009 31.7997C54.6871 31.8715 54.8382 31.7551 54.5718 31.5333C54.3848 31.3772 54.1246 31.3351 53.9065 31.2335C53.7418 31.1579 53.5931 31.0092 53.4283 30.9646C53.209 30.9039 52.7196 31.1046 52.5474 30.8841Z" fill="#EBEBEB" fill-opacity="0.15"/>
<path d="M55.5556 32.1738C55.3437 32.3077 55.1418 32.3746 55.0712 32.6471C54.9881 32.9668 55.1207 32.9073 55.3363 32.7834C55.4726 32.7041 55.6609 32.5703 55.8319 32.579C56.0028 32.5877 56.1354 32.7103 56.2965 32.7388C56.4383 32.7705 56.5854 32.7702 56.7271 32.7378C56.8688 32.7055 57.0014 32.6419 57.1154 32.5517C57.2926 32.3969 57.3062 32.1961 57.0299 32.1515C56.8205 32.1181 56.4848 32.2209 56.2667 32.2432C56.0487 32.2655 55.6733 32.2792 55.5556 32.1738Z" fill="#EBEBEB" fill-opacity="0.15"/>
<path d="M65.5848 52.5421C65.0991 52.8754 64.8042 53.3313 64.2306 53.5679C63.6111 53.8232 63.0239 54.1763 62.3846 54.4352C61.7453 54.6941 61.0478 55.0943 60.3849 55.2554C59.8311 55.3904 59.2079 55.1315 58.6504 55.1426C58.0707 55.1701 57.4962 55.2644 56.9382 55.4239C56.5529 55.523 56.5665 55.4524 56.2654 55.3372C56.1208 55.2677 55.9636 55.2281 55.8033 55.2207C55.6135 55.2168 55.4241 55.2028 55.2359 55.1786C55.226 55.4449 55.8145 55.9851 56.0375 56.1549C54.3029 56.3048 52.4569 56.0855 50.7335 55.9071C50.2256 55.855 49.9245 56.0756 49.4401 56.1375C48.9928 56.1957 48.6137 55.9541 48.1627 55.9504C47.6201 55.9504 47.3822 56.0582 47.1505 56.3965C50.4795 57.3519 53.9918 57.4771 57.3804 56.7611C60.7689 56.0452 63.9304 54.5098 66.5883 52.2893C66.5875 52.2217 66.5821 52.1543 66.5722 52.0874C66.2922 52.1964 65.84 52.3662 65.5848 52.5421Z" fill="#EBEBEB" fill-opacity="0.15"/>
<path d="M33.1418 30.1903C33.3549 30.1234 33.2719 29.603 33.3116 29.4618C33.459 29.0218 33.6676 28.6048 33.931 28.2228C34.2816 27.7 34.1255 27.5055 34.0475 26.8674C34.0339 26.7597 34.0264 26.642 34.0177 26.5267C33.4955 27.5668 33.0604 28.6484 32.7169 29.7604C32.8395 29.9375 32.9944 30.2374 33.1418 30.1903Z" fill="#EBEBEB" fill-opacity="0.15"/>
<path d="M68 51C76.2843 42.7157 76.2843 29.2843 68 21C59.7157 12.7157 46.2843 12.7157 38 21C29.7157 29.2843 29.7157 42.7157 38 51C46.2843 59.2843 59.7157 59.2843 68 51Z" fill="#F5F5F5" fill-opacity="0.15"/>
<path d="M71.1577 28.7147C70.983 28.5028 70.9594 27.8078 70.5382 28.2055C70.5667 27.8561 70.4267 27.0236 71.0474 27.1004C71.7239 27.1859 71.4191 27.9193 71.5715 28.2959C71.7561 28.737 72.3718 28.7729 72.7237 29.0232C72.9616 29.1929 73.1041 29.4444 73.2391 29.6427C72.353 26.8277 70.8882 24.229 68.9387 22.0133C68.9387 22.0294 68.9387 22.0467 68.9387 22.0641C68.4902 22.0331 68.0863 22.6315 68.1694 23.0069C68.183 23.0701 68.3651 23.1803 68.3874 23.3166C68.4097 23.4529 68.292 23.5111 68.2883 23.6177C68.2784 23.8655 68.214 24.1021 68.5497 24.169C68.7665 23.7552 69.2534 24.2458 69.3525 24.5209C69.526 25.0028 69.3154 25.2457 69.6573 25.6359C69.7899 25.7871 70.1839 25.9729 70.1046 26.2393C70.0253 26.5057 69.8258 26.4549 69.6313 26.3805C69.3179 26.2566 69.1494 25.7883 68.7814 25.7747C68.5336 26.3867 68.7653 27.1797 68.572 27.8313C68.4642 28.1944 68.3317 28.2092 68.6451 28.4781C68.7578 28.5747 68.8347 28.4669 68.9672 28.623C69.0453 28.7159 69.0465 28.9154 69.0378 29.0294C69.2113 28.9241 69.3649 28.7618 69.5867 28.7816C69.2547 29.0678 69.3067 29.6018 69.0763 29.966C68.7876 30.422 68.5472 30.2696 68.1508 30.4517C67.4582 30.7714 67.8163 31.3933 67.7419 31.9087C67.6998 32.2098 67.4508 32.4638 67.3331 32.7524C67.1611 33.1566 67.0661 33.5894 67.0531 34.0285C67.0444 34.5464 67.2104 35.0197 67.3095 35.5153C67.3888 35.9216 67.3901 36.7009 67.7878 36.9363C68.0355 37.0788 68.8 37.0516 69.1246 37.0999C69.4492 37.1482 69.8308 36.976 70.1046 37.1172C70.3784 37.2585 70.3375 37.6884 70.6881 37.5893C70.8851 37.5335 70.9991 37.0714 71.2456 36.9847C71.6409 36.8459 71.9531 37.2077 72.0621 37.5186C72.2009 37.9126 71.9952 37.9275 71.8887 38.3487C71.8044 38.6808 71.8887 39.0326 71.9952 39.3399C72.2157 39.968 71.9717 39.693 71.7474 40.2778C71.9126 40.3214 72.0834 40.3406 72.2542 40.3348C72.2665 40.559 72.3149 40.8898 72.2628 41.1103C72.1179 41.7298 71.5195 42.0656 71.4897 42.7804C71.4612 43.4334 71.761 44.2213 71.6372 44.8606C71.5467 45.3302 71.0177 45.635 71.1044 46.1776C71.4005 45.9868 71.626 45.682 71.9506 45.5259C74.3066 40.8482 74.8486 35.4642 73.472 30.4108C73.1058 30.2466 72.7776 30.0083 72.5081 29.7108C72.1377 29.3255 71.4922 29.1174 71.1577 28.7147Z" fill="#EBEBEB" fill-opacity="0.15"/>
<path d="M55.8145 15.3923C56.0746 15.4394 56.3683 15.4357 56.626 15.4989C56.9171 15.5695 57.1216 15.769 57.4412 15.6426C57.5863 15.5764 57.7099 15.4708 57.798 15.3378C52.5478 14.1165 47.0296 14.9424 42.367 17.6472C43.1785 17.698 42.9964 18.6086 43.6951 17.8591C44.0061 17.5246 44.3518 17.0674 44.7482 16.775C45.1918 16.4467 45.6997 16.6684 46.235 16.6511C46.0565 16.775 45.0592 17.4961 45.1695 17.7302C45.3219 18.0536 45.8744 17.6621 45.6576 18.2853C45.4643 18.8403 44.6739 18.4624 44.1845 18.4996C43.8054 18.5293 43.5985 18.7833 43.1933 18.8031C42.7634 18.8242 42.3323 18.7028 41.9135 18.7152C41.2445 18.735 40.8158 19.1203 40.4082 19.5899C40.1728 19.8624 39.8928 20.0656 39.7206 20.394C39.5323 20.7532 39.6078 21.2228 39.4319 21.5449C39.2808 21.8225 38.9363 21.8683 38.6885 22.0331C38.36 22.2685 38.0605 22.5422 37.7965 22.8483C37.3988 23.3104 37.2204 24.1901 36.5415 24.3573C36.4448 25.0722 37.5326 24.0761 37.8498 24.2186C38.0146 24.0005 38.079 23.7118 38.3231 23.5483C38.5671 23.3848 38.9116 23.4133 39.1903 23.2349C39.7218 22.8954 39.5508 22.1508 40.2137 22.0244C40.7489 21.9228 41.3486 21.8187 41.4799 22.4072C41.5455 22.6996 41.4316 22.6724 41.4229 22.9549C41.4105 23.3265 41.3808 23.101 41.6633 23.3265C42.0894 23.6772 42.1588 24.0996 41.8256 24.594C41.6657 24.8281 41.5778 24.7959 41.4799 25.0995C41.382 25.403 41.4167 25.7288 41.4279 26.0473C41.439 26.4028 41.4043 26.7485 41.3932 27.1041C41.3746 27.6963 41.5171 27.9168 41.9854 28.2897C42.341 28.5735 42.7201 28.7853 42.9034 29.2251C43.062 29.6092 43.0273 30.0689 43.1376 30.4641C43.2466 30.8767 44.2737 31.739 44.161 31.0043C44.1027 30.6252 43.6716 30.5397 43.6741 30.0775C43.6741 29.8905 43.7509 29.6154 43.7707 29.4184C44.3592 29.2574 44.2043 30.2609 44.3617 30.5607C44.5859 30.9857 45.1719 31.2595 45.4767 31.5965C45.193 31.7291 44.7148 32.0066 44.8721 32.3993C45.0728 32.8949 45.7059 32.5492 46.0553 32.5579C46.8185 32.5753 47.5767 33.0857 48.1987 33.4933C48.7909 33.8811 49.03 34.1128 49.7759 34.057C50.2415 34.0094 50.7109 34.1017 51.1238 34.3222C51.4334 34.4623 51.6831 34.7077 51.8288 35.0147C52.0654 35.4645 52.172 35.6243 52.5722 35.9303C52.8323 36.1298 52.9686 36.3466 53.2573 36.3317C53.4555 36.3231 53.5992 36.0331 53.9015 36.1273C54.4764 36.3057 54.3092 37.0367 54.1208 37.3663C53.9622 37.6487 53.8136 38.013 53.6376 38.293C53.4122 38.6498 52.8224 38.7824 52.7543 39.2532C52.6899 39.7004 53.1879 40.2121 53.2982 40.6346C53.3985 41.0174 53.3874 41.4399 53.3874 41.8314C53.1396 42.1932 54.6461 43.4718 54.9274 43.7171C55.3387 44.0751 55.9384 44.5509 56.0982 45.0973C56.1639 45.3215 56.1254 45.6734 56.1477 45.91C56.1951 46.4103 56.2071 46.9133 56.1837 47.4153C56.1502 48.1475 55.6237 48.5948 55.4998 49.2886C55.3994 49.8449 55.5977 50.4297 55.5134 50.9798C55.475 51.2276 55.4267 51.5794 55.3647 51.8223C55.3028 52.0651 55.1838 52.0626 55.086 52.2348C54.91 52.5421 54.9992 52.8456 55.1479 53.1777C55.6138 52.8419 56.0003 53.4762 56.2196 53.7971C56.4934 54.1985 56.8205 54.3584 57.3879 54.2927C57.1649 54.1093 56.7895 53.5097 56.8663 53.1777C56.9791 52.6932 57.6778 52.3017 57.9132 51.8966C58.1672 51.4592 58.0954 51.0504 58.6207 50.8559C58.7681 50.8014 58.9416 50.8286 59.089 50.7679C59.2724 50.6923 59.3702 50.5201 59.5486 50.4346C60.0368 50.203 60.1483 50.2649 60.3515 49.721C60.5993 49.0631 60.8099 48.2343 61.4356 47.813C61.6833 47.6483 61.9522 47.6594 62.2198 47.5442C62.5134 47.4203 62.6051 47.2171 62.8393 47.0486C63.1915 46.809 63.5102 46.5236 63.7871 46.1999C64.1144 45.8106 64.3985 45.3868 64.6345 44.9362C64.7919 44.6525 64.86 44.3886 65.0979 44.1606C65.1982 44.064 65.3519 44.0256 65.4696 43.9128C65.8995 43.4842 66.0605 42.7978 66.4335 42.3282C66.6428 42.0631 66.8497 41.9132 66.965 41.6072C66.9204 41.5042 66.8638 41.4069 66.7965 41.3172C66.706 41.1525 66.4843 41.0001 66.374 40.8303C66.3356 40.7709 66.322 40.5825 66.2836 40.5466C65.9751 40.2171 65.228 40.0436 64.8117 40.0263C64.243 40.004 63.3906 39.916 63.0189 39.4068C62.7426 39.024 63.2159 38.4801 63.0338 38.0724C62.8083 37.5632 61.6239 37.3179 61.1692 37.0416C60.8557 36.8509 60.6439 36.5609 60.3329 36.3664C59.8782 36.0827 59.6056 35.965 59.4124 35.4645C59.2959 35.1646 59.4743 35.1139 59.1113 34.9999C58.7731 34.8946 58.244 35.1894 57.8649 35.2192C57.5837 35.2415 57.2665 35.2997 56.9977 35.2192C56.6631 35.1188 56.4166 34.7397 56.0685 34.6753C55.755 34.6158 55.1368 34.7632 54.8493 34.9528C54.6015 35.1114 54.4776 35.3976 54.21 35.5215C53.8235 35.7011 53.8507 35.4657 53.4766 35.4335C53.1024 35.4013 52.9091 35.6057 52.6229 35.1857C52.2352 34.6108 52.3925 33.4363 51.4794 33.3769C51.2081 33.3595 50.6852 33.5875 50.518 33.2393C50.2702 32.7264 51.1573 32.0462 51.0297 31.4912C50.8959 30.9138 49.818 31.6733 49.5751 31.9868C49.4203 32.1912 49.2976 32.6905 48.9718 32.7301C48.724 32.7561 48.2222 32.4328 48.0735 32.2531C47.8146 31.9397 47.7985 31.3314 47.7613 30.9361C47.6907 30.1928 47.8617 29.9611 48.3808 29.406C48.8392 28.9105 48.9334 28.8733 49.5206 28.7705C49.8812 28.7073 49.8774 28.5797 50.1835 28.7395C50.3297 28.8163 50.4201 29.0443 50.5985 29.1174C50.8463 28.8696 51.016 28.7977 51.3506 28.8634C51.5909 28.9117 52.0939 29.1905 52.2265 29.4159C52.307 29.5535 52.4334 30.7887 52.8782 30.0354C52.6192 29.8223 52.6886 29.5708 52.5833 29.3342C52.478 29.0975 52.2376 28.9253 52.193 28.6292C52.1398 28.2848 52.4408 27.5674 52.8336 27.4919L52.7914 27.1053C53.2263 27.0446 53.743 25.9903 53.6587 25.4711C53.6141 25.2122 53.3329 25.232 53.4828 24.8591C53.6587 24.423 53.9622 24.651 54.3315 24.5704C54.7007 24.4899 54.6474 24.2471 54.9113 24.0513C55.1987 23.8357 55.3338 24.0005 55.5778 24.0117C56.0362 24.0315 56.6371 24.1356 56.6706 23.4987C56.9506 23.4603 57.1947 23.3749 57.4747 23.4913C57.5118 22.9957 57.4016 22.634 56.9791 22.3478C56.6074 22.1 56.1118 22.0207 55.7228 21.7741C55.475 21.6156 55.2954 21.3851 55.0587 21.2166C54.6771 20.944 54.4145 20.643 54.0676 20.3357C53.6277 19.9442 53.2003 20.4386 52.6217 20.358C51.8498 20.249 51.8994 19.6679 51.4224 19.3235C51.3679 19.2839 51.2106 19.3371 51.1399 19.3024C51.0142 19.2087 50.8995 19.1011 50.798 18.9816C50.5241 18.7002 50.35 18.3368 50.3024 17.947C51.1536 17.4515 51.3691 18.6235 51.7247 19.0472C51.8858 19.2393 52.5189 19.3594 52.0233 19.6667C52.3665 19.6902 52.6713 19.6394 52.9922 19.7163C53.1433 19.7509 53.2722 19.8401 53.4369 19.8401C53.4704 19.5763 53.3762 19.3173 53.3242 19.0633C53.2994 18.9469 53.3329 18.8267 53.2845 18.7139C53.2139 18.5492 53.0368 18.4662 52.9736 18.3311C52.7852 17.9384 53.0207 17.9384 52.592 17.7017C52.2971 17.5394 51.9415 17.423 51.6368 17.2854C51.4198 17.2097 51.218 17.096 51.0408 16.9497C50.9652 16.8741 50.4858 16.3699 50.4498 16.2782C50.1104 15.4369 51.4311 16.2014 51.7334 16.2782C52.23 16.4098 52.7178 16.5725 53.1941 16.7651C53.5831 16.9138 53.5893 17.0005 53.7392 17.3846C54.0093 18.0883 54.3884 17.7562 54.8184 18.2233C55.0773 18.5058 55.2792 19.0162 55.5023 19.3508C55.7835 19.7745 56.8886 21.0977 57.5056 20.4658C57.8364 20.1251 57.1971 19.5292 57.1847 19.1971C57.1711 18.844 57.4102 18.626 57.6543 18.4339C58.0644 18.1106 58.1598 17.9768 57.6741 17.5853C57.0782 17.1033 56.4228 17.0253 55.7116 16.7998C54.9398 16.552 54.7341 16.1084 54.3426 15.4828C54.6003 15.4357 54.8716 15.4146 55.1355 15.3911C55.3609 15.3619 55.5892 15.3623 55.8145 15.3923ZM47.9497 20.8313C47.8493 21.0952 47.6647 21.0134 47.4925 21.1485C47.2273 21.3554 47.6957 21.7233 47.5061 21.8584C47.4392 21.9067 47.0737 21.8869 46.9907 21.8584C46.7789 21.7878 46.7132 21.6379 46.4654 21.6403C46.1396 21.6403 45.8125 21.5796 45.8843 21.1695C45.9178 20.9775 46.1123 20.7867 46.0206 20.5761C45.9308 20.4464 45.8168 20.3354 45.6849 20.249C45.5994 20.1895 45.4928 20.1982 45.4185 20.1511C45.2488 20.0458 45.3132 19.6295 45.5003 19.5564C45.5065 20.1313 46.3588 19.6122 46.536 19.8761C46.7132 20.14 46.3601 20.2478 46.5831 20.415C46.7132 20.5166 47.0551 20.5166 47.1852 20.4782C47.3859 20.42 47.7204 20.1177 47.9187 20.337C47.9955 20.4324 47.9905 20.7248 47.9497 20.8313ZM50.6815 19.8203C50.8934 19.881 50.8562 19.9826 50.9665 20.1499C51.0904 20.3394 51.3022 20.3221 51.4521 20.4596C51.7359 20.721 51.2874 21.0655 51.4521 21.3888C51.5971 21.6701 53.2176 22.0913 52.1596 22.4357C51.8498 22.5361 51.664 22.3329 51.3852 22.2536C51.0808 22.1913 50.7645 22.226 50.4808 22.3527C49.9642 22.6525 51.1213 23.2088 50.4077 23.4244C50.2628 23.469 49.7882 23.4405 49.7436 23.2609C49.699 23.1023 49.9221 23.1048 49.9679 22.9524C50.15 22.3527 49.4141 22.7232 49.2084 22.6711C48.9185 22.5968 49.009 22.0764 49.2394 21.9587C49.3633 21.8956 49.6792 21.929 49.818 21.9265C50.0447 21.9265 50.2714 21.9575 50.4982 21.9377C50.6035 21.5016 49.9493 21.281 49.6061 21.234C49.336 21.198 49.3001 21.1435 49.0771 20.9862C48.8082 20.7904 48.6905 20.8449 48.8789 20.4906C49.0436 20.1784 49.3125 20.0124 49.5801 19.8017C49.704 19.7398 49.8044 19.8699 49.927 19.8835C50.1785 19.9033 50.4337 19.7534 50.6815 19.8203Z" fill="#EBEBEB" fill-opacity="0.15"/>
<path d="M32.443 36.2116C32.5367 35.9962 32.5697 35.7592 32.5384 35.5264C32.4814 35.2861 32.3687 35.3071 32.2584 35.1151C31.9524 34.5861 32.4083 34.5229 32.4071 34.0781C32.4071 33.8179 31.8669 33.1985 32.225 32.9333C32.386 32.8094 32.9683 33.1043 33.2644 32.9816C33.2124 32.5542 32.7924 32.6843 32.6214 32.3944C32.3662 31.9595 32.7899 31.8691 32.9212 31.6758C33.3474 31.0563 32.7441 30.733 32.5905 30.22C32.0571 32.1003 31.7865 34.0453 31.7864 35.9997C31.7864 36.0753 31.7864 36.1509 31.7926 36.2277C31.9474 36.0914 32.1494 36.053 32.443 36.2116Z" fill="#EBEBEB" fill-opacity="0.15"/>
<path d="M32.6673 33.6779C32.3377 34.6492 33.3772 34.793 33.3983 35.5908C33.4057 35.887 33.2533 36.9066 33.8728 36.8298C34.1206 36.2648 33.7216 36.1868 33.7935 35.6627C33.8418 35.3084 34.097 35.2068 33.7006 34.9193C33.5915 34.8376 33.397 34.8351 33.3091 34.7496C33.1852 34.6319 33.2099 34.4708 33.1356 34.3531C33.003 34.1388 32.7999 34.0013 32.6673 33.6779Z" fill="#EBEBEB" fill-opacity="0.15"/>
<path d="M32.6672 37.0305C32.4046 37.6091 31.9239 39.693 32.858 39.7314C32.9621 39.7314 33.1529 39.5456 33.2594 39.6162C33.3437 39.6719 33.2706 39.8887 33.309 39.911C33.5506 40.0473 33.6125 40.0808 33.7092 39.6633C33.786 39.3325 33.6175 39.3188 33.5692 39.0933C33.5386 38.896 33.5365 38.6953 33.563 38.4974C32.9571 38.3487 34.1825 38.2199 34.1329 37.9758C34.097 37.79 33.1913 37.8432 33.0612 37.8841C33.0428 37.7161 33.052 37.5462 33.0885 37.3811C32.8865 37.2907 32.8246 37.0776 32.6672 37.0305Z" fill="#EBEBEB" fill-opacity="0.15"/>
<path d="M35.7188 38.9224C35.191 38.9533 34.9148 38.4726 34.2953 38.661C34.2953 38.7848 34.2618 38.9286 34.2618 39.0463C34.4018 39.0041 35.051 38.8518 34.947 39.2259C34.8603 39.5381 34.2953 39.1429 34.3932 39.6038C34.5542 39.5852 34.8082 39.465 34.9668 39.4799C35.1972 39.5096 35.2877 39.6335 35.5045 39.6818C35.7919 39.7438 35.7523 39.6013 36.0595 39.8181C36.2974 39.9866 36.544 40.2456 36.622 40.507C36.7893 41.062 36.5415 41.2813 37.2539 41.368C37.6256 41.4139 38.4123 41.819 38.3888 41.2082C38.7431 41.3321 39.2858 42.3827 39.7603 42.2762C40.355 42.1436 39.204 41.2181 39.2077 41.1153C39.4419 41.0942 39.9622 40.8675 40.1419 40.7634C40.3215 40.6594 40.5136 40.6742 40.4417 40.2988C40.1605 40.2654 40.0366 40.4017 39.8222 40.4574C39.5638 40.5129 39.2982 40.5267 39.0355 40.4983C38.3875 40.4501 37.7716 40.1967 37.2774 39.7748C36.9937 39.5418 36.7509 39.3486 36.4548 39.1293C36.2615 38.9868 36.2677 38.8964 36.0459 38.8319C35.9882 38.8175 35.9278 38.8182 35.8705 38.8341C35.8132 38.8499 35.7609 38.8803 35.7188 38.9224Z" fill="#EBEBEB" fill-opacity="0.15"/>
<path d="M32.7528 40.2976C33.1319 40.2976 33.5371 40.3434 33.9137 40.2976C34.0376 40.2815 34.1925 40.0733 34.3374 40.2195C34.3895 40.2728 34.3486 40.6073 34.3015 40.6594C34.0723 40.9146 32.8086 40.8328 32.8817 40.3397" fill="#EBEBEB" fill-opacity="0.15"/>
<path d="M38.5548 43.2686C38.5189 42.6008 38.2612 42.6925 37.9527 42.265C37.8461 42.5413 37.7272 43.0951 37.3543 43.1323C36.8029 43.1918 36.715 42.3679 36.3854 42.1412C35.9134 41.819 34.8405 42.1325 34.7302 42.5711C34.2916 42.7433 34.2631 42.9502 34.0859 43.3144C33.9577 43.5772 33.8102 43.8302 33.6449 44.0714C33.5918 44.1474 33.5343 44.2202 33.4727 44.2895C33.8794 45.2436 34.3556 46.1666 34.8974 47.0511C34.9472 47.0673 34.9988 47.0769 35.0511 47.0796C35.5182 47.1167 35.7672 46.6013 36.1401 46.6497C36.4114 46.6844 36.6097 47.1452 36.8327 47.3261C37.4521 47.8366 38.4879 48.2157 38.7283 48.9702C38.8745 49.4274 39.0553 49.6256 39.3415 50.0184C39.5422 50.2922 39.5014 50.7778 39.7962 50.9451C39.805 50.5141 39.8611 50.0853 39.9635 49.6665C40.1084 49.1424 39.9548 48.7088 40.1976 48.243C40.4405 47.7771 40.8283 47.393 40.7849 46.812C40.7552 46.4167 40.4615 45.9175 40.1803 45.6337C39.3762 44.8309 38.623 44.5323 38.5548 43.2686Z" fill="#EBEBEB" fill-opacity="0.15"/>
<path d="M43.9293 47.7771C43.5849 47.8428 43.7038 48.513 43.6059 48.7868C43.4684 49.1722 43.3309 49.1325 42.927 49.2378C42.6686 49.2893 42.4147 49.3609 42.1675 49.4522C41.7958 49.6256 41.7636 49.9353 41.6546 50.307C42.118 50.3454 42.3843 49.804 42.8006 49.7173C43.1587 49.6442 43.4523 49.8053 43.824 49.643C44.7569 49.2366 44.5252 48.3173 44.6528 47.569C44.3766 47.5194 44.187 47.6854 43.9293 47.7771Z" fill="#EBEBEB" fill-opacity="0.15"/>
<path d="M44.3221 43.8658C44.1982 44.142 44.3221 44.8024 44.7297 44.4022C44.918 44.2164 44.9032 43.7605 44.5439 43.7828C44.5439 43.8397 44.5166 43.8559 44.4943 43.9067" fill="#EBEBEB" fill-opacity="0.15"/>
<path d="M47.3674 44.5534C47.0316 44.8173 47.7551 45.2645 47.8741 44.8445C47.962 44.541 47.4776 44.4406 47.3674 44.5534Z" fill="#EBEBEB" fill-opacity="0.15"/>
<path d="M41.9519 37.2461C42.0498 37.4939 42.6842 37.6921 42.8019 38.1034C42.9096 38.4825 42.8019 38.8133 43.3643 38.8295C43.3507 38.5581 43.4994 38.2025 43.373 37.9622C43.316 37.8544 43.1252 37.8383 43.0571 37.7144C42.9889 37.5905 43.0385 37.4431 42.9827 37.3266C42.8638 37.0838 41.8231 36.5114 41.9519 37.2461Z" fill="#EBEBEB" fill-opacity="0.15"/>
<path d="M222.262 229.08C222.262 229.15 178.095 229.209 123.624 229.209C69.1523 229.209 24.9697 229.15 24.9697 229.08C24.9697 229.01 69.1274 228.951 123.624 228.951C178.12 228.951 222.262 229.015 222.262 229.08Z" fill="#F0F0FC"/>
<path d="M105.121 50L105.4 50.498C105.715 51.0616 106.183 51.5244 106.75 51.8326L107.248 52.1065L106.75 52.3804C106.182 52.6891 105.713 53.154 105.4 53.7201L105.121 54.2181L104.848 53.7201C104.535 53.154 104.066 52.6891 103.498 52.3804L103 52.1065L103.498 51.8326C104.065 51.5244 104.533 51.0616 104.848 50.498L105.121 50Z" fill="#EBEBEB"/>
<path d="M222.121 6L222.4 6.498C222.71 7.06345 223.177 7.52702 223.745 7.83264L224.243 8.11152L223.745 8.38542C223.178 8.69241 222.712 9.15564 222.4 9.72006L222.121 10.2181L221.843 9.72006C221.531 9.15564 221.065 8.69241 220.498 8.38542L220 8.11152L220.498 7.83264C221.066 7.52702 221.533 7.06345 221.843 6.498L222.121 6Z" fill="#EBEBEB"/>
<path d="M221.266 77.0356L221.545 77.5336C221.857 78.0994 222.326 78.5629 222.895 78.8683L223.393 79.1422L222.895 79.4161C222.326 79.7214 221.857 80.1849 221.545 80.7507L221.266 81.2487L220.988 80.7507C220.676 80.1863 220.21 79.7231 219.643 79.4161L219.145 79.1422L219.643 78.8683C220.21 78.5613 220.676 78.098 220.988 77.5336L221.266 77.0356Z" fill="#EBEBEB"/>
<path d="M25.1115 110L25.3854 110.498C25.6992 111.063 26.1673 111.528 26.735 111.838L27.233 112.112L26.735 112.385C26.1679 112.694 25.7 113.156 25.3854 113.72L25.1115 114.218L24.8326 113.72C24.525 113.156 24.0617 112.693 23.498 112.385L23 112.112L23.498 111.838C24.0672 111.532 24.536 111.069 24.8476 110.503L25.1115 110Z" fill="#EBEBEB"/>
<path d="M111.806 20.7616L112.304 21.6331C112.837 22.6048 113.637 23.4033 114.61 23.9339L115.476 24.4319L114.61 24.905C113.637 25.4373 112.836 26.2375 112.304 27.2107L111.806 28.0772L111.333 27.2107C110.801 26.2357 110.001 25.4337 109.027 24.9L108.161 24.402L109.027 23.904C110 23.3734 110.8 22.5749 111.333 21.6032L111.806 20.7616Z" fill="#EBEBEB"/>
<path d="M52.6454 86L53.1434 86.8665C53.6773 87.8385 54.4771 88.6383 55.4491 89.1723L56.3156 89.6703L55.4491 90.1434C54.4771 90.6773 53.6773 91.4771 53.1434 92.4491L52.6454 93.3156L52.1723 92.4491C51.6399 91.4759 50.8397 90.6757 49.8665 90.1434L49 89.6703L49.8665 89.1723C50.8404 88.6386 51.6407 87.8366 52.1723 86.8615L52.6454 86Z" fill="#EBEBEB"/>
<path d="M146.056 95L146.195 95.249C146.348 95.5315 146.58 95.7634 146.863 95.9163L147.112 96.0558L146.863 96.1952C146.58 96.3481 146.348 96.58 146.195 96.8625L146.056 97.1115L145.921 96.8625C145.767 96.5812 145.535 96.3497 145.254 96.1952L145 96.0558L145.254 95.9163C145.535 95.7618 145.767 95.5304 145.921 95.249L146.056 95Z" fill="#EBEBEB"/>
<path d="M102.056 104L102.195 104.254C102.348 104.537 102.58 104.768 102.863 104.921L103.112 105.061L102.863 105.195C102.581 105.35 102.35 105.581 102.195 105.863L102.056 106.117L101.921 105.863C101.766 105.582 101.534 105.351 101.254 105.195L101 105.061L101.254 104.921C101.543 104.77 101.781 104.538 101.941 104.254L102.056 104Z" fill="#EBEBEB"/>
<path d="M54.8831 185.789H38.1301V128.976C38.1301 126.761 39.0097 124.638 40.5755 123.072C42.1414 121.506 44.265 120.626 46.4794 120.626C48.6938 120.626 50.8175 121.506 52.3833 123.072C53.9492 124.638 54.8288 126.761 54.8288 128.976L54.8831 185.789Z" fill="#E9BF52"/>
<path d="M54.8831 185.789H38.1301V128.976C38.1301 126.761 39.0097 124.638 40.5755 123.072C42.1414 121.506 44.265 120.626 46.4794 120.626C48.6938 120.626 50.8175 121.506 52.3833 123.072C53.9492 124.638 54.8288 126.761 54.8288 128.976L54.8831 185.789Z" fill="#50555C"/>
<path d="M54.8831 128.066C54.8831 128.124 51.1467 128.174 46.5337 128.174C41.9207 128.174 38.1843 128.124 38.1843 128.066C38.1843 128.007 41.9415 127.957 46.5337 127.957C51.1259 127.957 54.8831 128.003 54.8831 128.066Z" fill="#F0F0FC"/>
<path d="M54.8831 142.569C54.8831 142.631 51.1467 142.677 46.5337 142.677C41.9207 142.677 38.1843 142.631 38.1843 142.569C38.1843 142.506 41.9415 142.46 46.5337 142.46C51.1259 142.46 54.8831 142.51 54.8831 142.569Z" fill="#F0F0FC"/>
<path d="M50.2367 142.569C50.1783 142.569 50.1282 139.321 50.1282 135.317C50.1282 131.314 50.1783 128.066 50.2367 128.066C50.2952 128.066 50.3453 131.31 50.3453 135.317C50.3453 139.325 50.3035 142.569 50.2367 142.569Z" fill="#F0F0FC"/>
<path d="M48.2774 132.286C48.2774 132.402 48.2429 132.516 48.1783 132.612C48.1137 132.709 48.0219 132.784 47.9145 132.829C47.807 132.873 47.6888 132.885 47.5748 132.862C47.4607 132.84 47.3559 132.784 47.2737 132.701C47.1915 132.619 47.1355 132.514 47.1128 132.4C47.0901 132.286 47.1018 132.168 47.1463 132.061C47.1908 131.953 47.2661 131.861 47.3628 131.797C47.4595 131.732 47.5732 131.698 47.6895 131.698C47.8454 131.698 47.9949 131.76 48.1052 131.87C48.2155 131.98 48.2774 132.13 48.2774 132.286Z" fill="#F0F0FC"/>
<path d="M48.2774 137.3C48.2774 137.416 48.2429 137.529 48.1783 137.626C48.1137 137.723 48.0219 137.798 47.9145 137.843C47.807 137.887 47.6888 137.899 47.5748 137.876C47.4607 137.853 47.3559 137.797 47.2737 137.715C47.1915 137.633 47.1355 137.528 47.1128 137.414C47.0901 137.3 47.1018 137.182 47.1463 137.075C47.1908 136.967 47.2661 136.875 47.3628 136.811C47.4595 136.746 47.5732 136.712 47.6895 136.712C47.8454 136.712 47.9949 136.774 48.1052 136.884C48.2155 136.994 48.2774 137.144 48.2774 137.3Z" fill="#F0F0FC"/>
<path d="M54.8831 172.084C54.8831 172.142 51.1467 172.192 46.5337 172.192C41.9207 172.192 38.1843 172.142 38.1843 172.084C38.1843 172.025 41.9415 171.975 46.5337 171.975C51.1259 171.975 54.8831 172.013 54.8831 172.084Z" fill="#F0F0FC"/>
<path d="M50.2367 172.084C50.1783 172.084 50.1282 168.836 50.1282 164.832C50.1282 160.829 50.1783 157.581 50.2367 157.581C50.2952 157.581 50.3453 160.825 50.3453 164.832C50.3453 168.84 50.3035 172.084 50.2367 172.084Z" fill="#F0F0FC"/>
<path d="M47.6895 162.372C48.0142 162.372 48.2774 162.109 48.2774 161.784C48.2774 161.459 48.0142 161.196 47.6895 161.196C47.3647 161.196 47.1015 161.459 47.1015 161.784C47.1015 162.109 47.3647 162.372 47.6895 162.372Z" fill="#F0F0FC"/>
<path d="M47.6895 167.39C48.0142 167.39 48.2774 167.127 48.2774 166.802C48.2774 166.477 48.0142 166.214 47.6895 166.214C47.3647 166.214 47.1015 166.477 47.1015 166.802C47.1015 167.127 47.3647 167.39 47.6895 167.39Z" fill="#F0F0FC"/>
<path d="M38.197 157.472C38.197 157.414 41.9542 157.364 46.5463 157.364C51.1385 157.364 54.8957 157.414 54.8957 157.472C54.8957 157.531 51.1594 157.581 46.5463 157.581C41.9333 157.581 38.197 157.51 38.197 157.472Z" fill="#F0F0FC"/>
<path d="M42.835 157.472C42.7766 157.472 42.7265 154.224 42.7265 150.221C42.7265 146.217 42.7766 142.969 42.835 142.969C42.8935 142.969 42.9436 146.213 42.9436 150.221C42.9436 154.229 42.8977 157.472 42.835 157.472Z" fill="#F0F0FC"/>
<path d="M44.8095 147.168C44.8103 147.285 44.8455 147.398 44.9106 147.494C44.9757 147.59 45.0678 147.665 45.1754 147.709C45.2829 147.753 45.4009 147.764 45.5147 147.74C45.6285 147.717 45.7329 147.661 45.8147 147.579C45.8965 147.496 45.9521 147.391 45.9744 147.277C45.9968 147.164 45.9849 147.046 45.9403 146.938C45.8956 146.831 45.8203 146.74 45.7237 146.675C45.6271 146.611 45.5136 146.576 45.3975 146.576C45.3199 146.576 45.2431 146.592 45.1715 146.621C45.0999 146.651 45.0349 146.695 44.9802 146.75C44.9256 146.805 44.8824 146.87 44.8531 146.942C44.8238 147.014 44.809 147.091 44.8095 147.168Z" fill="#F0F0FC"/>
<path d="M44.8095 152.182C44.8095 152.299 44.844 152.412 44.9086 152.509C44.9732 152.606 45.065 152.681 45.1725 152.726C45.2799 152.77 45.3981 152.782 45.5122 152.759C45.6262 152.736 45.731 152.68 45.8132 152.598C45.8954 152.516 45.9514 152.411 45.9741 152.297C45.9968 152.183 45.9852 152.065 45.9407 151.957C45.8962 151.85 45.8208 151.758 45.7241 151.693C45.6274 151.629 45.5138 151.594 45.3975 151.594C45.2415 151.594 45.092 151.656 44.9817 151.767C44.8715 151.877 44.8095 152.026 44.8095 152.182Z" fill="#F0F0FC"/>
<path d="M39.2447 129.502C39.2285 129.391 39.2285 129.279 39.2447 129.168C39.2634 128.864 39.2996 128.562 39.3532 128.262C39.5208 127.268 39.8316 126.303 40.2759 125.398C40.5267 124.902 40.8259 124.432 41.1692 123.995C41.4549 123.641 41.7767 123.318 42.1294 123.031C42.2632 122.922 42.4025 122.821 42.5469 122.726C42.6531 122.649 42.7663 122.582 42.885 122.526C42.9792 122.465 43.0819 122.419 43.1898 122.388C43.2107 122.426 42.7932 122.651 42.2254 123.152C41.8942 123.446 41.5909 123.771 41.3195 124.121C40.9955 124.555 40.7092 125.016 40.4637 125.498C40.0325 126.387 39.7101 127.325 39.5035 128.291C39.3407 129.03 39.2823 129.502 39.2447 129.502Z" fill="#FAFAFA"/>
<path d="M46.019 121.674C46.019 121.733 45.7688 121.824 45.4352 121.883C45.1016 121.941 44.8264 121.937 44.8181 121.883C44.8097 121.829 45.0683 121.728 45.4019 121.67C45.7354 121.612 46.0107 121.612 46.019 121.674Z" fill="#FAFAFA"/>
<path d="M81.7932 185.789H98.5295V128.976C98.5295 127.878 98.3129 126.79 97.892 125.776C97.4711 124.762 96.8542 123.84 96.0767 123.065C95.2992 122.289 94.3763 121.674 93.3609 121.256C92.3455 120.838 91.2575 120.624 90.1593 120.626C87.9449 120.626 85.8212 121.506 84.2554 123.072C82.6896 124.638 81.8099 126.761 81.8099 128.976L81.7932 185.789Z" fill="#E9BF52"/>
<path d="M81.7932 185.789H98.5295V128.976C98.5295 127.878 98.3129 126.79 97.892 125.776C97.4711 124.762 96.8542 123.84 96.0767 123.065C95.2992 122.289 94.3763 121.674 93.3609 121.256C92.3455 120.838 91.2575 120.624 90.1593 120.626C87.9449 120.626 85.8212 121.506 84.2554 123.072C82.6896 124.638 81.8099 126.761 81.8099 128.976L81.7932 185.789Z" fill="#50555C"/>
<path d="M81.7932 128.066C81.7932 128.003 85.5504 127.957 90.1426 127.957C94.7347 127.957 98.492 128.003 98.492 128.066C98.492 128.128 94.7556 128.174 90.1426 128.174C85.5296 128.174 81.7932 128.124 81.7932 128.066Z" fill="#F0F0FC"/>
<path d="M81.7932 142.569C81.7932 142.51 85.5504 142.46 90.1426 142.46C94.7347 142.46 98.492 142.51 98.492 142.569C98.492 142.627 94.7556 142.677 90.1426 142.677C85.5296 142.677 81.7932 142.631 81.7932 142.569Z" fill="#F0F0FC"/>
<path d="M86.4313 142.569C86.3729 142.569 86.3228 139.321 86.3228 135.317C86.3228 131.314 86.3729 128.066 86.4313 128.066C86.4897 128.066 86.5398 131.31 86.5398 135.317C86.5398 139.325 86.4939 142.569 86.4313 142.569Z" fill="#F0F0FC"/>
<path d="M88.3934 132.286C88.3934 132.402 88.4279 132.516 88.4925 132.612C88.5571 132.709 88.649 132.784 88.7564 132.829C88.8638 132.873 88.9821 132.885 89.0961 132.862C89.2102 132.84 89.3149 132.784 89.3971 132.701C89.4794 132.619 89.5354 132.514 89.5581 132.4C89.5808 132.286 89.5691 132.168 89.5246 132.061C89.4801 131.953 89.4047 131.861 89.3081 131.797C89.2114 131.732 89.0977 131.698 88.9814 131.698C88.8255 131.698 88.6759 131.76 88.5656 131.87C88.4554 131.98 88.3934 132.13 88.3934 132.286Z" fill="#F0F0FC"/>
<path d="M88.3934 137.3C88.3934 137.416 88.4279 137.529 88.4925 137.626C88.5571 137.723 88.649 137.798 88.7564 137.843C88.8638 137.887 88.9821 137.899 89.0961 137.876C89.2102 137.853 89.3149 137.797 89.3971 137.715C89.4794 137.633 89.5354 137.528 89.5581 137.414C89.5808 137.3 89.5691 137.182 89.5246 137.075C89.4801 136.967 89.4047 136.875 89.3081 136.811C89.2114 136.746 89.0977 136.712 88.9814 136.712C88.8255 136.712 88.6759 136.774 88.5656 136.884C88.4554 136.994 88.3934 137.144 88.3934 137.3Z" fill="#F0F0FC"/>
<path d="M81.7932 172.084C81.7932 172.025 85.5504 171.975 90.1426 171.975C94.7347 171.975 98.492 172.025 98.492 172.084C98.492 172.142 94.7556 172.192 90.1426 172.192C85.5296 172.192 81.7932 172.13 81.7932 172.084Z" fill="#F0F0FC"/>
<path d="M86.4313 172.084C86.3729 172.084 86.3228 168.836 86.3228 164.832C86.3228 160.829 86.3729 157.581 86.4313 157.581C86.4897 157.581 86.5565 160.812 86.5565 164.82C86.5565 168.827 86.4939 172.084 86.4313 172.084Z" fill="#F0F0FC"/>
<path d="M88.9814 162.372C89.3061 162.372 89.5694 162.109 89.5694 161.784C89.5694 161.459 89.3061 161.196 88.9814 161.196C88.6567 161.196 88.3934 161.459 88.3934 161.784C88.3934 162.109 88.6567 162.372 88.9814 162.372Z" fill="#F0F0FC"/>
<path d="M88.9814 167.39C89.3061 167.39 89.5694 167.127 89.5694 166.802C89.5694 166.477 89.3061 166.214 88.9814 166.214C88.6567 166.214 88.3934 166.477 88.3934 166.802C88.3934 167.127 88.6567 167.39 88.9814 167.39Z" fill="#F0F0FC"/>
<path d="M98.4793 157.472C98.4793 157.531 94.7429 157.581 90.1299 157.581C85.5169 157.581 81.7805 157.531 81.7805 157.472C81.7805 157.414 85.5377 157.364 90.1299 157.364C94.722 157.364 98.4793 157.393 98.4793 157.472Z" fill="#F0F0FC"/>
<path d="M93.8372 157.472C93.7787 157.472 93.7286 154.224 93.7286 150.221C93.7286 146.217 93.7787 142.969 93.8372 142.969C93.8956 142.969 93.9457 146.213 93.9457 150.221C93.9457 154.229 93.8998 157.472 93.8372 157.472Z" fill="#F0F0FC"/>
<path d="M91.8737 147.168C91.8728 147.285 91.8377 147.398 91.7726 147.494C91.7074 147.59 91.6153 147.665 91.5078 147.709C91.4003 147.753 91.2822 147.764 91.1685 147.74C91.0547 147.717 90.9503 147.661 90.8685 147.579C90.7867 147.496 90.7311 147.391 90.7088 147.277C90.6864 147.164 90.6983 147.046 90.7429 146.938C90.7875 146.831 90.8629 146.74 90.9595 146.675C91.0561 146.611 91.1696 146.576 91.2857 146.576C91.3633 146.576 91.4401 146.592 91.5117 146.621C91.5833 146.651 91.6483 146.695 91.7029 146.75C91.7576 146.805 91.8008 146.87 91.8301 146.942C91.8594 147.014 91.8742 147.091 91.8737 147.168Z" fill="#F0F0FC"/>
<path d="M91.8737 152.182C91.8737 152.299 91.8392 152.412 91.7746 152.509C91.71 152.606 91.6182 152.681 91.5107 152.726C91.4033 152.77 91.2851 152.782 91.171 152.759C91.057 152.736 90.9522 152.68 90.87 152.598C90.7877 152.516 90.7317 152.411 90.709 152.297C90.6864 152.183 90.698 152.065 90.7425 151.957C90.787 151.85 90.8624 151.758 90.9591 151.693C91.0557 151.629 91.1694 151.594 91.2857 151.594C91.3629 151.594 91.4394 151.61 91.5107 151.639C91.5821 151.669 91.6469 151.712 91.7015 151.767C91.7561 151.821 91.7994 151.886 91.8289 151.957C91.8585 152.029 91.8737 152.105 91.8737 152.182Z" fill="#F0F0FC"/>
<path d="M97.4107 129.502C97.3773 129.502 97.3147 129.034 97.1518 128.291C96.9436 127.325 96.6198 126.387 96.1875 125.498C95.9451 125.014 95.6586 124.553 95.3317 124.121C95.0616 123.771 94.7598 123.446 94.43 123.152C93.8622 122.651 93.4406 122.426 93.4614 122.388C93.5711 122.417 93.6754 122.464 93.7704 122.526C93.8891 122.582 94.0023 122.649 94.1085 122.726C94.2529 122.821 94.3922 122.922 94.526 123.031C94.8787 123.318 95.2005 123.641 95.4862 123.995C95.8295 124.432 96.1287 124.902 96.3795 125.398C96.821 126.304 97.1303 127.268 97.298 128.262C97.3526 128.562 97.3902 128.864 97.4107 129.168C97.4313 129.278 97.4313 129.391 97.4107 129.502Z" fill="white"/>
<path d="M90.6518 121.674C90.6518 121.612 90.9395 121.612 91.2731 121.674C91.6067 121.737 91.8653 121.824 91.8569 121.887C91.8486 121.949 91.5692 121.945 91.2356 121.887C90.902 121.829 90.6435 121.733 90.6518 121.674Z" fill="white"/>
<path d="M93.7709 219.823C92.3822 219.195 90.8905 218.821 89.3676 218.72C85.0508 218.424 81.0161 216.497 77.7951 213.616C77.6622 213.498 77.5294 213.383 77.3966 213.271C75.3411 211.558 73.186 208.868 72.7476 206.244C71.0873 196.494 69.8653 183.06 69.9516 176H68.9554C68.9554 176 68.8458 193.158 65.6347 207.67C65.4669 208.386 65.1276 209.052 64.6456 209.61C64.1635 210.169 63.5529 210.605 62.8653 210.88C59.7215 212.198 57.1158 214.525 55.4668 217.489C55.0003 218.314 54.2918 218.978 53.4354 219.395C52.579 219.811 51.6151 219.959 50.6717 219.82C47.7762 219.421 44.8377 220.152 42.4743 221.858C40.1109 223.564 38.507 226.112 38 228.967L101 229C100.605 227.015 99.7455 225.15 98.4897 223.556C97.2338 221.962 95.6173 220.683 93.7709 219.823Z" fill="#EBEBEB"/>
<path d="M63.3868 98.2543L57.5172 109.334C55.7862 112.597 54.8817 116.235 54.883 119.929V197.015L65.1736 203.59H72.3081L81.9099 197.015V120.267C81.9016 116.724 81.0623 113.233 79.4594 110.073L73.4854 98.1917C73.1534 97.5322 72.6445 96.978 72.0157 96.5909C71.3868 96.2039 70.6628 95.9993 69.9244 96H66.9687C66.2203 96.0017 65.4874 96.214 64.854 96.6126C64.2205 97.0113 63.7121 97.5802 63.3868 98.2543Z" fill="#E9BF52"/>
<path d="M54.8831 190.87H29C29 190.87 29 179.46 39.825 171.341C50.6499 163.221 54.8872 144.856 54.8872 144.856L54.8831 190.87Z" fill="#E9BF52"/>
<path d="M81.9016 190.87H107.785C107.785 190.87 107.785 179.46 96.9597 171.341C86.1347 163.221 81.9016 144.856 81.9016 144.856V190.87Z" fill="#E9BF52"/>
<path opacity="0.2" d="M54.8831 190.87H29C29 190.87 29 179.46 39.825 171.341C50.6499 163.221 54.8872 144.856 54.8872 144.856L54.8831 190.87Z" fill="black"/>
<path opacity="0.2" d="M81.9016 190.87H107.785C107.785 190.87 107.785 179.46 96.9597 171.341C86.1347 163.221 81.9016 144.856 81.9016 144.856V190.87Z" fill="black"/>
<path d="M56.7868 150.58C56.7284 150.58 56.6783 144.89 56.6783 137.868C56.6783 130.846 56.7284 125.156 56.7868 125.156C56.8453 125.156 56.9162 130.846 56.9162 137.851C56.9162 144.856 56.8453 150.58 56.7868 150.58Z" fill="#FAFAFA"/>
<path d="M57.0707 117.617C57.1793 117.992 57.2161 118.384 57.1793 118.773C57.2161 119.162 57.1793 119.554 57.0707 119.929C56.9646 119.554 56.9278 119.162 56.9622 118.773C56.9278 118.384 56.9646 117.992 57.0707 117.617Z" fill="#FAFAFA"/>
<path d="M65.4241 97.9329C65.4784 97.9579 63.7083 101.511 61.4748 105.865C59.2414 110.219 57.3878 113.73 57.3336 113.701C57.2793 113.671 59.0493 110.123 61.2828 105.769C63.5163 101.415 65.3698 97.9037 65.4241 97.9329Z" fill="#FAFAFA"/>
<path d="M52.0818 156.892C52.0873 156.925 52.0873 156.959 52.0818 156.992C52.0818 157.072 52.0526 157.168 52.0317 157.289L51.9399 157.765C51.9015 157.983 51.8485 158.2 51.7813 158.412C51.414 159.779 50.8724 161.094 50.1698 162.323C49.1208 164.14 47.8702 165.833 46.4418 167.37C44.8513 169.124 42.9518 170.898 40.9438 172.735C39.0533 174.452 37.3362 176.351 35.8173 178.404C35.1613 179.304 34.5537 180.237 33.9971 181.201C33.5193 182.046 33.086 182.916 32.6988 183.806C32.1384 185.095 31.6955 186.433 31.3754 187.801C31.2501 188.281 31.2 188.666 31.1374 188.92L31.0748 189.212C31.0718 189.247 31.0618 189.281 31.0456 189.313C31.041 189.279 31.041 189.246 31.0456 189.212L31.0873 188.916C31.1333 188.657 31.1708 188.269 31.2835 187.781C31.5712 186.398 31.9906 185.046 32.536 183.744C32.9151 182.844 33.3429 181.966 33.8176 181.114C34.3713 180.139 34.9776 179.196 35.6336 178.287C37.1539 176.216 38.8768 174.302 40.7768 172.572C42.7848 170.739 44.6843 168.974 46.2748 167.233C47.7067 165.713 48.9667 164.04 50.0321 162.244C50.7411 161.031 51.3017 159.737 51.7019 158.391C51.7715 158.181 51.83 157.968 51.8773 157.752C51.919 157.568 51.9566 157.414 51.9858 157.28C52.015 157.147 52.0401 157.067 52.061 156.988C52.0628 156.955 52.0698 156.923 52.0818 156.892Z" fill="#FAFAFA"/>
<path d="M70.6215 122.447H66.1588C64.8612 122.447 63.6167 121.931 62.6991 121.014C61.7815 120.096 61.2661 118.852 61.2661 117.554C61.2661 116.256 61.7815 115.012 62.6991 114.094C63.6167 113.177 64.8612 112.661 66.1588 112.661H70.6215C71.2642 112.661 71.9007 112.787 72.4945 113.033C73.0884 113.278 73.628 113.639 74.0824 114.093C74.5369 114.547 74.8973 115.087 75.1429 115.681C75.3886 116.275 75.5148 116.911 75.5143 117.554C75.5143 118.852 74.9988 120.096 74.0812 121.014C73.1636 121.931 71.9192 122.447 70.6215 122.447Z" fill="white"/>
<path opacity="0.4" d="M54.883 197.015L65.1736 203.586H72.3081L81.9016 197.015V194.306H54.883V197.015Z" fill="black"/>
<path d="M106.748 129.075H105.127V229.462H106.748V129.075Z" fill="#8765A9"/>
<path d="M123.962 129H122.342V229.344H123.962V129Z" fill="#8765A9"/>
<path d="M123.333 129.075H105.127V130.33H123.333V129.075Z" fill="#8765A9"/>
<path d="M123.962 151.179H105.127V152.434H123.962V151.179Z" fill="#8765A9"/>
<path d="M123.785 200.863H105.127V202.118H123.785V200.863Z" fill="#8765A9"/>
<path d="M122.986 177.772L105.578 201.627L106.592 202.367L124 178.512L122.986 177.772Z" fill="#8765A9"/>
<path d="M122.808 152.241L105.255 177.857L106.29 178.567L123.844 152.95L122.808 152.241Z" fill="#8765A9"/>
<path d="M122.804 201.968L105.251 227.584L106.286 228.294L123.839 202.677L122.804 201.968Z" fill="#8765A9"/>
<path d="M123.001 129.838L105.646 150.616L106.609 151.42L123.964 130.642L123.001 129.838Z" fill="#8765A9"/>
<path d="M123.962 177.3H105.127V178.555H123.962V177.3Z" fill="#8765A9"/>
<path d="M113.184 229.364C113.129 229.364 113.081 207.059 113.081 179.554C113.081 152.048 113.129 129.736 113.184 129.736C113.239 129.736 113.286 152.037 113.286 179.554C113.286 207.071 113.243 229.364 113.184 229.364Z" fill="#8765A9"/>
<path d="M113.907 229.344C113.852 229.344 113.805 207.205 113.805 179.904C113.805 152.603 113.852 130.459 113.907 130.459C113.963 130.459 114.01 152.591 114.01 179.904C114.01 207.217 113.966 229.344 113.907 229.344Z" fill="#8765A9"/>
<path d="M117.365 229.392C117.306 229.392 117.263 207.244 117.263 179.928C117.263 152.611 117.306 130.459 117.365 130.459C117.424 130.459 117.468 152.603 117.468 179.928C117.468 207.252 117.42 229.392 117.365 229.392Z" fill="#8765A9"/>
<path d="M119.954 229.344C119.899 229.344 119.851 207.205 119.851 179.904C119.851 152.603 119.899 130.459 119.954 130.459C120.009 130.459 120.056 152.591 120.056 179.904C120.056 207.217 120.021 229.344 119.954 229.344Z" fill="#8765A9"/>
<path d="M119.954 138.186C119.099 138.322 118.228 138.322 117.373 138.186C118.228 138.049 119.099 138.049 119.954 138.186Z" fill="#8765A9"/>
<path d="M119.954 136.018C119.099 136.154 118.228 136.154 117.373 136.018C118.228 135.882 119.099 135.882 119.954 136.018Z" fill="#8765A9"/>
<path d="M119.954 133.85C119.099 133.987 118.228 133.987 117.373 133.85C118.228 133.714 119.099 133.714 119.954 133.85Z" fill="#8765A9"/>
<path d="M119.954 131.683C119.099 131.819 118.228 131.819 117.373 131.683C118.228 131.547 119.099 131.547 119.954 131.683Z" fill="#8765A9"/>
<path d="M119.954 140.628C119.099 140.765 118.228 140.765 117.373 140.628C118.228 140.492 119.099 140.492 119.954 140.628Z" fill="#8765A9"/>
<path d="M119.954 143.071C119.099 143.208 118.228 143.208 117.373 143.071C118.228 142.935 119.099 142.935 119.954 143.071Z" fill="#8765A9"/>
<path d="M119.954 145.514C119.099 145.651 118.228 145.651 117.373 145.514C118.228 145.378 119.099 145.378 119.954 145.514Z" fill="#8765A9"/>
<path d="M119.954 147.957C119.099 148.094 118.228 148.094 117.373 147.957C118.227 147.816 119.099 147.816 119.954 147.957Z" fill="#8765A9"/>
<path d="M119.954 150.396C119.099 150.538 118.227 150.538 117.373 150.396C118.228 150.26 119.099 150.26 119.954 150.396Z" fill="#8765A9"/>
<path d="M119.954 152.839C119.099 152.975 118.228 152.975 117.373 152.839C118.228 152.703 119.099 152.703 119.954 152.839Z" fill="#8765A9"/>
<path d="M119.954 155.282C119.099 155.418 118.228 155.418 117.373 155.282C118.228 155.146 119.099 155.146 119.954 155.282Z" fill="#8765A9"/>
<path d="M119.954 157.725C119.099 157.861 118.228 157.861 117.373 157.725C118.228 157.589 119.099 157.589 119.954 157.725Z" fill="#8765A9"/>
<path d="M119.954 160.168C119.099 160.304 118.228 160.304 117.373 160.168C118.228 160.031 119.099 160.031 119.954 160.168Z" fill="#8765A9"/>
<path d="M119.954 162.623C119.099 162.759 118.228 162.759 117.373 162.623C118.228 162.486 119.099 162.486 119.954 162.623Z" fill="#8765A9"/>
<path d="M119.954 165.054C119.099 165.19 118.228 165.19 117.373 165.054C118.228 164.917 119.099 164.917 119.954 165.054Z" fill="#8765A9"/>
<path d="M119.954 167.497C119.099 167.633 118.228 167.633 117.373 167.497C118.228 167.36 119.099 167.36 119.954 167.497Z" fill="#8765A9"/>
<path d="M119.954 169.94C119.099 170.076 118.228 170.076 117.373 169.94C118.228 169.803 119.099 169.803 119.954 169.94Z" fill="#8765A9"/>
<path d="M119.954 172.382C119.099 172.519 118.228 172.519 117.373 172.382C118.228 172.246 119.099 172.246 119.954 172.382Z" fill="#8765A9"/>
<path d="M119.954 174.817C119.099 174.954 118.228 174.954 117.373 174.817C118.228 174.681 119.099 174.681 119.954 174.817Z" fill="#8765A9"/>
<path d="M119.954 177.268C119.099 177.405 118.228 177.405 117.373 177.268C118.228 177.132 119.099 177.132 119.954 177.268Z" fill="#8765A9"/>
<path d="M119.954 179.711C119.099 179.848 118.228 179.848 117.373 179.711C118.228 179.575 119.099 179.575 119.954 179.711Z" fill="#8765A9"/>
<path d="M119.954 182.154C119.099 182.29 118.228 182.29 117.373 182.154C118.228 182.018 119.099 182.018 119.954 182.154Z" fill="#8765A9"/>
<path d="M119.954 184.597C119.099 184.733 118.228 184.733 117.373 184.597C118.228 184.461 119.099 184.461 119.954 184.597Z" fill="#8765A9"/>
<path d="M119.954 187.04C119.099 187.176 118.228 187.176 117.373 187.04C118.228 186.904 119.099 186.904 119.954 187.04Z" fill="#8765A9"/>
<path d="M119.954 189.483C119.099 189.619 118.228 189.619 117.373 189.483C118.228 189.346 119.099 189.346 119.954 189.483Z" fill="#8765A9"/>
<path d="M119.954 191.926C119.099 192.062 118.228 192.062 117.373 191.926C118.228 191.789 119.099 191.789 119.954 191.926Z" fill="#8765A9"/>
<path d="M119.954 194.369C119.099 194.505 118.228 194.505 117.373 194.369C118.228 194.232 119.099 194.232 119.954 194.369Z" fill="#8765A9"/>
<path d="M119.954 196.812C119.099 196.948 118.228 196.948 117.373 196.812C118.228 196.675 119.099 196.675 119.954 196.812Z" fill="#8765A9"/>
<path d="M119.954 199.254C119.099 199.391 118.228 199.391 117.373 199.254C118.228 199.118 119.099 199.118 119.954 199.254Z" fill="#8765A9"/>
<path d="M119.954 201.697C119.099 201.834 118.228 201.834 117.373 201.697C118.228 201.561 119.099 201.561 119.954 201.697Z" fill="#8765A9"/>
<path d="M119.954 204.14C119.099 204.277 118.228 204.277 117.373 204.14C118.228 204.004 119.099 204.004 119.954 204.14Z" fill="#8765A9"/>
<path d="M119.954 206.583C119.099 206.72 118.228 206.72 117.373 206.583C118.228 206.447 119.099 206.447 119.954 206.583Z" fill="#8765A9"/>
<path d="M119.954 209.042C119.099 209.178 118.228 209.178 117.373 209.042C118.227 208.9 119.099 208.9 119.954 209.042Z" fill="#8765A9"/>
<path d="M119.954 211.465C119.099 211.607 118.227 211.607 117.373 211.465C118.228 211.329 119.099 211.329 119.954 211.465Z" fill="#8765A9"/>
<path d="M119.954 213.908C119.099 214.044 118.228 214.044 117.373 213.908C118.228 213.772 119.099 213.772 119.954 213.908Z" fill="#8765A9"/>
<path d="M119.954 216.351C119.099 216.487 118.228 216.487 117.373 216.351C118.228 216.215 119.099 216.215 119.954 216.351Z" fill="#8765A9"/>
<path d="M119.954 218.794C119.099 218.93 118.228 218.93 117.373 218.794C118.228 218.658 119.099 218.658 119.954 218.794Z" fill="#8765A9"/>
<path d="M119.954 221.237C119.099 221.373 118.228 221.373 117.373 221.237C118.228 221.1 119.099 221.1 119.954 221.237Z" fill="#8765A9"/>
<path d="M119.954 223.68C119.099 223.816 118.228 223.816 117.373 223.68C118.228 223.543 119.099 223.543 119.954 223.68Z" fill="#8765A9"/>
<path d="M119.954 226.123C119.099 226.259 118.228 226.259 117.373 226.123C118.228 225.986 119.099 225.986 119.954 226.123Z" fill="#8765A9"/>
<path d="M119.954 228.566C119.099 228.702 118.228 228.702 117.373 228.566C118.228 228.429 119.099 228.429 119.954 228.566Z" fill="#8765A9"/>
<path d="M105.937 179.766C105.897 179.772 105.856 179.772 105.815 179.766H105.461L104.089 179.786L99.0178 179.817L82.1023 179.849L82.2046 179.747V183.263L82.1023 183.161L99.0178 183.193L104.089 183.228H105.461H105.815H105.937C105.897 183.233 105.856 183.233 105.815 183.228H105.461L104.089 183.248L99.0178 183.279L82.1023 183.311H82V179.589H82.1023L99.0178 179.621L104.089 179.652H105.461H105.815C105.863 179.683 105.904 179.721 105.937 179.766Z" fill="#8765A9"/>
<path d="M105.163 183.079L105.1 183.031L104.923 182.87L104.246 182.237L101.724 179.829L101.823 179.782C101.874 180.765 101.933 181.883 102 183.118V183.303L101.862 183.173L98.416 179.849L98.5615 179.786C98.5615 180.856 98.53 181.977 98.5143 183.141V183.358L98.357 183.208L94.8952 179.857L95.0643 179.79C95.0447 180.832 95.0211 181.942 95.0014 183.071V183.303L94.8322 183.141L93.1918 181.568L91.4452 179.876L91.6183 179.802V183.342L91.4491 183.185L87.9441 179.884L88.1014 179.817C88.1014 181.045 88.1014 182.217 88.1014 183.33V183.543L87.952 183.393L84.4508 179.853L84.5728 179.802C84.5728 181.104 84.5728 182.237 84.5728 183.212V183.385L84.4744 183.244C83.7191 182.158 83.1291 181.3 82.716 180.706L82.2636 180.038L82.1495 179.865L82.1141 179.802C82.1141 179.802 82.1141 179.802 82.1613 179.853L82.2872 180.022L82.7671 180.675L84.561 183.181L84.4626 183.212C84.4626 182.237 84.4626 181.104 84.4626 179.802V179.629L84.5846 179.751L88.125 183.252L87.9756 183.315C87.9756 182.201 87.9756 181.029 87.9756 179.802V179.538L88.1329 179.688L91.6458 182.972L91.4767 183.047C91.4767 181.974 91.4767 180.877 91.4767 179.754V179.538L91.6498 179.703L93.4003 181.399L95.0368 182.972L94.8637 183.043C94.8873 181.918 94.9109 180.809 94.9306 179.766V179.538L95.0958 179.699L98.5537 183.055L98.3924 183.122C98.412 181.942 98.4356 180.836 98.4553 179.77V179.566L98.6009 179.707L102.027 183.051L101.905 183.106C101.85 181.875 101.803 180.746 101.76 179.774V179.625L101.866 179.727L104.348 182.174L105.005 182.831L105.17 183.004C105.147 183.039 105.166 183.079 105.163 183.079Z" fill="#8765A9"/>
<path d="M106.319 152.434H106.197H105.839L104.466 152.454L99.3994 152.485L82.4839 152.517L82.5861 152.414V155.935L82.4839 155.833L99.3994 155.864L104.47 155.896L105.859 155.935H106.217C106.257 155.929 106.298 155.929 106.339 155.935H106.217H105.859L104.49 155.955L99.4191 155.986L82.5035 156.018H82.4012V152.296H82.5035L99.4191 152.328L104.486 152.359L105.859 152.379H106.217C106.253 152.393 106.287 152.412 106.319 152.434Z" fill="#8765A9"/>
<path d="M105.544 155.727C105.544 155.727 105.52 155.727 105.481 155.675L105.304 155.518L104.627 154.885L102.106 152.477L102.204 152.43C102.255 153.413 102.314 154.531 102.381 155.766V155.951L102.247 155.821L98.7975 152.497L98.947 152.434C98.947 153.504 98.9155 154.625 98.8997 155.789V156.006L98.7424 155.856C97.6488 154.794 96.4844 153.673 95.2767 152.505L95.4498 152.434C95.4262 153.48 95.4065 154.59 95.3829 155.715V155.951L95.2137 155.789L93.5773 154.216L91.8306 152.524L92.0037 152.45V155.99L91.8385 155.829L88.3335 152.532L88.4908 152.465C88.4908 153.693 88.4908 154.864 88.4908 155.978V156.187L88.3453 156.041L84.8441 152.501L84.9661 152.45C84.9661 153.748 84.9661 154.881 84.9661 155.86V156.033L84.8677 155.892L83.1132 153.354C82.9205 153.071 82.7671 152.847 82.6608 152.686L82.5468 152.513C82.5192 152.473 82.5074 152.45 82.5114 152.45C82.5153 152.45 82.5114 152.45 82.5586 152.501C82.6058 152.552 82.6333 152.599 82.6844 152.666L83.1604 153.323L84.9582 155.829L84.8599 155.86C84.8599 154.881 84.8599 153.748 84.8402 152.45V152.277L84.9621 152.398L88.5026 155.9L88.3531 155.963C88.3531 154.848 88.3531 153.677 88.3531 152.45V152.233L88.5144 152.383L92.0234 155.668L91.8582 155.742C91.8582 154.667 91.8582 153.569 91.8582 152.45V152.21L92.0313 152.375L93.7779 154.07L95.4144 155.644L95.2413 155.715C95.2649 154.59 95.2885 153.48 95.3121 152.434V152.206L95.4773 152.367L98.9312 155.723L98.7739 155.789C98.7739 154.609 98.8132 153.504 98.8329 152.438V152.233L98.9784 152.375L102.409 155.719L102.283 155.774C102.232 154.542 102.181 153.413 102.137 152.442V152.292L102.24 152.395L104.726 154.841L105.379 155.498L105.544 155.668C105.545 155.687 105.545 155.707 105.544 155.727Z" fill="#8765A9"/>
<path d="M184.788 99.3361L185.072 99.8341C185.389 100.415 185.866 100.892 186.446 101.209L186.944 101.492L186.446 101.776C185.864 102.091 185.387 102.569 185.072 103.151L184.788 103.649L184.504 103.151C184.19 102.568 183.712 102.09 183.13 101.776L182.632 101.492L183.13 101.209C183.711 100.893 184.189 100.416 184.504 99.8341L184.788 99.3361Z" fill="#50555C"/>
<path d="M112.365 86L112.549 86.3287C112.748 86.7031 113.053 87.0112 113.425 87.2151L113.754 87.3944L113.425 87.5737C113.054 87.7749 112.75 88.0794 112.549 88.4502L112.365 88.7788L112.185 88.4502C111.984 88.0794 111.68 87.7749 111.309 87.5737L111 87.3844L111.329 87.2052C111.699 87.0039 112.004 86.6995 112.205 86.3287L112.365 86Z" fill="#50555C"/>
<path d="M91.6967 166.74L91.7864 166.905C91.8886 167.089 92.0404 167.241 92.2246 167.343L92.389 167.433L92.2246 167.522C92.0413 167.626 91.8898 167.777 91.7864 167.96L91.6967 168.125L91.6071 167.96C91.5049 167.776 91.3531 167.624 91.1689 167.522L91.0045 167.433L91.1689 167.343C91.3542 167.242 91.5065 167.09 91.6071 166.905L91.6967 166.74Z" fill="#50555C"/>
<path d="M73.6342 106.692L73.7239 106.856C73.8261 107.04 73.9779 107.192 74.1621 107.294L74.3265 107.384L74.1621 107.473C73.9779 107.576 73.8261 107.727 73.7239 107.912L73.6342 108.076L73.5446 107.912C73.444 107.726 73.2917 107.574 73.1064 107.473L72.942 107.384L73.1064 107.294C73.2917 107.193 73.444 107.041 73.5446 106.856L73.6342 106.692Z" fill="#50555C"/>
<path d="M219.439 89.894L219.528 90.0583C219.629 90.2437 219.781 90.3959 219.967 90.4966L220.131 90.5862L219.967 90.6758C219.781 90.7765 219.629 90.9287 219.528 91.1141L219.439 91.2784L219.349 91.1141C219.248 90.9287 219.096 90.7765 218.911 90.6758L218.746 90.5862L218.911 90.4966C219.096 90.3959 219.248 90.2437 219.349 90.0583L219.439 89.894Z" fill="#50555C"/>
<path d="M30.4044 75L30.5886 75.3287C30.7899 75.6995 31.0943 76.0039 31.4651 76.2052L31.7938 76.3844L31.4651 76.5637C31.0849 76.7659 30.773 77.076 30.5687 77.4551L30.3844 77.7838L30.2052 77.4551C30.0039 77.0844 29.6995 76.7799 29.3287 76.5787L29 76.3994L29.3287 76.2201C29.6995 76.0188 30.0039 75.7144 30.2052 75.3436L30.4044 75Z" fill="#50555C"/>
<path d="M166.496 162.348L166.681 162.677C166.881 163.046 167.184 163.35 167.552 163.553L167.886 163.732L167.552 163.912C167.184 164.115 166.881 164.419 166.681 164.788L166.496 165.117L166.317 164.788C166.114 164.419 165.81 164.115 165.44 163.912L165.112 163.732L165.44 163.553C165.81 163.35 166.114 163.046 166.317 162.677L166.496 162.348Z" fill="#50555C"/>
<path d="M165.765 21L166.263 21.8914C166.81 22.8934 167.632 23.7177 168.633 24.2669L169.525 24.7649L168.633 25.2629C167.633 25.8107 166.811 26.6332 166.263 27.6334L165.765 28.5248L165.267 27.6334C164.718 26.6325 163.893 25.8099 162.891 25.2629L162 24.7649L162.891 24.2669C163.894 23.7185 164.718 22.8941 165.267 21.8914L165.765 21Z" fill="#50555C"/>
<path d="M195.977 32.571H194.702V58.3328H195.977V32.571Z" fill="#E6E6E6"/>
<path d="M165.752 101.057L154.018 128.094L156.314 131.92L155.549 133.195L160.905 136.001V134.471L162.946 133.961L171.618 118.146L165.752 101.057Z" fill="#E6E6E6"/>
<path d="M156.569 132.94C156.569 132.94 147.897 146.459 157.589 148.499C167.282 150.54 159.375 134.216 159.375 134.216L156.569 132.94Z" fill="#E6E6E6"/>
<path d="M169.067 126.819L166.006 136.766L164.731 149.52L162.435 154.111L164.986 174.771L169.067 178.853L170.853 199.258V208.44L175.699 216.858L169.458 225.716C169.164 226.132 168.988 226.62 168.948 227.128C168.909 227.637 169.008 228.146 169.235 228.602C169.462 229.059 169.809 229.445 170.238 229.721C170.667 229.996 171.163 230.15 171.672 230.166C173.05 230.202 174.866 229.813 177.229 228.591C184.626 224.765 184.371 221.194 184.371 221.194C184.371 221.194 188.962 221.194 189.217 217.623C189.473 214.052 186.412 188.545 186.412 188.545L183.606 177.577V147.734H184.626L185.136 173.241L187.432 182.679L187.687 186.76L191.003 227.571C191.003 227.571 205.797 231.652 206.562 228.336C207.327 225.02 200.951 222.979 200.951 222.979L204.777 215.582V201.299L203.501 198.238L201.206 177.577L205.032 173.496L207.072 170.945V150.54L204.522 142.633L203.756 136.001L199.675 125.798C199.675 125.798 181.055 119.677 169.067 126.819Z" fill="white"/>
<path d="M202.226 69.1732C202.226 72.2413 201.498 75.2655 200.102 77.9973C198.705 80.7291 196.68 83.0905 194.193 84.8871C191.706 86.6839 188.829 87.8646 185.796 88.3323C182.764 88.8001 179.664 88.5415 176.752 87.5777C173.839 86.6139 171.196 84.9726 169.042 82.7886C166.887 80.6046 165.281 77.9404 164.357 75.0149C163.432 72.0895 163.215 68.9864 163.724 65.9608C164.232 62.9352 165.452 60.0735 167.282 57.611L167.287 57.6059C169.718 54.3351 173.119 51.9139 177.005 50.6865C180.892 49.4591 185.066 49.4879 188.935 50.7688C192.804 52.0498 196.171 54.5176 198.557 57.8216C200.943 61.1256 202.227 65.0977 202.226 69.1732Z" fill="#8765A9"/>
<path d="M199.981 60.1158L198.4 69.1732C186.516 38.3253 167.613 57.2743 167.287 57.6059C169.24 54.9785 171.828 52.8889 174.807 51.5317C177.787 50.1746 181.062 49.5943 184.326 49.8449C187.591 50.0955 190.739 51.1689 193.476 52.9649C196.214 54.7609 198.452 57.221 199.981 60.1158Z" fill="white"/>
<path d="M197.324 56.2919L199.981 65.5162C199.981 65.5162 194.465 82.0495 168.885 82.6257L168.047 84.9875L165.241 85.7527L163.966 91.1091L167.537 125.033C167.537 125.033 166.006 128.349 168.557 128.094C168.557 128.094 185.392 122.483 199.93 127.584C199.93 127.584 202.991 128.859 202.226 126.053C202.226 126.053 212.429 119.677 211.664 113.045C210.898 106.413 212.429 75.55 212.429 75.55C212.429 75.55 213.959 66.6226 209.368 64.582C209.368 64.582 202.625 55.1437 197.324 56.2919Z" fill="white"/>
<path d="M191.732 120.744C191.732 120.744 175.751 122.349 180.175 131.211C184.599 140.073 192.476 123.735 192.476 123.735L191.732 120.744Z" fill="#E6E6E6"/>
<path d="M199.931 81.1615C199.931 81.1615 197.125 84.4773 198.145 89.8338C199.166 95.1902 202.992 107.178 202.992 107.178L189.473 119.677L193.554 125.288L211.919 115.851L216 113.3C214.985 102.983 212.46 92.8716 208.505 83.289L207.838 81.6716C207.838 81.6716 202.992 79.631 199.931 81.1615Z" fill="#E6E6E6"/>
<path d="M198.655 72.1065C201.261 72.1065 203.374 69.9939 203.374 67.3878C203.374 64.7817 201.261 62.669 198.655 62.669C196.049 62.669 193.936 64.7817 193.936 67.3878C193.936 69.9939 196.049 72.1065 198.655 72.1065Z" fill="#E6E6E6"/>
<path d="M195.339 35.8868C197.241 35.8868 198.783 34.3452 198.783 32.4434C198.783 30.5417 197.241 29 195.339 29C193.438 29 191.896 30.5417 191.896 32.4434C191.896 34.3452 193.438 35.8868 195.339 35.8868Z" fill="#E6E6E6"/>
<path d="M180.505 61.6913H179.696V60.8829H179.539V61.6913H178.73V61.8492H179.539V62.6576H179.696V61.8492H180.505V61.6913Z" fill="#F2F2F2"/>
<path d="M172.519 69.2339H171.71V68.4256H171.552V69.2339H170.744V69.3919H171.552V70.2003H171.71V69.3919H172.519V69.2339Z" fill="#F2F2F2"/>
</svg>
