<svg width="249" height="249" viewBox="0 0 249 249" fill="none" xmlns="http://www.w3.org/2000/svg">
<path d="M161.437 44.82L161.716 45.318C162.03 45.8816 162.498 46.3444 163.065 46.6526L163.563 46.9265L163.065 47.2004C162.497 47.5091 162.028 47.974 161.716 48.5401L161.437 49.0381L161.163 48.5401C160.85 47.974 160.382 47.5091 159.813 47.2004L159.315 46.9265L159.813 46.6526C160.38 46.3444 160.848 45.8816 161.163 45.318L161.437 44.82Z" fill="#EBEBEB"/>
<path d="M56.6923 22.2955L56.9712 22.7935C57.2811 23.3589 57.7481 23.8225 58.3158 24.1281L58.8138 24.407L58.3158 24.6809C57.7491 24.9879 57.2824 25.4511 56.9712 26.0155L56.6923 26.5135L56.4135 26.0155C56.1023 25.4511 55.6356 24.9879 55.0689 24.6809L54.5709 24.407L55.0689 24.1281C55.6366 23.8225 56.1036 23.3589 56.4135 22.7935L56.6923 22.2955Z" fill="#EBEBEB"/>
<path d="M221.266 77.0356L221.545 77.5336C221.857 78.0994 222.326 78.5629 222.895 78.8683L223.393 79.1422L222.895 79.4161C222.326 79.7214 221.857 80.1849 221.545 80.7507L221.266 81.2487L220.987 80.7507C220.676 80.1863 220.21 79.7231 219.643 79.4161L219.145 79.1422L219.643 78.8683C220.21 78.5613 220.676 78.098 220.987 77.5336L221.266 77.0356Z" fill="#EBEBEB"/>
<path d="M16.5535 111.706L16.8274 112.204C17.1412 112.77 17.6093 113.234 18.177 113.544L18.675 113.818L18.177 114.092C17.6099 114.4 17.142 114.863 16.8274 115.426L16.5535 115.924L16.2746 115.426C15.967 114.863 15.5037 114.399 14.94 114.092L14.442 113.818L14.94 113.544C15.5092 113.239 15.978 112.775 16.2896 112.209L16.5535 111.706Z" fill="#EBEBEB"/>
<path d="M111.806 20.7616L112.304 21.6331C112.837 22.6048 113.637 23.4033 114.61 23.9339L115.476 24.4319L114.61 24.905C113.637 25.4373 112.836 26.2375 112.304 27.2107L111.806 28.0772L111.333 27.2107C110.801 26.2357 110.001 25.4337 109.027 24.9L108.161 24.402L109.027 23.904C110 23.3734 110.8 22.5749 111.333 21.6032L111.806 20.7616Z" fill="#EBEBEB"/>
<path d="M47.1257 63.3805L47.6237 64.247C48.1576 65.219 48.9574 66.0188 49.9294 66.5527L50.796 67.0507L49.9294 67.5238C48.9574 68.0577 48.1576 68.8575 47.6237 69.8296L47.1257 70.6961L46.6526 69.8296C46.1203 68.8564 45.3201 68.0562 44.3469 67.5238L43.4803 67.0507L44.3469 66.5527C45.3208 66.019 46.121 65.217 46.6526 64.242L47.1257 63.3805Z" fill="#EBEBEB"/>
<path d="M208.164 34.5512L208.303 34.8002C208.456 35.0828 208.688 35.3147 208.971 35.4676L209.22 35.607L208.971 35.7464C208.688 35.8993 208.456 36.1312 208.303 36.4138L208.164 36.6628L208.03 36.4138C207.875 36.1324 207.644 35.9009 207.362 35.7464L207.108 35.607L207.362 35.4676C207.644 35.3131 207.875 35.0816 208.03 34.8002L208.164 34.5512Z" fill="#EBEBEB"/>
<path d="M20.5325 74.4709L20.672 74.7249C20.8249 75.0074 21.0568 75.2393 21.3393 75.3922L21.5883 75.5317L21.3393 75.6661C21.058 75.8206 20.8265 76.0521 20.672 76.3334L20.5325 76.5874L20.3981 76.3334C20.2423 76.0531 20.0111 75.8219 19.7308 75.6661L19.4768 75.5317L19.7308 75.3922C20.0195 75.2408 20.2582 75.009 20.418 74.7249L20.5325 74.4709Z" fill="#EBEBEB"/>
<path d="M50.5255 195.044C54.2406 198.579 58.0254 203.375 63.1349 202.892C68.7573 202.344 72.9355 195.372 78.4135 196.647C81.4015 197.339 83.2093 200.223 85.5748 202.125C90.3307 205.97 97.5268 205.691 102.835 202.698C108.144 199.705 111.899 194.486 114.628 189.018C122.736 172.843 123.258 154.038 123.079 135.956L124.728 75.2297L126.376 137.48C126.197 155.567 126.729 174.362 134.807 190.547C137.536 196.025 141.281 201.239 146.6 204.232C151.918 207.225 159.104 207.499 163.86 203.659C166.226 201.747 168.059 198.863 171.022 198.181C176.5 196.901 180.698 203.898 186.315 204.426C191.425 204.924 195.209 200.113 198.925 196.577C204.189 191.686 210.908 188.65 218.058 187.932C221.755 177.283 223.637 166.088 223.625 154.815C223.625 99.1387 178.492 54 122.815 54C67.1388 54 22.0001 99.1337 22.0001 154.81C21.9891 165.466 23.67 176.056 26.9801 186.184C35.5855 186.025 44.2856 189.107 50.5255 195.044Z" fill="#EBEBEB" fill-opacity="0.15"/>
<path d="M176.865 130.476H238.746C238.746 130.476 233.268 120.516 217.332 121.97C202.118 123.355 201.346 117.07 193.612 116.298C185.878 115.526 179.444 121.472 176.865 130.476Z" fill="white" fill-opacity="0.15"/>
<path d="M9.96 143.265H49.4962C49.4962 143.265 46.0102 136.895 35.8162 137.821C26.0902 138.708 25.5972 134.694 20.6521 134.196C15.7069 133.698 11.5835 137.493 9.96 143.265Z" fill="white" fill-opacity="0.15"/>
<path d="M104.032 202.188C104.286 202.024 104.53 201.854 104.774 201.69L105.103 201.441C105.342 201.257 105.601 201.072 105.81 200.883L106.094 200.649C106.358 200.42 106.622 200.191 106.881 199.952L107.03 199.813C108.006 198.881 108.917 197.882 109.754 196.825C110.038 196.471 110.312 196.112 110.581 195.744C107.239 195.51 103.803 195.953 100.621 194.977C94.0822 192.985 90.4667 185.744 84.2367 182.93C76.0297 179.22 65.4073 184.061 57.8427 179.16C52.1655 175.485 50.7412 167.936 47.1008 162.229C41.7075 153.763 31.4636 149.28 21.8323 152.059C21.7958 153.095 21.7775 154.133 21.7775 155.172C21.7784 165.401 23.335 175.57 26.394 185.331C26.6281 185.734 26.8571 186.137 27.1061 186.546C27.1958 186.546 27.2904 186.546 27.38 186.546H28.64H28.9587C29.387 186.546 29.8103 186.586 30.2336 186.621C30.3382 186.621 30.4427 186.621 30.5423 186.65C30.9706 186.685 31.3989 186.73 31.8222 186.785L32.131 186.825C32.5543 186.884 32.9776 186.944 33.4009 187.019L33.7146 187.079C34.1329 187.158 34.5512 187.238 34.9646 187.328L35.2982 187.407C35.7016 187.502 36.11 187.597 36.5134 187.706L36.8719 187.811C37.2604 187.92 37.6538 188.035 38.0422 188.159L38.4307 188.294C38.8042 188.418 39.1777 188.543 39.5462 188.682L39.9695 188.852C40.3231 188.986 40.6766 189.125 41.0203 189.275C41.1796 189.34 41.334 189.414 41.4884 189.484C41.8171 189.633 42.1457 189.778 42.4844 189.937C42.6587 190.017 42.828 190.112 42.9824 190.201C43.2862 190.351 43.585 190.505 43.8838 190.664C44.073 190.769 44.2523 190.883 44.4415 190.988C44.7154 191.147 44.9893 191.302 45.2582 191.486L45.8708 191.879L46.5979 192.353C46.8269 192.512 47.0461 192.681 47.2751 192.851C47.5042 193.02 47.6885 193.144 47.8877 193.299C48.0869 193.453 48.3857 193.717 48.6695 193.926C48.8189 194.056 48.9783 194.175 49.1327 194.305C49.5361 194.648 49.9345 195.007 50.3229 195.375C54.038 198.911 57.8228 203.707 62.9323 203.224C68.5298 202.686 72.708 195.714 78.186 196.989C81.174 197.681 82.9818 200.565 85.3472 202.467C90.1031 206.311 97.2992 206.033 102.608 203.04C102.981 202.835 103.34 202.611 103.699 202.382L104.032 202.188Z" fill="#E0E0E0" fill-opacity="0.15"/>
<path d="M199.997 195.754L200.689 195.181C200.814 195.082 200.948 194.987 201.077 194.887C201.297 194.718 201.516 194.549 201.74 194.389L202.153 194.095L202.82 193.637L203.244 193.363C203.473 193.219 203.702 193.07 203.936 192.93C204.075 192.841 204.22 192.761 204.359 192.681L205.076 192.268L205.505 192.039L206.252 191.65L206.67 191.451C206.929 191.327 207.168 191.202 207.447 191.083L207.86 190.903L208.667 190.565L209.07 190.405L209.907 190.092L210.3 189.957L211.167 189.668L211.55 189.554C211.849 189.464 212.143 189.374 212.442 189.295L212.82 189.195L213.732 188.971L214.105 188.886L215.036 188.697L215.4 188.627C215.714 188.573 216.027 188.518 216.346 188.473L216.705 188.418L217.233 188.344C217.626 187.796 218 187.253 218.353 186.705C221.705 176.525 223.408 165.875 223.398 155.157C223.398 153.118 223.336 151.097 223.214 149.091C213.488 146.651 204.339 151.581 199.25 160.241C195.814 166.068 194.653 173.663 189.111 177.542C181.725 182.701 170.943 178.234 162.866 182.233C156.746 185.256 153.384 192.621 146.91 194.847C143.922 195.878 140.635 195.634 137.448 195.913C137.712 196.302 137.981 196.69 138.26 197.069C138.329 197.173 138.404 197.273 138.479 197.372C138.708 197.676 138.937 197.98 139.171 198.274L139.375 198.528C139.669 198.896 139.978 199.255 140.292 199.603L140.456 199.788C140.72 200.076 140.989 200.36 141.263 200.634L141.547 200.918C141.825 201.197 142.114 201.466 142.408 201.73L142.582 201.889C142.931 202.193 143.29 202.487 143.653 202.771L143.942 202.985C144.226 203.204 144.52 203.413 144.818 203.617L145.152 203.841C145.541 204.095 145.939 204.339 146.352 204.573C151.681 207.561 158.857 207.84 163.613 204.001C165.978 202.088 167.811 199.205 170.774 198.523C176.252 197.243 180.45 204.24 186.068 204.768C191.177 205.266 194.962 200.455 198.677 196.919C198.996 196.615 199.325 196.317 199.673 196.028C199.783 195.933 199.892 195.848 199.997 195.754Z" fill="#E0E0E0" fill-opacity="0.15"/>
<path d="M222.262 229.08C222.262 229.15 178.095 229.209 123.624 229.209C69.1523 229.209 24.9697 229.15 24.9697 229.08C24.9697 229.01 69.1274 228.951 123.624 228.951C178.12 228.951 222.262 229.015 222.262 229.08Z" fill="#F0F0FC"/>
<path d="M209.39 62.7455C209.56 58.1885 206.003 54.3569 201.446 54.1874C196.889 54.018 193.057 57.5747 192.888 62.1317C192.718 66.6887 196.275 70.5202 200.832 70.6897C205.389 70.8592 209.221 67.3024 209.39 62.7455Z" fill="#50555C"/>
<path d="M203.812 59.262C203.817 58.9947 203.901 58.735 204.054 58.5157C204.207 58.2964 204.421 58.1274 204.67 58.0302C204.919 57.933 205.191 57.9119 205.452 57.9696C205.713 58.0274 205.951 58.1613 206.136 58.3545C206.321 58.5477 206.444 58.7914 206.49 59.0547C206.536 59.318 206.503 59.5891 206.395 59.8335C206.287 60.078 206.108 60.2848 205.883 60.4277C205.657 60.5707 205.393 60.6433 205.126 60.6365C204.95 60.6326 204.776 60.594 204.614 60.5228C204.452 60.4516 204.306 60.3493 204.184 60.2216C204.062 60.094 203.966 59.9435 203.902 59.7789C203.838 59.6142 203.808 59.4386 203.812 59.262Z" fill="#F0F0FC"/>
<path d="M206.506 62.4143C206.509 62.2586 206.558 62.1072 206.647 61.9794C206.736 61.8516 206.861 61.7531 207.006 61.6965C207.152 61.6399 207.31 61.6276 207.462 61.6613C207.615 61.695 207.753 61.773 207.861 61.8856C207.969 61.9982 208.041 62.1403 208.067 62.2938C208.094 62.4473 208.075 62.6053 208.012 62.7478C207.949 62.8903 207.845 63.0109 207.713 63.0942C207.582 63.1776 207.428 63.22 207.273 63.2161C207.065 63.2109 206.867 63.1236 206.724 62.9734C206.58 62.8232 206.502 62.6222 206.506 62.4143Z" fill="#F0F0FC"/>
<path d="M205.455 64.8197C205.531 64.8197 205.605 64.8501 205.659 64.9043C205.713 64.9584 205.744 65.0319 205.744 65.1085C205.744 65.1851 205.713 65.2586 205.659 65.3128C205.605 65.3669 205.531 65.3974 205.455 65.3974C205.417 65.3967 205.38 65.3886 205.345 65.3734C205.311 65.3582 205.28 65.3363 205.254 65.309C205.228 65.2816 205.208 65.2494 205.194 65.2141C205.181 65.1788 205.175 65.1412 205.176 65.1035C205.177 65.0295 205.207 64.9587 205.259 64.9059C205.311 64.8531 205.381 64.8222 205.455 64.8197Z" fill="#F0F0FC"/>
<path d="M184.788 99.3361L185.072 99.8341C185.389 100.415 185.866 100.892 186.446 101.209L186.944 101.492L186.446 101.776C185.864 102.091 185.387 102.569 185.072 103.151L184.788 103.649L184.504 103.151C184.19 102.568 183.712 102.09 183.13 101.776L182.632 101.492L183.13 101.209C183.711 100.893 184.189 100.416 184.504 99.8341L184.788 99.3361Z" fill="#50555C"/>
<path d="M73.5446 56.1097L74.0426 57.0061C74.5918 58.0069 75.4161 58.8295 76.4181 59.3765L77.3095 59.8745L76.4181 60.3725C75.4154 60.9209 74.591 61.7453 74.0426 62.748L73.5446 63.6394L73.0466 62.748C72.4996 61.746 71.677 60.9217 70.6762 60.3725L69.7798 59.8745L70.6762 59.3765C71.6763 58.8287 72.4988 58.0062 73.0466 57.0061L73.5446 56.1097Z" fill="#50555C"/>
<path d="M41.7025 26.6729L41.8868 27.0016C42.0865 27.376 42.3911 27.6841 42.7633 27.888L43.0919 28.0673L42.7633 28.2466C42.3925 28.4478 42.088 28.7523 41.8868 29.123L41.7025 29.4517L41.5232 29.123C41.322 28.7523 41.0175 28.4478 40.6468 28.2466L40.338 28.0573L40.6667 27.878C41.0375 27.6768 41.3419 27.3723 41.5432 27.0016L41.7025 26.6729Z" fill="#50555C"/>
<path d="M91.6968 166.74L91.7864 166.905C91.8886 167.089 92.0404 167.241 92.2246 167.343L92.389 167.433L92.2246 167.522C92.0414 167.626 91.8898 167.777 91.7864 167.96L91.6968 168.125L91.6071 167.96C91.5049 167.776 91.3531 167.624 91.1689 167.522L91.0045 167.433L91.1689 167.343C91.3543 167.242 91.5065 167.09 91.6071 166.905L91.6968 166.74Z" fill="#50555C"/>
<path d="M73.6343 106.692L73.7239 106.856C73.8261 107.04 73.978 107.192 74.1622 107.294L74.3265 107.384L74.1622 107.473C73.978 107.576 73.8261 107.727 73.7239 107.912L73.6343 108.076L73.5447 107.912C73.444 107.726 73.2918 107.574 73.1064 107.473L72.9421 107.384L73.1064 107.294C73.2918 107.193 73.444 107.041 73.5447 106.856L73.6343 106.692Z" fill="#50555C"/>
<path d="M219.439 89.894L219.528 90.0583C219.629 90.2437 219.781 90.3959 219.967 90.4966L220.131 90.5862L219.967 90.6758C219.781 90.7765 219.629 90.9287 219.528 91.1141L219.439 91.2784L219.349 91.1141C219.248 90.9287 219.096 90.7765 218.911 90.6758L218.746 90.5862L218.911 90.4966C219.096 90.3959 219.248 90.2437 219.349 90.0583L219.439 89.894Z" fill="#50555C"/>
<path d="M29.7157 89.142L29.8999 89.4707C30.1012 89.8415 30.4056 90.1459 30.7764 90.3472L31.1051 90.5264L30.7764 90.7057C30.3962 90.9079 30.0843 91.218 29.88 91.5971L29.6958 91.9258L29.5165 91.5971C29.3152 91.2264 29.0108 90.9219 28.64 90.7207L28.3113 90.5414L28.64 90.3621C29.0108 90.1608 29.3152 89.8564 29.5165 89.4856L29.7157 89.142Z" fill="#50555C"/>
<path d="M166.496 162.348L166.681 162.677C166.881 163.046 167.184 163.35 167.552 163.553L167.886 163.732L167.552 163.912C167.184 164.115 166.881 164.419 166.681 164.788L166.496 165.117L166.317 164.788C166.114 164.419 165.81 164.115 165.441 163.912L165.112 163.732L165.441 163.553C165.81 163.35 166.114 163.046 166.317 162.677L166.496 162.348Z" fill="#50555C"/>
<path d="M177.059 23.3213L177.557 24.2128C178.104 25.2147 178.927 26.0391 179.927 26.5882L180.819 27.0862L179.927 27.5842C178.927 28.132 178.105 28.9546 177.557 29.9547L177.059 30.8461L176.561 29.9547C176.012 28.9539 175.187 28.1313 174.185 27.5842L173.294 27.0862L174.185 26.5882C175.188 26.0398 176.013 25.2154 176.561 24.2128L177.059 23.3213Z" fill="#50555C"/>
<path d="M57.8676 131.338C55.9153 130.81 54.1504 129.745 52.774 128.263C51.3976 126.781 50.465 124.943 50.0824 122.957C49.6999 120.971 49.8828 118.918 50.6103 117.031C51.3378 115.144 52.5807 113.499 54.1974 112.284C52.7903 112.879 51.5256 113.767 50.4871 114.887C49.4486 116.008 48.6598 117.336 48.173 118.784C47.6862 120.233 47.5125 121.768 47.6633 123.288C47.8141 124.808 48.286 126.279 49.0478 127.604C49.8096 128.928 50.8439 130.076 52.0823 130.97C53.3207 131.865 54.735 132.487 56.2316 132.794C57.7282 133.101 59.273 133.087 60.7638 132.753C62.2546 132.419 63.6574 131.771 64.8795 130.854C62.6623 131.796 60.193 131.967 57.8676 131.338Z" fill="#50555C"/>
<path d="M201.008 213.239C201.745 214.289 203.174 213.941 203.836 213.298C204.441 212.598 204.853 211.751 205.032 210.843C205.614 208.816 206.202 206.695 205.769 204.628C205.663 204.004 205.389 203.42 204.977 202.94C204.767 202.704 204.498 202.527 204.199 202.428C203.899 202.328 203.578 202.309 203.269 202.372C202.547 202.562 202.098 203.269 201.775 203.941C200.822 205.924 200.322 208.095 200.311 210.295C200.245 211.324 200.487 212.349 201.008 213.239Z" fill="#E9BF52"/>
<g opacity="0.2">
<path opacity="0.2" d="M201.008 213.239C201.745 214.289 203.174 213.941 203.836 213.298C204.441 212.598 204.853 211.751 205.032 210.843C205.614 208.816 206.202 206.695 205.769 204.628C205.663 204.004 205.389 203.42 204.977 202.94C204.767 202.704 204.498 202.527 204.199 202.428C203.899 202.328 203.578 202.309 203.269 202.372C202.547 202.562 202.098 203.269 201.775 203.941C200.822 205.924 200.322 208.095 200.311 210.295C200.245 211.324 200.487 212.349 201.008 213.239Z" fill="black"/>
</g>
<path d="M203.762 218.557C204.992 217.971 206.378 217.796 207.716 218.059C208.448 218.12 209.138 218.427 209.673 218.931C210.171 219.469 210.251 220.425 209.673 220.878C209.311 221.124 208.874 221.236 208.438 221.192C207.392 221.192 206.237 220.997 205.4 221.625C204.902 221.984 204.603 222.581 204.036 222.755C203.749 222.824 203.448 222.797 203.178 222.678C202.908 222.559 202.685 222.356 202.542 222.098C202.271 221.574 202.212 220.966 202.377 220.4C202.451 220.007 202.614 219.636 202.854 219.317C203.094 218.997 203.405 218.737 203.762 218.557Z" fill="#E9BF52"/>
<path d="M198.986 214.743C199.364 214.25 199.617 213.672 199.721 213.059C199.825 212.446 199.778 211.817 199.583 211.227C199.177 210.047 198.455 209.002 197.497 208.204C196.408 207.236 195.141 206.488 193.767 206.003C193.234 205.788 192.662 205.691 192.089 205.719C191.802 205.736 191.524 205.822 191.279 205.971C191.033 206.119 190.827 206.325 190.679 206.57C190.291 207.317 190.679 208.229 191.073 208.966C191.791 210.273 192.61 211.522 193.523 212.701C194.255 213.647 195.096 214.583 196.217 215.007C197.337 215.43 198.498 215.385 199.095 214.608" fill="#E9BF52"/>
<path d="M200.958 229.08C200.998 228.917 201.02 228.75 201.023 228.582C201.058 228.233 201.097 227.8 201.152 227.282C201.216 226.64 201.312 226.002 201.441 225.37C201.615 224.601 201.848 223.847 202.138 223.114C202.423 222.382 202.81 221.695 203.289 221.072C203.679 220.565 204.177 220.151 204.748 219.862C205.134 219.671 205.547 219.542 205.973 219.479C206.132 219.471 206.29 219.449 206.446 219.414C206.281 219.392 206.113 219.392 205.948 219.414C205.505 219.448 205.071 219.561 204.668 219.747C204.07 220.03 203.545 220.448 203.134 220.968C202.635 221.599 202.233 222.3 201.939 223.049C201.644 223.792 201.415 224.558 201.252 225.34C201.127 225.98 201.042 226.627 200.998 227.277C200.953 227.83 200.938 228.273 200.933 228.587C200.92 228.752 200.929 228.917 200.958 229.08Z" fill="#F0F0FC"/>
<path d="M201.048 228.084C201.055 228.009 201.055 227.934 201.048 227.86V227.227C201.048 226.68 201.048 225.883 201.077 224.902C201.127 222.935 201.292 220.226 201.62 217.243C201.949 214.26 202.387 211.58 202.786 209.653C202.875 209.155 202.97 208.737 203.059 208.358C203.149 207.98 203.219 207.646 203.289 207.362L203.438 206.745C203.458 206.673 203.471 206.6 203.478 206.526C203.441 206.591 203.414 206.661 203.398 206.735L203.214 207.342C203.134 207.606 203.05 207.93 202.955 208.313C202.86 208.697 202.751 209.125 202.646 209.603C202.104 212.113 201.697 214.65 201.426 217.203C201.097 220.191 200.928 222.91 200.928 224.877C200.928 225.873 200.928 226.66 200.963 227.208C200.963 227.466 200.988 227.676 200.998 227.845C201.003 227.927 201.02 228.007 201.048 228.084Z" fill="#F0F0FC"/>
<path d="M201.058 222.835C201.077 222.615 201.077 222.393 201.058 222.173C201.033 221.749 200.973 221.137 200.853 220.38C200.707 219.5 200.512 218.629 200.271 217.77C199.979 216.715 199.613 215.682 199.175 214.678C198.416 212.837 197.33 211.15 195.968 209.698C195.733 209.449 195.482 209.216 195.216 209.001C195.101 208.901 194.997 208.801 194.892 208.727L194.598 208.523C194.425 208.387 194.238 208.268 194.041 208.169C194.686 208.67 195.296 209.214 195.868 209.797C197.187 211.267 198.245 212.951 198.996 214.777C199.428 215.774 199.796 216.797 200.096 217.84C200.38 218.801 200.569 219.683 200.714 220.425C200.858 221.167 200.933 221.779 200.978 222.203C200.992 222.415 201.018 222.626 201.058 222.835Z" fill="#F0F0FC"/>
<path d="M48.8389 175.844C48.9327 175.816 49.03 175.803 49.1277 175.804C49.4172 175.798 49.704 175.861 49.9643 175.988C50.3903 176.193 50.7622 176.495 51.05 176.87C51.4369 177.388 51.7456 177.96 51.9663 178.568C52.4892 179.942 52.7382 181.73 53.027 183.812C53.3667 186.193 53.5845 188.59 53.6794 190.993C53.7989 191.396 54.0679 191.874 54.5111 191.909C54.7373 191.9 54.9564 191.828 55.1435 191.7C55.3527 191.581 55.5569 191.446 55.7611 191.307C56.1763 191.011 56.6105 190.743 57.0608 190.505C57.5314 190.221 58.0934 190.13 58.6295 190.251C58.8925 190.355 59.1303 190.515 59.3269 190.718C59.5236 190.922 59.6746 191.165 59.7699 191.431C59.9438 191.977 59.9747 192.558 59.8596 193.119C59.6703 194.255 59.1026 195.291 58.6644 196.376C58.2262 197.462 57.7182 198.577 57.2351 199.713L56.4931 201.441C56.3686 201.73 56.2441 202.024 56.1146 202.317C56.0473 202.453 55.9988 202.597 55.9702 202.746C55.9406 202.884 55.9527 203.028 56.0051 203.159C56.0997 203.403 56.4433 203.353 56.7222 203.214L57.6186 202.815C58.2283 202.536 58.8535 202.292 59.4911 202.083C60.1454 201.859 60.8312 201.74 61.5229 201.73C61.8844 201.732 62.2405 201.817 62.5637 201.979C62.8976 202.149 63.163 202.428 63.3157 202.771C63.573 203.456 63.6079 204.206 63.4153 204.912C63.2583 205.615 63.0332 206.3 62.743 206.959C62.1496 208.3 61.4484 209.591 60.6464 210.818C60.4346 211.111 60.2512 211.422 60.0986 211.75C60.0678 211.821 60.0519 211.898 60.0519 211.976C60.0519 212.054 60.0678 212.131 60.0986 212.203C60.1137 212.237 60.1339 212.269 60.1584 212.297C60.1584 212.322 60.2281 212.382 60.2231 212.362C60.2815 212.38 60.3441 212.38 60.4024 212.362C61.0836 212.062 61.7412 211.711 62.3695 211.311C63.0292 210.915 63.7244 210.582 64.4462 210.315C64.8196 210.175 65.2129 210.094 65.6115 210.076C65.8224 210.06 66.0345 210.089 66.2331 210.162C66.4317 210.235 66.6121 210.35 66.7619 210.5C67.0446 210.816 67.2007 211.226 67.2001 211.65C67.2105 212.053 67.1703 212.457 67.0806 212.85C66.8989 213.63 66.6247 214.386 66.2639 215.101C65.5383 216.545 64.6439 217.897 63.5996 219.13C62.554 220.393 61.4171 221.579 60.1982 222.676C59.5815 223.217 58.9366 223.726 58.266 224.2L56.274 225.743L56.2142 225.788L56.1495 225.763L53.8139 224.862C53.0322 224.586 52.2658 224.269 51.5181 223.911C50.0349 223.21 48.6052 222.401 47.2403 221.49C45.8853 220.608 44.6399 219.569 43.5302 218.393C42.9757 217.814 42.4956 217.168 42.1009 216.471C41.8989 216.12 41.7432 215.745 41.6378 215.355C41.5152 214.95 41.5471 214.513 41.7274 214.13C41.8305 213.942 41.9728 213.779 42.1447 213.651C42.3165 213.523 42.5139 213.433 42.7234 213.388C43.111 213.294 43.5106 213.259 43.9087 213.283C44.6791 213.338 45.4427 213.465 46.1895 213.662C46.9063 213.862 47.6371 214.009 48.3757 214.1C48.4354 214.105 48.4954 214.095 48.55 214.07C48.55 214.07 48.5849 214.011 48.5948 213.986C48.6094 213.951 48.6194 213.914 48.6247 213.876C48.6333 213.8 48.6262 213.722 48.6039 213.649C48.5817 213.575 48.5447 213.507 48.4952 213.448C48.2562 213.175 47.9891 212.928 47.6984 212.711C46.5806 211.762 45.5399 210.726 44.5859 209.613C44.1176 209.066 43.7039 208.473 43.3509 207.845C42.9707 207.221 42.7965 206.493 42.8529 205.764C42.8971 205.384 43.0734 205.031 43.3509 204.768C43.6177 204.523 43.9359 204.341 44.2822 204.235C44.9472 204.046 45.6381 203.963 46.3289 203.991C46.9954 204.006 47.6605 204.06 48.3209 204.15L49.3169 204.28C49.6207 204.329 49.9643 204.28 49.9843 204.016C49.9924 203.876 49.9632 203.737 49.8996 203.612C49.8257 203.479 49.7354 203.355 49.6307 203.244C49.4282 202.995 49.224 202.751 49.0181 202.512L47.813 201.067L45.4873 198.284C44.7503 197.372 43.9087 196.541 43.4057 195.505C43.1331 195.002 42.9958 194.438 43.0073 193.866C43.0218 193.584 43.0963 193.307 43.226 193.056C43.3556 192.804 43.5374 192.583 43.7593 192.407C44.237 192.151 44.7946 192.087 45.318 192.228C45.8243 192.325 46.3234 192.457 46.812 192.621C47.0461 192.696 47.2801 192.766 47.5142 192.821C47.7319 192.885 47.9637 192.885 48.1815 192.821C48.5948 192.666 48.7144 192.128 48.7144 191.705C48.116 189.381 47.6373 187.027 47.2801 184.653C46.9339 182.902 46.7671 181.12 46.7821 179.335C46.8079 178.69 46.9322 178.054 47.1506 177.447C47.3079 177.003 47.5651 176.601 47.9026 176.272C48.111 176.072 48.3635 175.924 48.6397 175.839C48.7334 175.811 48.8306 175.796 48.9285 175.794C48.5516 175.849 48.2024 176.023 47.9325 176.292C47.6061 176.62 47.3592 177.019 47.2104 177.457C47.0033 178.061 46.8875 178.692 46.8668 179.33C46.8663 181.108 47.0449 182.881 47.3996 184.624C47.7568 187.015 48.2354 189.387 48.8339 191.73C48.8363 191.974 48.7959 192.217 48.7144 192.447C48.6752 192.57 48.6106 192.683 48.5248 192.779C48.439 192.875 48.3339 192.952 48.2164 193.005C47.9679 193.08 47.7029 193.08 47.4544 193.005C47.2104 192.945 46.9564 192.875 46.7373 192.801C46.2606 192.644 45.775 192.516 45.2831 192.417C44.7957 192.294 44.2798 192.36 43.8389 192.601C43.6408 192.762 43.4785 192.963 43.3627 193.19C43.2469 193.417 43.1801 193.666 43.1666 193.921C43.1598 194.462 43.2918 194.995 43.5501 195.47C44.0481 196.466 44.8698 197.283 45.6118 198.199L47.9474 200.983L49.1576 202.422L49.7701 203.149C49.9 203.269 50.0031 203.414 50.0726 203.577C50.1421 203.739 50.1765 203.914 50.1735 204.09C50.162 204.192 50.1195 204.288 50.0518 204.364C49.9841 204.441 49.8944 204.495 49.795 204.519C49.621 204.556 49.4412 204.556 49.2671 204.519L48.2711 204.394C47.6104 204.307 46.9454 204.256 46.2791 204.24C45.6066 204.212 44.934 204.293 44.2871 204.479C43.9701 204.552 43.6814 204.717 43.4566 204.952C43.2319 205.187 43.0809 205.483 43.0222 205.803C42.9816 206.484 43.1558 207.16 43.5202 207.736C43.8673 208.352 44.2743 208.932 44.7353 209.469C45.6811 210.57 46.7136 211.595 47.8229 212.531C48.1274 212.76 48.4063 213.02 48.6546 213.308C48.7241 213.393 48.7757 213.491 48.8065 213.596C48.8373 213.702 48.8466 213.812 48.8339 213.921C48.8242 213.975 48.8092 214.029 48.7891 214.08C48.7705 214.14 48.7381 214.195 48.6944 214.24C48.647 214.281 48.5915 214.312 48.5315 214.331C48.4716 214.349 48.4083 214.356 48.3458 214.349C47.5845 214.264 46.8316 214.116 46.0949 213.906C45.3638 213.716 44.6171 213.593 43.8638 213.537C43.4908 213.515 43.1164 213.549 42.7533 213.637C42.5813 213.675 42.4191 213.748 42.2775 213.853C42.1359 213.958 42.018 214.091 41.9316 214.245C41.782 214.577 41.759 214.952 41.8669 215.3C41.9649 215.668 42.1106 216.021 42.3001 216.351C42.6869 217.03 43.1552 217.659 43.6945 218.224C44.7919 219.383 46.0222 220.41 47.3598 221.281C48.7172 222.181 50.1367 222.983 51.6077 223.682C52.351 224.037 53.1123 224.352 53.8886 224.628L56.2192 225.524H56.0947H56.1196L58.0817 223.985C58.7452 223.495 59.3835 222.972 59.994 222.417C61.2018 221.326 62.3286 220.15 63.3655 218.896C64.3989 217.677 65.2833 216.34 65.9999 214.912C66.3532 214.215 66.6207 213.477 66.7967 212.716C66.884 212.346 66.9225 211.965 66.9113 211.585C66.9146 211.219 66.7834 210.865 66.5427 210.589C66.4167 210.466 66.2657 210.371 66.0999 210.311C65.9342 210.251 65.7574 210.227 65.5816 210.241C65.209 210.261 64.8414 210.336 64.491 210.465C63.7847 210.734 63.1046 211.067 62.4591 211.461C61.8128 211.871 61.1351 212.229 60.4323 212.531C60.314 212.579 60.1821 212.579 60.0638 212.531C60.0116 212.499 59.966 212.456 59.9293 212.407C59.8935 212.364 59.8649 212.315 59.8446 212.263C59.8003 212.163 59.7774 212.055 59.7774 211.946C59.7774 211.837 59.8003 211.73 59.8446 211.63C59.9995 211.279 60.1915 210.945 60.4173 210.634C61.2112 209.418 61.9072 208.141 62.499 206.814C62.7827 206.173 63.0045 205.506 63.1613 204.822C63.3433 204.166 63.3154 203.47 63.0816 202.83C62.9342 202.539 62.7047 202.298 62.4215 202.136C62.1382 201.974 61.8137 201.898 61.488 201.919C60.8218 201.927 60.1611 202.041 59.5309 202.258C58.9023 202.463 58.2855 202.702 57.6833 202.975L56.7819 203.378C56.6262 203.454 56.4569 203.498 56.2839 203.508C56.1801 203.516 56.0762 203.492 55.9869 203.438C55.8975 203.385 55.8273 203.305 55.7859 203.209C55.7353 203.044 55.7193 202.87 55.739 202.699C55.7587 202.527 55.8137 202.362 55.9005 202.213C56.025 201.919 56.1495 201.63 56.279 201.336L57.021 199.613L58.4602 196.277C58.9084 195.181 59.4562 194.165 59.6504 193.07C59.7637 192.541 59.738 191.992 59.5757 191.476C59.4921 191.238 59.3606 191.02 59.1893 190.835C59.018 190.65 58.8105 190.502 58.5797 190.4C58.087 190.295 57.5728 190.381 57.1405 190.639C56.6984 190.876 56.271 191.138 55.8606 191.426C55.6515 191.566 55.4473 191.7 55.2332 191.825C55.0181 191.969 54.7652 192.047 54.5061 192.049C54.3759 192.037 54.2499 191.996 54.1372 191.93C54.0244 191.863 53.9277 191.773 53.8537 191.665C53.7058 191.47 53.596 191.249 53.53 191.013C53.4553 188.329 53.1715 185.928 52.9125 183.847C52.6535 181.765 52.4145 179.982 51.9165 178.618C51.7054 178.015 51.4067 177.446 51.0301 176.929C50.7497 176.558 50.3887 176.255 49.9743 176.043C49.6272 175.856 49.2289 175.786 48.8389 175.844Z" fill="#F0F0FC"/>
<path d="M56.5927 229.18C55.8955 224.588 54.282 213.886 53.296 206.864C52.3099 199.842 51.4185 193.488 50.7462 188.891C50.4076 186.601 50.1337 184.743 49.9395 183.448C49.8498 182.811 49.7751 182.313 49.7253 181.954L49.6705 181.571C49.6705 181.481 49.6705 181.436 49.6705 181.436C49.6705 181.436 49.6705 181.481 49.6705 181.566C49.6705 181.65 49.7104 181.785 49.7403 181.949C49.795 182.293 49.8747 182.791 49.9793 183.443C50.1934 184.723 50.4773 186.581 50.8309 188.876C51.5281 193.473 52.4394 199.832 53.4255 206.844C54.4115 213.856 56.0051 224.568 56.6774 229.165" fill="#F0F0FC"/>
<path d="M46.4883 194.489C46.5779 194.535 46.6616 194.592 46.7373 194.658C46.8967 194.778 47.1158 194.952 47.3897 195.156C47.9275 195.594 48.6596 196.227 49.4514 196.939L51.4783 198.767L52.0908 199.315C52.172 199.377 52.2456 199.449 52.3099 199.529C52.2205 199.48 52.1355 199.423 52.056 199.359C51.9016 199.24 51.6775 199.066 51.4086 198.861C50.8757 198.413 50.1486 197.776 49.3568 197.064L47.31 195.251L46.7025 194.718C46.6223 194.65 46.5505 194.573 46.4883 194.489Z" fill="#F0F0FC"/>
<path d="M52.6685 199.389C52.6386 199.364 53.8687 197.801 55.4175 195.903C56.9662 194.006 58.2511 192.472 58.281 192.497C58.3108 192.522 57.0808 194.091 55.532 195.983C53.9832 197.875 52.6984 199.414 52.6685 199.389Z" fill="#F0F0FC"/>
<path d="M53.6943 210.236C53.7685 210.164 53.8504 210.1 53.9384 210.046L54.6306 209.548C55.2132 209.14 56.02 208.577 56.8865 207.92C57.753 207.263 58.52 206.65 59.0727 206.202L59.7251 205.669C59.8021 205.6 59.8854 205.538 59.9741 205.485C59.9741 205.485 59.9044 205.574 59.76 205.709C59.6156 205.843 59.4064 206.043 59.1375 206.277C58.5996 206.75 57.8427 207.382 56.9712 208.035C56.0997 208.687 55.2879 209.245 54.6854 209.628C54.3866 209.822 54.1425 209.972 53.9682 210.076C53.8847 210.142 53.7925 210.195 53.6943 210.236Z" fill="#F0F0FC"/>
<path d="M47.1257 207.039C47.2209 207.058 47.313 207.089 47.3996 207.133L48.1118 207.447C48.7144 207.716 49.541 208.094 50.4474 208.523C51.3538 208.951 52.1754 209.349 52.7631 209.643C53.0619 209.787 53.2959 209.907 53.4603 209.997C53.5487 210.035 53.6323 210.083 53.7093 210.141C53.6139 210.123 53.5216 210.091 53.4354 210.046L52.7233 209.733C52.1207 209.464 51.294 209.08 50.3876 208.652C49.4813 208.224 48.6596 207.83 48.067 207.537C47.7731 207.392 47.5391 207.268 47.3747 207.183C47.2867 207.144 47.2032 207.096 47.1257 207.039Z" fill="#F0F0FC"/>
<path d="M46.812 216.73C46.931 216.76 47.0462 216.803 47.1556 216.859L48.0719 217.252C48.8438 217.596 49.9046 218.074 51.0599 218.612C52.2153 219.15 53.286 219.648 54.0479 220.011L54.9443 220.45C55.058 220.498 55.1664 220.558 55.268 220.629C55.1485 220.601 55.033 220.557 54.9244 220.499L54.0031 220.101C53.2312 219.762 52.1705 219.284 51.0151 218.742C49.8598 218.199 48.7891 217.711 48.0271 217.347L47.1307 216.909C47.0189 216.86 46.9122 216.8 46.812 216.73Z" fill="#F0F0FC"/>
<path d="M55.1087 220.48C55.2009 220.386 55.3027 220.303 55.4124 220.231L56.274 219.588C56.9961 219.045 57.9921 218.293 59.0678 217.437C60.1435 216.58 61.1046 215.773 61.7918 215.191L62.6086 214.499C62.7023 214.408 62.8058 214.327 62.9173 214.26C62.8356 214.361 62.7439 214.455 62.6434 214.538C62.4641 214.718 62.1952 214.967 61.8566 215.265C61.1843 215.873 60.2381 216.69 59.1574 217.546C58.0768 218.403 57.0708 219.15 56.3288 219.668C55.9603 219.932 55.6565 220.136 55.4473 220.275C55.3399 220.352 55.2266 220.42 55.1087 220.48Z" fill="#F0F0FC"/>
<path d="M160.909 215.036C158.826 214.087 156.589 213.521 154.305 213.368C147.831 212.92 141.781 210.007 136.95 205.649C136.751 205.47 136.552 205.295 136.352 205.126C133.27 202.537 130.038 198.468 129.38 194.499C126.89 179.753 125.058 159.435 125.187 148.758H123.693C123.693 148.758 123.529 174.708 118.713 196.655C118.462 197.739 117.953 198.745 117.23 199.59C116.507 200.436 115.591 201.094 114.56 201.511C109.845 203.504 105.938 207.024 103.464 211.506C102.765 212.753 101.702 213.759 100.418 214.388C99.1337 215.018 97.6881 215.242 96.2734 215.031C91.931 214.429 87.524 215.533 83.9797 218.114C80.4354 220.694 78.03 224.548 77.2697 228.866L171.75 228.916C171.159 225.914 169.869 223.094 167.985 220.682C166.102 218.271 163.678 216.337 160.909 215.036Z" fill="#EBEBEB"/>
<path d="M107.633 139.355H87.648V71.5825C87.648 68.941 88.6974 66.4076 90.5652 64.5397C92.4331 62.6719 94.9665 61.6225 97.608 61.6225C100.25 61.6225 102.783 62.6719 104.651 64.5397C106.519 66.4076 107.568 68.941 107.568 71.5825L107.633 139.355Z" fill="#E9BF52"/>
<path d="M107.633 139.355H87.648V71.5825C87.648 68.941 88.6974 66.4076 90.5652 64.5397C92.4331 62.6719 94.9665 61.6225 97.608 61.6225C100.25 61.6225 102.783 62.6719 104.651 64.5397C106.519 66.4076 107.568 68.941 107.568 71.5825L107.633 139.355Z" fill="#50555C"/>
<path d="M107.633 70.4969C107.633 70.5666 103.176 70.6264 97.6727 70.6264C92.1698 70.6264 87.7127 70.5666 87.7127 70.4969C87.7127 70.4272 92.1947 70.3674 97.6727 70.3674C103.151 70.3674 107.633 70.4222 107.633 70.4969Z" fill="#F0F0FC"/>
<path d="M107.633 87.7974C107.633 87.8721 103.176 87.9269 97.6727 87.9269C92.1698 87.9269 87.7127 87.8721 87.7127 87.7974C87.7127 87.7227 92.1947 87.6679 97.6727 87.6679C103.151 87.6679 107.633 87.7277 107.633 87.7974Z" fill="#F0F0FC"/>
<path d="M102.09 87.7974C102.02 87.7974 101.961 83.923 101.961 79.1471C101.961 74.3713 102.02 70.4969 102.09 70.4969C102.16 70.4969 102.219 74.3663 102.219 79.1471C102.219 83.9279 102.17 87.7974 102.09 87.7974Z" fill="#F0F0FC"/>
<path d="M99.7544 75.5317C99.7544 75.6705 99.7132 75.8063 99.6361 75.9218C99.5589 76.0372 99.4492 76.1272 99.3209 76.1804C99.1926 76.2335 99.0514 76.2474 98.9152 76.2203C98.779 76.1932 98.6539 76.1264 98.5557 76.0282C98.4575 75.93 98.3906 75.8049 98.3635 75.6687C98.3364 75.5324 98.3503 75.3913 98.4035 75.2629C98.4566 75.1346 98.5466 75.025 98.6621 74.9478C98.7776 74.8707 98.9133 74.8295 99.0522 74.8295C99.2384 74.8295 99.417 74.9035 99.5487 75.0351C99.6804 75.1668 99.7544 75.3454 99.7544 75.5317Z" fill="#F0F0FC"/>
<path d="M99.7544 81.5126C99.7544 81.6515 99.7132 81.7873 99.6361 81.9028C99.5589 82.0182 99.4492 82.1082 99.3209 82.1614C99.1926 82.2145 99.0514 82.2284 98.9152 82.2013C98.779 82.1742 98.6539 82.1074 98.5557 82.0092C98.4575 81.911 98.3906 81.7858 98.3635 81.6496C98.3364 81.5134 98.3503 81.3722 98.4035 81.2439C98.4566 81.1156 98.5466 81.006 98.6621 80.9288C98.7776 80.8516 98.9133 80.8105 99.0522 80.8105C99.2384 80.8105 99.417 80.8844 99.5487 81.0161C99.6804 81.1478 99.7544 81.3264 99.7544 81.5126Z" fill="#F0F0FC"/>
<path d="M107.633 123.006C107.633 123.076 103.176 123.135 97.6727 123.135C92.1698 123.135 87.7127 123.076 87.7127 123.006C87.7127 122.936 92.1947 122.877 97.6727 122.877C103.151 122.877 107.633 122.921 107.633 123.006Z" fill="#F0F0FC"/>
<path d="M102.09 123.006C102.02 123.006 101.961 119.132 101.961 114.356C101.961 109.58 102.02 105.705 102.09 105.705C102.16 105.705 102.219 109.575 102.219 114.356C102.219 119.137 102.17 123.006 102.09 123.006Z" fill="#F0F0FC"/>
<path d="M99.0522 111.423C99.44 111.423 99.7544 111.108 99.7544 110.72C99.7544 110.333 99.44 110.018 99.0522 110.018C98.6644 110.018 98.35 110.333 98.35 110.72C98.35 111.108 98.6644 111.423 99.0522 111.423Z" fill="#F0F0FC"/>
<path d="M99.0522 117.408C99.44 117.408 99.7544 117.094 99.7544 116.706C99.7544 116.318 99.44 116.004 99.0522 116.004C98.6644 116.004 98.35 116.318 98.35 116.706C98.35 117.094 98.6644 117.408 99.0522 117.408Z" fill="#F0F0FC"/>
<path d="M87.7277 105.576C87.7277 105.506 92.2097 105.447 97.6877 105.447C103.166 105.447 107.648 105.506 107.648 105.576C107.648 105.646 103.191 105.705 97.6877 105.705C92.1848 105.705 87.7277 105.621 87.7277 105.576Z" fill="#F0F0FC"/>
<path d="M93.2605 105.576C93.1907 105.576 93.131 101.702 93.131 96.9257C93.131 92.1499 93.1907 88.2755 93.2605 88.2755C93.3302 88.2755 93.3899 92.1449 93.3899 96.9257C93.3899 101.707 93.3352 105.576 93.2605 105.576Z" fill="#F0F0FC"/>
<path d="M95.616 93.2854C95.617 93.424 95.659 93.5593 95.7368 93.6741C95.8145 93.7889 95.9245 93.8781 96.0529 93.9305C96.1813 93.9829 96.3223 93.9961 96.4582 93.9685C96.5941 93.9408 96.7187 93.8735 96.8164 93.7751C96.9141 93.6767 96.9805 93.5516 97.0072 93.4155C97.0339 93.2795 97.0197 93.1385 96.9664 93.0105C96.9131 92.8825 96.8231 92.7731 96.7078 92.6962C96.5924 92.6193 96.4568 92.5782 96.3182 92.5782C96.2255 92.5782 96.1338 92.5965 96.0483 92.6321C95.9628 92.6677 95.8852 92.7199 95.8199 92.7856C95.7546 92.8513 95.703 92.9293 95.668 93.0151C95.633 93.1009 95.6153 93.1927 95.616 93.2854Z" fill="#F0F0FC"/>
<path d="M95.616 99.2663C95.616 99.4052 95.6572 99.541 95.7343 99.6565C95.8115 99.7719 95.9212 99.8619 96.0495 99.9151C96.1778 99.9682 96.319 99.9821 96.4552 99.955C96.5914 99.9279 96.7165 99.8611 96.8147 99.7629C96.9129 99.6647 96.9798 99.5395 97.0069 99.4033C97.034 99.2671 97.0201 99.1259 96.9669 98.9976C96.9138 98.8693 96.8238 98.7597 96.7083 98.6825C96.5928 98.6053 96.4571 98.5642 96.3182 98.5642C96.1319 98.5642 95.9533 98.6381 95.8217 98.7698C95.69 98.9015 95.616 99.0801 95.616 99.2663Z" fill="#F0F0FC"/>
<path d="M88.9776 72.21C88.9583 72.0779 88.9583 71.9437 88.9776 71.8116C88.9999 71.4492 89.0432 71.0884 89.1071 70.7309C89.3071 69.545 89.6778 68.3943 90.2077 67.3147C90.5069 66.7231 90.8639 66.1626 91.2734 65.6414C91.6142 65.2191 91.9981 64.8336 92.4188 64.491C92.5784 64.3612 92.7446 64.2399 92.9168 64.1275C93.0435 64.0353 93.1785 63.9552 93.3202 63.8884C93.4326 63.8159 93.5551 63.7605 93.6838 63.7241C93.7087 63.7689 93.2107 64.0378 92.5334 64.6354C92.1382 64.9863 91.7765 65.3731 91.4527 65.7908C91.0662 66.3085 90.7247 66.8583 90.4318 67.4342C89.9173 68.4946 89.5328 69.6132 89.2864 70.7658C89.0922 71.6473 89.0225 72.21 88.9776 72.21Z" fill="#FAFAFA"/>
<path d="M97.0602 62.8725C97.0602 62.9422 96.7614 63.0518 96.363 63.1215C95.9646 63.1912 95.6359 63.1862 95.626 63.1215C95.616 63.0568 95.9248 62.9372 96.3232 62.8675C96.7216 62.7978 97.0502 62.7978 97.0602 62.8725Z" fill="#FAFAFA"/>
<path d="M139.734 139.355H159.699V71.5825C159.699 70.2725 159.44 68.9753 158.938 67.7652C158.436 66.5552 157.7 65.4561 156.773 64.5309C155.845 63.6057 154.744 62.8726 153.533 62.3735C152.322 61.8744 151.024 61.6192 149.714 61.6225C147.072 61.6225 144.539 62.6719 142.671 64.5397C140.803 66.4076 139.754 68.941 139.754 71.5825L139.734 139.355Z" fill="#E9BF52"/>
<path d="M139.734 139.355H159.699V71.5825C159.699 70.2725 159.44 68.9753 158.938 67.7652C158.436 66.5552 157.7 65.4561 156.773 64.5309C155.845 63.6057 154.744 62.8726 153.533 62.3735C152.322 61.8744 151.024 61.6192 149.714 61.6225C147.072 61.6225 144.539 62.6719 142.671 64.5397C140.803 66.4076 139.754 68.941 139.754 71.5825L139.734 139.355Z" fill="#50555C"/>
<path d="M139.734 70.4969C139.734 70.4222 144.216 70.3674 149.694 70.3674C155.172 70.3674 159.654 70.4222 159.654 70.4969C159.654 70.5716 155.197 70.6264 149.694 70.6264C144.191 70.6264 139.734 70.5666 139.734 70.4969Z" fill="#F0F0FC"/>
<path d="M139.734 87.7974C139.734 87.7277 144.216 87.6679 149.694 87.6679C155.172 87.6679 159.654 87.7277 159.654 87.7974C159.654 87.8671 155.197 87.9269 149.694 87.9269C144.191 87.9269 139.734 87.8721 139.734 87.7974Z" fill="#F0F0FC"/>
<path d="M145.267 87.7974C145.197 87.7974 145.137 83.923 145.137 79.1471C145.137 74.3713 145.197 70.4969 145.267 70.4969C145.336 70.4969 145.396 74.3663 145.396 79.1471C145.396 83.9279 145.341 87.7974 145.267 87.7974Z" fill="#F0F0FC"/>
<path d="M147.607 75.5317C147.607 75.6705 147.648 75.8063 147.726 75.9218C147.803 76.0372 147.912 76.1272 148.041 76.1804C148.169 76.2335 148.31 76.2474 148.446 76.2203C148.583 76.1932 148.708 76.1264 148.806 76.0282C148.904 75.93 148.971 75.8049 148.998 75.6687C149.025 75.5324 149.011 75.3913 148.958 75.2629C148.905 75.1346 148.815 75.025 148.699 74.9478C148.584 74.8707 148.448 74.8295 148.309 74.8295C148.123 74.8295 147.945 74.9035 147.813 75.0351C147.681 75.1668 147.607 75.3454 147.607 75.5317Z" fill="#F0F0FC"/>
<path d="M147.607 81.5126C147.607 81.6515 147.648 81.7873 147.726 81.9028C147.803 82.0182 147.912 82.1082 148.041 82.1614C148.169 82.2145 148.31 82.2284 148.446 82.2013C148.583 82.1742 148.708 82.1074 148.806 82.0092C148.904 81.911 148.971 81.7858 148.998 81.6496C149.025 81.5134 149.011 81.3722 148.958 81.2439C148.905 81.1156 148.815 81.006 148.699 80.9288C148.584 80.8516 148.448 80.8105 148.309 80.8105C148.123 80.8105 147.945 80.8844 147.813 81.0161C147.681 81.1478 147.607 81.3264 147.607 81.5126Z" fill="#F0F0FC"/>
<path d="M139.734 123.006C139.734 122.936 144.216 122.877 149.694 122.877C155.172 122.877 159.654 122.936 159.654 123.006C159.654 123.076 155.197 123.135 149.694 123.135C144.191 123.135 139.734 123.061 139.734 123.006Z" fill="#F0F0FC"/>
<path d="M145.267 123.006C145.197 123.006 145.137 119.132 145.137 114.356C145.137 109.58 145.197 105.705 145.267 105.705C145.336 105.705 145.416 109.56 145.416 114.341C145.416 119.122 145.341 123.006 145.267 123.006Z" fill="#F0F0FC"/>
<path d="M148.309 111.423C148.697 111.423 149.012 111.108 149.012 110.72C149.012 110.333 148.697 110.018 148.309 110.018C147.922 110.018 147.607 110.333 147.607 110.72C147.607 111.108 147.922 111.423 148.309 111.423Z" fill="#F0F0FC"/>
<path d="M148.309 117.408C148.697 117.408 149.012 117.094 149.012 116.706C149.012 116.318 148.697 116.004 148.309 116.004C147.922 116.004 147.607 116.318 147.607 116.706C147.607 117.094 147.922 117.408 148.309 117.408Z" fill="#F0F0FC"/>
<path d="M159.639 105.576C159.639 105.646 155.182 105.705 149.679 105.705C144.176 105.705 139.719 105.646 139.719 105.576C139.719 105.506 144.201 105.447 149.679 105.447C155.157 105.447 159.639 105.481 159.639 105.576Z" fill="#F0F0FC"/>
<path d="M154.101 105.576C154.031 105.576 153.972 101.702 153.972 96.9257C153.972 92.1499 154.031 88.2755 154.101 88.2755C154.171 88.2755 154.231 92.1449 154.231 96.9257C154.231 101.707 154.176 105.576 154.101 105.576Z" fill="#F0F0FC"/>
<path d="M151.761 93.2854C151.76 93.424 151.718 93.5593 151.64 93.6741C151.562 93.7889 151.452 93.8781 151.324 93.9305C151.195 93.9829 151.054 93.9961 150.918 93.9685C150.782 93.9408 150.658 93.8735 150.56 93.7751C150.462 93.6767 150.396 93.5516 150.369 93.4155C150.343 93.2795 150.357 93.1385 150.41 93.0105C150.463 92.8825 150.553 92.7731 150.669 92.6962C150.784 92.6193 150.92 92.5782 151.058 92.5782C151.151 92.5782 151.243 92.5965 151.328 92.6321C151.414 92.6677 151.491 92.7199 151.557 92.7856C151.622 92.8513 151.674 92.9293 151.709 93.0151C151.743 93.1009 151.761 93.1927 151.761 93.2854Z" fill="#F0F0FC"/>
<path d="M151.761 99.2663C151.761 99.4052 151.719 99.541 151.642 99.6565C151.565 99.7719 151.455 99.8619 151.327 99.9151C151.199 99.9682 151.058 99.9821 150.921 99.955C150.785 99.9279 150.66 99.8611 150.562 99.7629C150.464 99.6647 150.397 99.5395 150.37 99.4033C150.343 99.2671 150.356 99.1259 150.41 98.9976C150.463 98.8693 150.553 98.7597 150.668 98.6825C150.784 98.6053 150.919 98.5642 151.058 98.5642C151.151 98.5642 151.242 98.5823 151.327 98.6176C151.412 98.6529 151.49 98.7046 151.555 98.7698C151.62 98.835 151.672 98.9124 151.707 98.9976C151.742 99.0828 151.761 99.1741 151.761 99.2663Z" fill="#F0F0FC"/>
<path d="M158.364 72.21C158.324 72.21 158.249 71.6522 158.055 70.7658C157.807 69.6131 157.421 68.4945 156.905 67.4342C156.616 66.8562 156.274 66.3061 155.884 65.7908C155.562 65.3733 155.202 64.9865 154.808 64.6354C154.131 64.0378 153.628 63.7689 153.653 63.7241C153.784 63.7588 153.908 63.8143 154.021 63.8884C154.163 63.9552 154.298 64.0353 154.425 64.1275C154.597 64.2399 154.763 64.3612 154.923 64.491C155.344 64.8336 155.727 65.2191 156.068 65.6414C156.478 66.1626 156.835 66.7231 157.134 67.3147C157.661 68.3952 158.03 69.5456 158.23 70.7309C158.295 71.0883 158.34 71.4491 158.364 71.8116C158.389 71.9433 158.389 72.0783 158.364 72.21Z" fill="white"/>
<path d="M150.301 62.8725C150.301 62.7978 150.645 62.7978 151.043 62.8725C151.442 62.9472 151.751 63.0518 151.741 63.1265C151.731 63.2012 151.397 63.1962 150.999 63.1265C150.6 63.0568 150.291 62.9422 150.301 62.8725Z" fill="white"/>
<path d="M117.777 34.9347L110.775 48.1516C108.71 52.0445 107.631 56.3842 107.633 60.7909V152.747L119.908 160.59H128.419L139.873 152.747V61.1942C139.863 56.9677 138.862 52.8024 136.95 49.0331L129.824 34.86C129.428 34.0733 128.821 33.4121 128.07 32.9504C127.32 32.4887 126.457 32.2447 125.576 32.2455H122.05C121.157 32.2475 120.283 32.5007 119.527 32.9763C118.772 33.4519 118.165 34.1306 117.777 34.9347Z" fill="#E9BF52"/>
<path d="M107.633 145.416H76.7567C76.7567 145.416 76.7567 131.806 89.6699 122.12C102.583 112.433 107.638 90.5264 107.638 90.5264L107.633 145.416Z" fill="#E9BF52"/>
<path d="M139.863 145.416H170.739C170.739 145.416 170.739 131.806 157.826 122.12C144.913 112.433 139.863 90.5264 139.863 90.5264V145.416Z" fill="#E9BF52"/>
<path opacity="0.2" d="M107.633 145.416H76.7567C76.7567 145.416 76.7567 131.806 89.6699 122.12C102.583 112.433 107.638 90.5264 107.638 90.5264L107.633 145.416Z" fill="black"/>
<path opacity="0.2" d="M139.863 145.416H170.739C170.739 145.416 170.739 131.806 157.826 122.12C144.913 112.433 139.863 90.5264 139.863 90.5264V145.416Z" fill="black"/>
<path d="M109.904 97.354C109.834 97.354 109.774 90.5663 109.774 82.1899C109.774 73.8136 109.834 67.0258 109.904 67.0258C109.973 67.0258 110.058 73.8136 110.058 82.17C110.058 90.5264 109.973 97.354 109.904 97.354Z" fill="#FAFAFA"/>
<path d="M110.242 58.0319C110.372 58.4795 110.416 58.9475 110.372 59.4114C110.416 59.8753 110.372 60.3433 110.242 60.7909C110.116 60.3427 110.072 59.8753 110.113 59.4114C110.072 58.9475 110.116 58.4801 110.242 58.0319Z" fill="#FAFAFA"/>
<path d="M120.207 34.5512C120.272 34.5811 118.16 38.8191 115.496 44.0132C112.832 49.2074 110.621 53.3956 110.556 53.3607C110.491 53.3258 112.603 49.0928 115.267 43.8987C117.931 38.7046 120.143 34.5164 120.207 34.5512Z" fill="#FAFAFA"/>
<path d="M104.291 104.884C104.298 104.923 104.298 104.964 104.291 105.003C104.291 105.098 104.256 105.212 104.231 105.357L104.122 105.925C104.076 106.186 104.013 106.444 103.933 106.697C103.494 108.328 102.848 109.896 102.01 111.363C100.759 113.53 99.2671 115.55 97.5632 117.384C95.6658 119.475 93.3999 121.592 91.0045 123.783C88.7493 125.831 86.701 128.097 84.8891 130.546C84.1066 131.619 83.3818 132.732 82.7178 133.882C82.1479 134.891 81.6309 135.928 81.169 136.99C80.5006 138.528 79.9722 140.123 79.5903 141.756C79.4409 142.328 79.3812 142.787 79.3065 143.09L79.2318 143.439C79.2281 143.481 79.2163 143.521 79.1969 143.558C79.1914 143.519 79.1914 143.479 79.1969 143.439L79.2467 143.085C79.3015 142.777 79.3463 142.313 79.4808 141.731C79.824 140.082 80.3243 138.469 80.9748 136.915C81.427 135.842 81.9374 134.795 82.5036 133.778C83.1642 132.616 83.8874 131.49 84.6699 130.406C86.4835 127.936 88.5388 125.652 90.8053 123.589C93.2007 121.402 95.4666 119.296 97.364 117.219C99.072 115.406 100.575 113.41 101.846 111.268C102.692 109.821 103.361 108.278 103.838 106.672C103.921 106.421 103.991 106.167 104.047 105.91C104.097 105.691 104.142 105.506 104.177 105.347C104.211 105.188 104.241 105.093 104.266 104.998C104.268 104.959 104.277 104.92 104.291 104.884Z" fill="#FAFAFA"/>
<path d="M126.407 63.7938H121.084C119.536 63.7938 118.051 63.1789 116.957 62.0843C115.862 60.9897 115.247 59.5052 115.247 57.9572C115.247 56.4093 115.862 54.9247 116.957 53.8302C118.051 52.7356 119.536 52.1207 121.084 52.1207H126.407C127.174 52.12 127.933 52.2705 128.642 52.5636C129.35 52.8567 129.994 53.2866 130.536 53.8287C131.078 54.3708 131.508 55.0145 131.801 55.7229C132.094 56.4313 132.245 57.1906 132.244 57.9572C132.244 59.5052 131.629 60.9897 130.534 62.0843C129.44 63.1789 127.955 63.7938 126.407 63.7938Z" fill="white"/>
<path opacity="0.4" d="M107.633 152.747L119.908 160.585H128.419L139.863 152.747V149.515H107.633V152.747Z" fill="black"/>
</svg>
