<svg width="249" height="272" viewBox="0 0 249 272" fill="none" xmlns="http://www.w3.org/2000/svg">
<path d="M85.7929 178.358C85.1486 178.133 82.8525 178.962 83.7941 179.639C84.4317 180.102 85.9449 179.507 86.7246 179.689C87.5043 179.871 88.4723 179.58 89.2355 179.891C89.8005 180.122 90.1077 180.644 90.7355 180.799C91.4986 180.991 91.9017 180.68 91.1914 180.089C90.6925 179.673 89.9987 179.56 89.4172 179.289C88.9778 179.088 88.5813 178.691 88.1419 178.572C87.5571 178.41 86.2521 178.946 85.7929 178.358Z" fill="#EBEBEB" fill-opacity="0.15"/>
<path d="M93.8148 181.797C93.2499 182.154 92.7113 182.332 92.523 183.059C92.3016 183.911 92.6552 183.753 93.23 183.422C93.5934 183.211 94.0956 182.854 94.5516 182.877C95.0075 182.9 95.361 183.227 95.7905 183.303C96.1687 183.388 96.561 183.387 96.9388 183.301C97.3166 183.215 97.6704 183.045 97.9744 182.805C98.4468 182.392 98.4832 181.856 97.7464 181.737C97.188 181.648 96.2927 181.922 95.7112 181.982C95.1297 182.041 94.1287 182.078 93.8148 181.797Z" fill="#EBEBEB" fill-opacity="0.15"/>
<path d="M120.559 236.112C119.264 237.001 118.478 238.217 116.948 238.848C115.296 239.528 113.73 240.47 112.026 241.161C110.321 241.851 108.461 242.918 106.693 243.348C105.216 243.708 103.555 243.017 102.068 243.047C100.522 243.12 98.9898 243.372 97.5019 243.797C96.4744 244.061 96.5107 243.873 95.7079 243.566C95.3221 243.38 94.903 243.275 94.4755 243.255C93.9695 243.245 93.4644 243.207 92.9624 243.143C92.9359 243.853 94.5053 245.294 95.1 245.746C90.4746 246.146 85.5518 245.561 80.9562 245.085C79.6016 244.947 78.7988 245.535 77.5069 245.7C76.3143 245.855 75.3033 245.211 74.1007 245.201C72.6536 245.201 72.0192 245.489 71.4014 246.391C80.2786 248.938 89.6449 249.272 98.6811 247.363C107.717 245.454 116.148 241.359 123.236 235.438C123.233 235.258 123.219 235.078 123.193 234.9C122.446 235.19 121.24 235.643 120.559 236.112Z" fill="#EBEBEB" fill-opacity="0.15"/>
<path d="M34.0448 176.507C34.6131 176.329 34.3917 174.941 34.4975 174.565C34.8907 173.392 35.4468 172.279 36.1494 171.261C37.0844 169.867 36.6681 169.348 36.46 167.647C36.4236 167.359 36.4038 167.045 36.3807 166.738C34.9881 169.512 33.8277 172.396 32.9116 175.361C33.2387 175.833 33.6517 176.633 34.0448 176.507Z" fill="#EBEBEB" fill-opacity="0.15"/>
<path d="M127 232C149.091 209.909 149.091 174.091 127 152C104.909 129.909 69.0914 129.909 47 152C24.9086 174.091 24.9086 209.909 47 232C69.0914 254.091 104.909 254.091 127 232Z" fill="#F5F5F5" fill-opacity="0.15"/>
<path d="M135.42 172.573C134.954 172.008 134.892 170.154 133.768 171.215C133.844 170.283 133.471 168.063 135.126 168.268C136.93 168.496 136.117 170.451 136.524 171.456C137.016 172.632 138.658 172.728 139.596 173.395C140.231 173.848 140.611 174.519 140.971 175.047C138.608 167.54 134.702 160.611 129.503 154.702C129.503 154.745 129.503 154.791 129.503 154.837C128.307 154.755 127.23 156.351 127.451 157.352C127.488 157.52 127.973 157.814 128.033 158.178C128.092 158.541 127.778 158.696 127.769 158.981C127.742 159.641 127.57 160.272 128.466 160.451C129.044 159.347 130.342 160.656 130.607 161.389C131.069 162.674 130.507 163.322 131.419 164.362C131.773 164.766 132.823 165.261 132.612 165.971C132.401 166.682 131.869 166.546 131.35 166.348C130.514 166.018 130.065 164.769 129.084 164.733C128.423 166.365 129.041 168.479 128.525 170.217C128.238 171.185 127.884 171.225 128.72 171.942C129.021 172.199 129.226 171.912 129.579 172.328C129.787 172.576 129.791 173.108 129.767 173.412C130.23 173.131 130.64 172.698 131.231 172.751C130.346 173.514 130.484 174.938 129.87 175.909C129.1 177.125 128.459 176.719 127.402 177.205C125.555 178.057 126.51 179.715 126.312 181.09C126.199 181.893 125.535 182.57 125.221 183.34C124.763 184.418 124.509 185.572 124.475 186.743C124.451 188.124 124.894 189.386 125.159 190.707C125.37 191.791 125.373 193.869 126.434 194.497C127.095 194.877 129.133 194.804 129.999 194.933C130.864 195.062 131.882 194.603 132.612 194.979C133.342 195.356 133.233 196.502 134.168 196.238C134.693 196.089 134.997 194.857 135.655 194.626C136.709 194.256 137.541 195.22 137.832 196.05C138.202 197.1 137.654 197.14 137.37 198.263C137.145 199.149 137.37 200.087 137.654 200.906C138.242 202.581 137.591 201.848 136.993 203.407C137.433 203.524 137.889 203.575 138.344 203.559C138.377 204.157 138.506 205.04 138.367 205.628C137.981 207.28 136.385 208.175 136.306 210.081C136.23 211.822 137.029 213.924 136.699 215.628C136.458 216.881 135.047 217.693 135.278 219.14C136.068 218.632 136.669 217.819 137.535 217.403C143.817 204.929 145.263 190.571 141.592 177.096C140.615 176.658 139.74 176.022 139.021 175.229C138.034 174.201 136.312 173.646 135.42 172.573Z" fill="#EBEBEB" fill-opacity="0.15"/>
<path d="M94.5053 137.046C95.1991 137.172 95.9822 137.162 96.6694 137.33C97.4458 137.519 97.9909 138.051 98.8433 137.714C99.2303 137.537 99.5599 137.255 99.7948 136.901C85.7943 133.644 71.0789 135.846 58.6453 143.059C60.8094 143.195 60.3237 145.623 62.1871 143.624C63.0163 142.732 63.9381 141.513 64.9953 140.733C66.1781 139.858 67.5327 140.449 68.96 140.403C68.4842 140.733 65.8246 142.656 66.1186 143.281C66.525 144.143 67.9985 143.099 67.4204 144.761C66.905 146.241 64.7971 145.233 63.4921 145.332C62.4811 145.412 61.9294 146.089 60.849 146.142C59.7026 146.198 58.5528 145.874 57.4361 145.907C55.652 145.96 54.5089 146.988 53.4219 148.24C52.7942 148.967 52.0475 149.508 51.5883 150.384C51.0861 151.342 51.2877 152.594 50.8185 153.453C50.4154 154.193 49.497 154.315 48.8362 154.755C47.96 155.383 47.1615 156.113 46.4574 156.929C45.3969 158.161 44.9211 160.507 43.1106 160.953C42.8529 162.859 45.7537 160.203 46.5995 160.583C47.0389 160.001 47.2107 159.232 47.8616 158.795C48.5124 158.359 49.4309 158.435 50.1743 157.96C51.5916 157.054 51.1357 155.069 52.9032 154.732C54.3305 154.461 55.9296 154.183 56.2798 155.753C56.4549 156.532 56.1509 156.46 56.1278 157.213C56.0948 158.204 56.0155 157.603 56.7687 158.204C57.9053 159.139 58.0903 160.266 57.2016 161.584C56.7754 162.208 56.5408 162.122 56.2798 162.932C56.0188 163.741 56.1113 164.61 56.141 165.459C56.1708 166.408 56.0782 167.329 56.0485 168.278C55.9989 169.857 56.3789 170.445 57.6278 171.439C58.576 172.196 59.5869 172.761 60.0759 173.934C60.4988 174.958 60.4063 176.184 60.7003 177.238C60.9911 178.338 63.73 180.637 63.4293 178.678C63.274 177.667 62.1243 177.439 62.1309 176.207C62.1309 175.708 62.3357 174.974 62.3886 174.449C63.9579 174.02 63.5449 176.696 63.9645 177.495C64.5625 178.629 66.1253 179.359 66.938 180.257C66.1814 180.611 64.9061 181.351 65.3257 182.398C65.8609 183.72 67.5492 182.798 68.4809 182.821C70.5161 182.867 72.538 184.229 74.1966 185.316C75.7758 186.35 76.4134 186.967 78.4024 186.819C79.6442 186.692 80.8957 186.938 81.997 187.526C82.8224 187.9 83.4885 188.554 83.8768 189.373C84.5079 190.572 84.792 190.998 85.8592 191.814C86.553 192.346 86.9164 192.924 87.6862 192.885C88.2148 192.862 88.5981 192.088 89.4042 192.339C90.9372 192.815 90.4912 194.765 89.989 195.643C89.5661 196.397 89.1696 197.368 88.7005 198.115C88.0992 199.066 86.5265 199.42 86.3448 200.675C86.173 201.868 87.5012 203.232 87.7952 204.359C88.0628 205.38 88.0331 206.506 88.0331 207.55C87.3723 208.515 91.3898 211.925 92.1398 212.579C93.2367 213.534 94.8357 214.802 95.2619 216.259C95.437 216.857 95.3346 217.796 95.3941 218.427C95.5203 219.761 95.5523 221.102 95.4899 222.441C95.4007 224.393 93.9965 225.586 93.6662 227.436C93.3985 228.92 93.9272 230.479 93.7025 231.946C93.6001 232.607 93.4712 233.545 93.306 234.193C93.1408 234.84 92.8237 234.834 92.5627 235.293C92.0935 236.112 92.3314 236.922 92.7279 237.807C93.9701 236.912 95.0009 238.603 95.5857 239.459C96.3158 240.529 97.1881 240.956 98.7012 240.781C98.1065 240.292 97.1055 238.693 97.3103 237.807C97.611 236.515 99.4743 235.471 100.102 234.391C100.779 233.225 100.588 232.134 101.989 231.616C102.382 231.47 102.844 231.543 103.237 231.381C103.726 231.18 103.987 230.72 104.463 230.492C105.765 229.875 106.062 230.04 106.604 228.589C107.265 226.835 107.826 224.625 109.495 223.501C110.156 223.062 110.873 223.092 111.586 222.784C112.369 222.454 112.614 221.912 113.238 221.463C114.177 220.824 115.027 220.063 115.766 219.2C116.638 218.161 117.396 217.032 118.025 215.83C118.445 215.073 118.627 214.37 119.261 213.762C119.529 213.504 119.938 213.402 120.252 213.101C121.399 211.958 121.828 210.127 122.823 208.875C123.381 208.168 123.933 207.768 124.24 206.952C124.121 206.678 123.97 206.419 123.791 206.179C123.549 205.74 122.958 205.334 122.664 204.881C122.562 204.722 122.525 204.22 122.423 204.124C121.6 203.246 119.608 202.783 118.498 202.737C116.981 202.677 114.708 202.443 113.717 201.085C112.98 200.064 114.243 198.614 113.757 197.527C113.156 196.169 109.997 195.515 108.785 194.778C107.949 194.269 107.384 193.496 106.554 192.977C105.342 192.221 104.615 191.907 104.1 190.572C103.789 189.772 104.265 189.637 103.297 189.333C102.395 189.052 100.984 189.838 99.9732 189.918C99.2232 189.977 98.3774 190.133 97.6605 189.918C96.7685 189.65 96.111 188.639 95.1826 188.467C94.3467 188.309 92.6981 188.702 91.9316 189.207C91.2709 189.63 90.9405 190.394 90.2268 190.724C89.196 191.203 89.2687 190.575 88.271 190.489C87.2732 190.403 86.7578 190.949 85.9946 189.829C84.9605 188.296 85.3801 185.164 82.9452 185.005C82.2216 184.959 80.8274 185.567 80.3814 184.638C79.7206 183.27 82.0862 181.457 81.7459 179.976C81.389 178.437 78.5147 180.462 77.8671 181.298C77.4542 181.843 77.1271 183.175 76.2582 183.28C75.5974 183.35 74.2593 182.487 73.8629 182.008C73.1724 181.172 73.1294 179.55 73.0303 178.496C72.842 176.514 73.2979 175.896 74.6822 174.416C75.9047 173.095 76.1557 172.995 77.7218 172.721C78.6832 172.553 78.6733 172.212 79.4893 172.639C79.8792 172.843 80.1204 173.451 80.5961 173.646C81.2569 172.986 81.7095 172.794 82.6016 172.969C83.2425 173.098 84.5839 173.841 84.9374 174.443C85.1521 174.809 85.4891 178.103 86.6752 176.094C85.9847 175.526 86.1697 174.856 85.8889 174.224C85.6081 173.593 84.9671 173.134 84.8482 172.345C84.7061 171.426 85.509 169.513 86.5563 169.312L86.4439 168.281C87.6036 168.119 88.9813 165.307 88.7566 163.923C88.6377 163.233 87.8877 163.285 88.2875 162.291C88.7566 161.128 89.5661 161.736 90.5506 161.521C91.5352 161.306 91.3931 160.659 92.0968 160.137C92.8633 159.562 93.2234 160.001 93.8743 160.031C95.0967 160.084 96.6991 160.362 96.7883 158.663C97.535 158.561 98.1858 158.333 98.9325 158.644C99.0316 157.322 98.7376 156.357 97.611 155.594C96.6198 154.933 95.2983 154.722 94.2608 154.064C93.6001 153.641 93.121 153.027 92.49 152.578C91.4724 151.851 90.772 151.048 89.8469 150.229C88.674 149.185 87.5342 150.503 85.9913 150.288C83.933 149.997 84.0652 148.448 82.7932 147.529C82.6478 147.424 82.2282 147.566 82.0399 147.473C81.7046 147.223 81.3987 146.936 81.128 146.617C80.3977 145.867 79.9335 144.898 79.8065 143.859C82.0762 142.537 82.6511 145.663 83.5993 146.793C84.0288 147.305 85.7171 147.625 84.3955 148.445C85.3107 148.507 86.1235 148.372 86.9792 148.577C87.3822 148.669 87.7258 148.907 88.1652 148.907C88.2545 148.203 88.0034 147.513 87.8646 146.836C87.7985 146.525 87.8877 146.205 87.7589 145.904C87.5705 145.464 87.0981 145.243 86.9296 144.883C86.4274 143.836 87.0551 143.836 85.912 143.205C85.1257 142.772 84.1775 142.461 83.3647 142.095C82.7862 141.893 82.2481 141.589 81.7756 141.199C81.5741 140.998 80.2955 139.653 80.1997 139.408C79.2944 137.165 82.8163 139.204 83.6225 139.408C84.9467 139.76 86.2476 140.193 87.5177 140.707C88.5551 141.103 88.5716 141.335 88.9714 142.359C89.6916 144.235 90.7026 143.35 91.849 144.596C92.5395 145.349 93.0781 146.71 93.6728 147.602C94.4227 148.732 97.3698 152.26 99.0151 150.576C99.8972 149.667 98.1924 148.078 98.1594 147.192C98.1231 146.251 98.7607 145.669 99.4115 145.157C100.505 144.295 100.76 143.938 99.4644 142.894C97.8753 141.609 96.1275 141.401 94.2311 140.799C92.1728 140.139 91.6244 138.956 90.5804 137.287C91.2676 137.162 91.9911 137.106 92.6948 137.043C93.2959 136.965 93.9046 136.966 94.5053 137.046ZM73.5325 151.55C73.2649 152.254 72.7726 152.036 72.3134 152.396C71.6063 152.948 72.8552 153.929 72.3497 154.289C72.1713 154.418 71.1967 154.365 70.9753 154.289C70.4104 154.101 70.2352 153.701 69.5745 153.708C68.7056 153.708 67.8333 153.546 68.025 152.452C68.1142 151.94 68.6329 151.431 68.3884 150.87C68.149 150.524 67.8449 150.228 67.493 149.997C67.2651 149.839 66.981 149.862 66.7827 149.736C66.3301 149.456 66.5019 148.345 67.0008 148.15C67.0173 149.683 69.2903 148.299 69.7628 149.003C70.2352 149.707 69.2936 149.994 69.8883 150.44C70.2352 150.711 71.1471 150.711 71.494 150.609C72.0292 150.453 72.9213 149.647 73.4499 150.232C73.6547 150.486 73.6415 151.266 73.5325 151.55ZM80.8175 148.854C81.3824 149.016 81.2833 149.287 81.5774 149.733C81.9078 150.239 82.4727 150.192 82.8725 150.559C83.6291 151.256 82.4331 152.175 82.8725 153.037C83.259 153.787 87.5805 154.91 84.759 155.829C83.933 156.096 83.4374 155.554 82.6941 155.343C81.8823 155.177 81.0388 155.269 80.2823 155.607C78.9045 156.407 81.9903 157.89 80.0873 158.465C79.7008 158.584 78.4354 158.508 78.3165 158.029C78.1975 157.606 78.7922 157.613 78.9145 157.206C79.4001 155.607 77.4376 156.595 76.8892 156.456C76.1161 156.258 76.3573 154.871 76.9718 154.557C77.3022 154.388 78.1447 154.477 78.5147 154.471C79.1193 154.471 79.7239 154.553 80.3285 154.5C80.6093 153.338 78.8649 152.749 77.9497 152.624C77.2295 152.528 77.1337 152.383 76.539 151.963C75.8221 151.441 75.5082 151.586 76.0104 150.642C76.4498 149.809 77.1667 149.366 77.8804 148.805C78.2107 148.639 78.4783 148.986 78.8054 149.023C79.4761 149.076 80.1567 148.676 80.8175 148.854Z" fill="#EBEBEB" fill-opacity="0.15"/>
<path d="M32.1815 192.564C32.4312 191.99 32.5192 191.358 32.4359 190.737C32.2839 190.096 31.9832 190.152 31.6892 189.64C30.8731 188.23 32.089 188.061 32.0856 186.875C32.0856 186.181 30.6452 184.529 31.6 183.822C32.0295 183.492 33.5823 184.278 34.3719 183.951C34.2332 182.811 33.1131 183.158 32.6572 182.385C31.9766 181.225 33.1065 180.984 33.4567 180.469C34.5933 178.817 32.9843 177.955 32.5746 176.587C31.1524 181.601 30.4308 186.787 30.4304 191.999C30.4304 192.201 30.4304 192.402 30.4469 192.607C30.8599 192.244 31.3984 192.141 32.1815 192.564Z" fill="#EBEBEB" fill-opacity="0.15"/>
<path d="M32.7795 185.808C31.9007 188.398 34.6726 188.781 34.7288 190.909C34.7486 191.699 34.3422 194.418 35.9941 194.213C36.6549 192.706 35.5911 192.498 35.7827 191.101C35.9115 190.156 36.5921 189.885 35.5349 189.118C35.2442 188.9 34.7255 188.894 34.4909 188.666C34.1605 188.352 34.2266 187.922 34.0283 187.608C33.6748 187.037 33.133 186.67 32.7795 185.808Z" fill="#EBEBEB" fill-opacity="0.15"/>
<path d="M32.7794 194.748C32.0789 196.291 30.7971 201.848 33.2882 201.95C33.5657 201.95 34.0745 201.455 34.3586 201.643C34.5833 201.792 34.3883 202.37 34.4908 202.429C35.135 202.793 35.3002 202.882 35.5579 201.769C35.7627 200.887 35.3134 200.85 35.1846 200.249C35.103 199.723 35.0974 199.188 35.1681 198.66C33.5525 198.263 36.82 197.92 36.6878 197.269C36.592 196.773 34.1769 196.915 33.83 197.024C33.7808 196.576 33.8053 196.123 33.9027 195.683C33.3642 195.442 33.199 194.874 32.7794 194.748Z" fill="#EBEBEB" fill-opacity="0.15"/>
<path d="M40.9168 199.793C39.5094 199.876 38.7726 198.594 37.1207 199.096C37.1207 199.426 37.0315 199.81 37.0315 200.123C37.4048 200.011 39.136 199.605 38.8585 200.602C38.6273 201.435 37.1207 200.381 37.3817 201.61C37.8112 201.561 38.4885 201.24 38.9114 201.28C39.5259 201.359 39.7671 201.689 40.3453 201.818C41.1118 201.983 41.006 201.604 41.8254 202.182C42.4597 202.631 43.1172 203.322 43.3253 204.019C43.7714 205.499 43.1106 206.084 45.0103 206.315C46.0014 206.437 48.0994 207.517 48.0366 205.889C48.9815 206.219 50.4286 209.021 51.694 208.737C53.2798 208.383 50.2106 205.915 50.2205 205.641C50.8449 205.585 52.2325 204.98 52.7116 204.703C53.1906 204.425 53.7027 204.465 53.5111 203.464C52.7611 203.374 52.4307 203.738 51.8592 203.886C51.1701 204.034 50.4619 204.071 49.7612 203.995C48.0331 203.867 46.391 203.191 45.0731 202.066C44.3165 201.445 43.6689 200.93 42.8793 200.345C42.3639 199.965 42.3804 199.724 41.789 199.552C41.6352 199.513 41.474 199.515 41.3212 199.558C41.1683 199.6 41.029 199.681 40.9168 199.793Z" fill="#EBEBEB" fill-opacity="0.15"/>
<path d="M33.0075 203.46C34.0185 203.46 35.0988 203.583 36.1032 203.46C36.4336 203.417 36.8466 202.862 37.2331 203.252C37.3719 203.394 37.2629 204.286 37.1373 204.425C36.5261 205.106 33.1562 204.888 33.3511 203.573" fill="#EBEBEB" fill-opacity="0.15"/>
<path d="M48.4794 211.383C48.3836 209.602 47.6964 209.847 46.8737 208.707C46.5896 209.444 46.2724 210.92 45.278 211.019C43.8078 211.178 43.5732 208.981 42.6944 208.376C41.4356 207.517 38.5745 208.353 38.2804 209.523C37.1109 209.982 37.0349 210.534 36.5624 211.505C36.2204 212.206 35.8272 212.881 35.3862 213.524C35.2447 213.726 35.0914 213.921 34.927 214.105C36.0117 216.65 37.2816 219.111 38.7264 221.47C38.8591 221.513 38.9968 221.538 39.1361 221.546C40.3817 221.645 41.0457 220.27 42.0402 220.399C42.7637 220.492 43.2924 221.721 43.8871 222.203C45.539 223.564 48.301 224.575 48.9419 226.587C49.3318 227.806 49.8142 228.335 50.5773 229.382C51.1126 230.112 51.0035 231.408 51.7899 231.854C51.8134 230.704 51.963 229.561 52.2359 228.444C52.6224 227.046 52.2128 225.89 52.8603 224.648C53.5079 223.406 54.542 222.381 54.4263 220.832C54.347 219.778 53.564 218.447 52.8141 217.69C50.6699 215.549 48.6611 214.753 48.4794 211.383Z" fill="#EBEBEB" fill-opacity="0.15"/>
<path d="M62.8114 223.406C61.8929 223.581 62.2101 225.368 61.9491 226.098C61.5824 227.126 61.2157 227.02 60.1386 227.301C59.4496 227.438 58.7724 227.629 58.1133 227.872C57.1222 228.335 57.0363 229.161 56.7455 230.152C57.9812 230.254 58.6915 228.811 59.8016 228.579C60.7564 228.385 61.5394 228.814 62.5306 228.381C65.0184 227.298 64.4006 224.846 64.7409 222.851C64.0041 222.718 63.4986 223.161 62.8114 223.406Z" fill="#EBEBEB" fill-opacity="0.15"/>
<path d="M63.8589 212.975C63.5285 213.712 63.8589 215.473 64.9459 214.406C65.448 213.91 65.4084 212.695 64.4503 212.754C64.4503 212.906 64.3776 212.949 64.3181 213.084" fill="#EBEBEB" fill-opacity="0.15"/>
<path d="M71.9796 214.809C71.0843 215.513 73.0137 216.705 73.3309 215.585C73.5655 214.776 72.2736 214.508 71.9796 214.809Z" fill="#EBEBEB" fill-opacity="0.15"/>
<path d="M57.5385 195.323C57.7995 195.984 59.4911 196.512 59.8049 197.609C60.0924 198.62 59.8049 199.502 61.3049 199.545C61.2685 198.822 61.665 197.873 61.328 197.233C61.176 196.945 60.6672 196.902 60.4855 196.572C60.3038 196.241 60.436 195.848 60.2873 195.538C59.9701 194.89 57.1949 193.364 57.5385 195.323Z" fill="#EBEBEB" fill-opacity="0.15"/>
<path d="M108.121 54L108.4 54.498C108.715 55.0616 109.183 55.5244 109.75 55.8326L110.248 56.1065L109.75 56.3804C109.181 56.6891 108.713 57.154 108.4 57.7201L108.121 58.2181L107.848 57.7201C107.535 57.154 107.066 56.6891 106.498 56.3804L106 56.1065L106.498 55.8326C107.065 55.5244 107.533 55.0616 107.848 54.498L108.121 54Z" fill="#EBEBEB"/>
<path d="M221.121 199L221.4 199.498C221.715 200.062 222.183 200.524 222.75 200.833L223.248 201.107L222.75 201.38C222.181 201.689 221.713 202.154 221.4 202.72L221.121 203.218L220.848 202.72C220.535 202.154 220.066 201.689 219.498 201.38L219 201.107L219.498 200.833C220.065 200.524 220.533 200.062 220.848 199.498L221.121 199Z" fill="#EBEBEB"/>
<path d="M61.7323 31.5338L62.0112 32.0318C62.321 32.5973 62.7881 33.0609 63.3558 33.3665L63.8538 33.6454L63.3558 33.9193C62.7891 34.2263 62.3224 34.6895 62.0112 35.2539L61.7323 35.7519L61.4534 35.2539C61.1422 34.6895 60.6756 34.2263 60.1088 33.9193L59.6108 33.6454L60.1088 33.3665C60.6766 33.0609 61.1436 32.5973 61.4534 32.0318L61.7323 31.5338Z" fill="#EBEBEB"/>
<path d="M226.306 86.274L226.585 86.772C226.897 87.3378 227.366 87.8013 227.935 88.1066L228.433 88.3805L227.935 88.6544C227.366 88.9598 226.897 89.4233 226.585 89.9891L226.306 90.4871L226.027 89.9891C225.716 89.4247 225.25 88.9614 224.683 88.6544L224.185 88.3805L224.683 88.1066C225.25 87.7996 225.716 87.3364 226.027 86.772L226.306 86.274Z" fill="#EBEBEB"/>
<path d="M21.5935 120.945L21.8674 121.443C22.1812 122.008 22.6493 122.473 23.217 122.782L23.715 123.056L23.217 123.33C22.6499 123.638 22.182 124.101 21.8674 124.665L21.5935 125.163L21.3146 124.665C21.007 124.101 20.5437 123.638 19.98 123.33L19.482 123.056L19.98 122.782C20.5492 122.477 21.0179 122.014 21.3296 121.448L21.5935 120.945Z" fill="#EBEBEB"/>
<path d="M116.645 21L117.143 21.8715C117.676 22.8432 118.476 23.6417 119.449 24.1723L120.316 24.6703L119.449 25.1434C118.476 25.6757 117.676 26.4759 117.143 27.4491L116.645 28.3156L116.172 27.4491C115.641 26.4741 114.84 25.6721 113.866 25.1384L113 24.6404L113.866 24.1424C114.839 23.6118 115.64 22.8133 116.172 21.8416L116.645 21Z" fill="#EBEBEB"/>
<path d="M218.645 151L219.143 151.871C219.676 152.843 220.476 153.642 221.449 154.172L222.316 154.67L221.449 155.143C220.476 155.676 219.676 156.476 219.143 157.449L218.645 158.316L218.172 157.449C217.641 156.474 216.84 155.672 215.866 155.138L215 154.64L215.866 154.142C216.839 153.612 217.64 152.813 218.172 151.842L218.645 151Z" fill="#EBEBEB"/>
<path d="M61.6453 107L62.1433 107.871C62.6759 108.843 63.4762 109.642 64.449 110.172L65.3156 110.67L64.449 111.143C63.4758 111.676 62.6756 112.476 62.1433 113.449L61.6453 114.316L61.1722 113.449C60.6406 112.474 59.8403 111.672 58.8665 111.138L57.9999 110.64L58.8665 110.142C59.8393 109.612 60.6395 108.813 61.1722 107.842L61.6453 107Z" fill="#EBEBEB"/>
<path d="M213.204 43.7896L213.343 44.0386C213.496 44.3212 213.728 44.5531 214.011 44.7059L214.26 44.8454L214.011 44.9848C213.728 45.1377 213.496 45.3696 213.343 45.6521L213.204 45.9011L213.07 45.6521C212.915 45.3708 212.684 45.1393 212.402 44.9848L212.148 44.8454L212.402 44.7059C212.684 44.5515 212.915 44.32 213.07 44.0386L213.204 43.7896Z" fill="#EBEBEB"/>
<path d="M25.5725 83.7093L25.712 83.9633C25.8649 84.2458 26.0968 84.4777 26.3793 84.6306L26.6283 84.77L26.3793 84.9045C26.0979 85.059 25.8665 85.2905 25.712 85.5718L25.5725 85.8258L25.4381 85.5718C25.2823 85.2914 25.0511 85.0603 24.7708 84.9045L24.5168 84.77L24.7708 84.6306C25.0595 84.4792 25.2982 84.2474 25.458 83.9633L25.5725 83.7093Z" fill="#EBEBEB"/>
<path d="M196.056 172L196.195 172.254C196.348 172.537 196.58 172.768 196.862 172.921L197.111 173.061L196.862 173.195C196.581 173.35 196.35 173.581 196.195 173.863L196.056 174.117L195.921 173.863C195.765 173.582 195.534 173.351 195.254 173.195L195 173.061L195.254 172.921C195.543 172.77 195.781 172.538 195.941 172.254L196.056 172Z" fill="#EBEBEB"/>
<path d="M184.788 99.3361L185.072 99.8341C185.388 100.415 185.866 100.892 186.446 101.209L186.944 101.492L186.446 101.776C185.864 102.091 185.387 102.569 185.072 103.151L184.788 103.649L184.504 103.151C184.19 102.568 183.712 102.09 183.13 101.776L182.632 101.492L183.13 101.209C183.711 100.893 184.189 100.416 184.504 99.8341L184.788 99.3361Z" fill="#50555C"/>
<path d="M41.7025 26.6729L41.8867 27.0016C42.0864 27.376 42.391 27.6841 42.7632 27.888L43.0919 28.0673L42.7632 28.2466C42.3924 28.4478 42.088 28.7523 41.8867 29.123L41.7025 29.4517L41.5232 29.123C41.3219 28.7523 41.0175 28.4478 40.6467 28.2466L40.338 28.0573L40.6666 27.878C41.0374 27.6768 41.3419 27.3723 41.5431 27.0016L41.7025 26.6729Z" fill="#50555C"/>
<path d="M73.6342 106.692L73.7239 106.856C73.8261 107.04 73.9779 107.192 74.1621 107.294L74.3265 107.384L74.1621 107.473C73.9779 107.576 73.8261 107.727 73.7239 107.912L73.6342 108.076L73.5446 107.912C73.444 107.726 73.2917 107.574 73.1064 107.473L72.942 107.384L73.1064 107.294C73.2917 107.193 73.444 107.041 73.5446 106.856L73.6342 106.692Z" fill="#50555C"/>
<path d="M219.439 89.894L219.528 90.0583C219.629 90.2437 219.781 90.3959 219.967 90.4966L220.131 90.5862L219.967 90.6758C219.781 90.7765 219.629 90.9287 219.528 91.1141L219.439 91.2784L219.349 91.1141C219.248 90.9287 219.096 90.7765 218.911 90.6758L218.746 90.5862L218.911 90.4966C219.096 90.3959 219.248 90.2437 219.349 90.0583L219.439 89.894Z" fill="#50555C"/>
<path d="M29.7156 89.142L29.8999 89.4707C30.1012 89.8415 30.4056 90.1459 30.7764 90.3472L31.1051 90.5264L30.7764 90.7057C30.3961 90.9079 30.0842 91.218 29.88 91.5971L29.6957 91.9258L29.5164 91.5971C29.3152 91.2264 29.0107 90.9219 28.64 90.7207L28.3113 90.5414L28.64 90.3621C29.0107 90.1608 29.3152 89.8564 29.5164 89.4856L29.7156 89.142Z" fill="#50555C"/>
<path d="M166.496 162.348L166.681 162.677C166.881 163.046 167.184 163.35 167.552 163.553L167.886 163.732L167.552 163.912C167.184 164.115 166.881 164.419 166.681 164.788L166.496 165.117L166.317 164.788C166.114 164.419 165.81 164.115 165.441 163.912L165.112 163.732L165.441 163.553C165.81 163.35 166.114 163.046 166.317 162.677L166.496 162.348Z" fill="#50555C"/>
<path d="M177.059 23.3213L177.557 24.2128C178.104 25.2147 178.927 26.0391 179.927 26.5882L180.819 27.0862L179.927 27.5842C178.927 28.132 178.105 28.9546 177.557 29.9547L177.059 30.8461L176.561 29.9547C176.012 28.9539 175.187 28.1313 174.185 27.5842L173.294 27.0862L174.185 26.5882C175.188 26.0398 176.013 25.2154 176.561 24.2128L177.059 23.3213Z" fill="#50555C"/>
<path d="M126.202 110.772L110.347 98.6061L151.604 44.8383C153.212 42.7427 155.587 41.3716 158.206 41.0268C160.825 40.682 163.474 41.3917 165.569 42.9998C167.665 44.6079 169.036 46.9826 169.381 49.6016C169.726 52.2205 169.016 54.8692 167.408 56.9649L126.202 110.772Z" fill="#E9BF52"/>
<path d="M126.202 110.772L110.347 98.6061L151.604 44.8383C153.212 42.7427 155.587 41.3716 158.206 41.0268C160.825 40.682 163.474 41.3917 165.569 42.9998C167.665 44.6079 169.036 46.9826 169.381 49.6016C169.726 52.2205 169.016 54.8692 167.408 56.9649L126.202 110.772Z" fill="#50555C"/>
<path d="M168.12 56.143C168.078 56.1983 164.505 53.5324 160.14 50.1825C155.774 46.8325 152.274 44.0718 152.317 44.0165C152.359 43.9611 155.951 46.6422 160.297 49.977C164.643 53.3118 168.166 56.0837 168.12 56.143Z" fill="#F0F0FC"/>
<path d="M157.588 69.8684C157.543 69.9277 153.973 67.2578 149.608 63.9079C145.242 60.5579 141.739 57.8011 141.785 57.7419C141.83 57.6826 145.419 60.3676 149.765 63.7024C154.111 67.0372 157.631 69.8131 157.588 69.8684Z" fill="#F0F0FC"/>
<path d="M153.191 66.4942C153.136 66.4518 155.447 63.3416 158.354 59.5527C161.262 55.7638 163.668 52.7263 163.723 52.7688C163.778 52.8112 161.47 55.9175 158.56 59.7103C155.649 63.5032 153.254 66.5427 153.191 66.4942Z" fill="#F0F0FC"/>
<path d="M158.805 55.3413C158.72 55.4515 158.605 55.5341 158.474 55.5788C158.342 55.6234 158.2 55.628 158.066 55.5921C157.932 55.5562 157.812 55.4812 157.72 55.3768C157.628 55.2724 157.57 55.1432 157.552 55.0055C157.534 54.8678 157.557 54.7278 157.618 54.6033C157.68 54.4787 157.777 54.3752 157.897 54.3057C158.017 54.2363 158.155 54.2041 158.294 54.2132C158.432 54.2223 158.565 54.2722 158.675 54.3568C158.823 54.4701 158.92 54.6376 158.944 54.8222C158.968 55.0068 158.918 55.1936 158.805 55.3413Z" fill="#F0F0FC"/>
<path d="M155.164 60.0863C155.079 60.1965 154.964 60.2792 154.833 60.3238C154.701 60.3684 154.559 60.3731 154.425 60.3371C154.291 60.3012 154.171 60.2263 154.079 60.1219C153.987 60.0174 153.929 59.8882 153.911 59.7505C153.893 59.6128 153.916 59.4729 153.977 59.3483C154.039 59.2238 154.136 59.1202 154.256 59.0508C154.376 58.9813 154.514 58.9491 154.653 58.9582C154.791 58.9673 154.924 59.0173 155.034 59.1018C155.182 59.2152 155.279 59.3826 155.303 59.5672C155.327 59.7519 155.277 59.9386 155.164 60.0863Z" fill="#F0F0FC"/>
<path d="M136.155 97.8013C136.112 97.8566 132.54 95.1907 128.174 91.8407C123.808 88.4908 120.309 85.7301 120.351 85.6747C120.394 85.6194 123.986 88.3005 128.332 91.6353C132.678 94.9701 136.206 97.7341 136.155 97.8013Z" fill="#F0F0FC"/>
<path d="M131.757 94.4271C131.702 94.3846 134.013 91.2745 136.921 87.4855C139.828 83.6966 142.234 80.6592 142.289 80.7016C142.345 80.7441 140.036 83.8503 137.126 87.6432C134.216 91.436 131.821 94.4756 131.757 94.4271Z" fill="#F0F0FC"/>
<path d="M136.399 83.388C136.707 83.6241 137.147 83.566 137.383 83.2584C137.62 82.9507 137.562 82.5099 137.254 82.2738C136.946 82.0377 136.505 82.0958 136.269 82.4034C136.033 82.7111 136.091 83.1519 136.399 83.388Z" fill="#F0F0FC"/>
<path d="M132.755 88.137C133.063 88.373 133.503 88.315 133.739 88.0073C133.976 87.6997 133.917 87.2589 133.61 87.0228C133.302 86.7867 132.861 86.8448 132.625 87.1524C132.389 87.4601 132.447 87.9009 132.755 88.137Z" fill="#F0F0FC"/>
<path d="M130.974 71.8557C131.016 71.8004 134.608 74.4814 138.954 77.8162C143.3 81.151 146.82 83.9269 146.777 83.9822C146.735 84.0375 143.162 81.3716 138.797 78.0217C134.431 74.6717 130.946 71.8912 130.974 71.8557Z" fill="#F0F0FC"/>
<path d="M135.363 75.2238C135.308 75.1814 137.619 72.0712 140.526 68.2823C143.434 64.4934 145.84 61.456 145.895 61.4984C145.95 61.5408 143.642 64.6471 140.732 68.4399C137.821 72.2328 135.422 75.2693 135.363 75.2238Z" fill="#F0F0FC"/>
<path d="M144.714 66.907C144.63 67.0176 144.581 67.1505 144.573 67.2889C144.565 67.4273 144.598 67.5651 144.668 67.6848C144.738 67.8045 144.842 67.9008 144.966 67.9616C145.091 68.0224 145.231 68.0449 145.368 68.0263C145.506 68.0077 145.634 67.9489 145.738 67.8572C145.842 67.7655 145.917 67.645 145.953 67.511C145.988 67.377 145.983 67.2354 145.939 67.1042C145.894 66.9729 145.812 66.8578 145.702 66.7734C145.628 66.717 145.544 66.6757 145.455 66.6519C145.365 66.6281 145.272 66.6222 145.18 66.6346C145.088 66.647 145 66.6775 144.92 66.7242C144.84 66.771 144.77 66.8331 144.714 66.907Z" fill="#F0F0FC"/>
<path d="M141.073 71.652C140.988 71.7622 140.939 71.895 140.929 72.0335C140.92 72.1721 140.953 72.3103 141.022 72.4306C141.091 72.5508 141.195 72.6478 141.32 72.7092C141.444 72.7707 141.584 72.7938 141.722 72.7756C141.859 72.7575 141.989 72.699 142.093 72.6074C142.197 72.5158 142.272 72.3953 142.308 72.2612C142.344 72.1271 142.34 71.9853 142.295 71.8538C142.25 71.7222 142.168 71.6069 142.058 71.5224C141.91 71.409 141.723 71.359 141.538 71.3833C141.354 71.4076 141.186 71.5043 141.073 71.652Z" fill="#F0F0FC"/>
<path d="M152.277 46.1456C152.342 46.029 152.424 45.9225 152.52 45.8295C152.758 45.5556 153.012 45.2956 153.28 45.051C154.161 44.2318 155.156 43.5446 156.233 43.0107C156.831 42.7235 157.455 42.4961 158.097 42.3319C158.625 42.2044 159.164 42.1322 159.706 42.1166C159.912 42.1107 160.118 42.1156 160.323 42.1313C160.479 42.1353 160.635 42.154 160.788 42.1872C160.922 42.1981 161.053 42.2288 161.177 42.2781C161.169 42.3289 160.61 42.239 159.709 42.3009C159.182 42.3387 158.66 42.4253 158.149 42.5596C157.527 42.735 156.921 42.9633 156.338 43.2419C155.285 43.77 154.299 44.4234 153.401 45.1878C152.711 45.7689 152.313 46.1729 152.277 46.1456Z" fill="#FAFAFA"/>
<path d="M164.374 43.658C164.331 43.7133 164.028 43.6183 163.669 43.4311C163.311 43.2439 163.053 43.0399 163.084 42.9824C163.116 42.925 163.434 43.0181 163.792 43.2054C164.151 43.3926 164.412 43.5927 164.374 43.658Z" fill="#FAFAFA"/>
<path d="M151.669 130.314L167.509 142.468L208.766 88.7C209.564 87.6607 210.148 86.4742 210.486 85.2086C210.825 83.9429 210.91 82.623 210.737 81.3243C210.565 80.0257 210.138 78.7739 209.481 77.6405C208.823 76.5072 207.949 75.5147 206.908 74.7198C204.812 73.1117 202.163 72.402 199.544 72.7468C196.925 73.0916 194.551 74.4626 192.943 76.5583L151.669 130.314Z" fill="#E9BF52"/>
<path d="M151.669 130.314L167.509 142.468L208.766 88.7C209.564 87.6607 210.148 86.4742 210.486 85.2086C210.825 83.9429 210.91 82.623 210.737 81.3243C210.565 80.0257 210.138 78.7739 209.481 77.6405C208.823 76.5072 207.949 75.5147 206.908 74.7198C204.812 73.1117 202.163 72.402 199.544 72.7468C196.925 73.0916 194.551 74.4626 192.943 76.5583L151.669 130.314Z" fill="#50555C"/>
<path d="M193.588 75.6849C193.633 75.6256 197.222 78.3106 201.568 81.6454C205.914 84.9802 209.437 87.7522 209.391 87.8114C209.346 87.8707 205.777 85.2008 201.411 81.8509C197.045 78.5009 193.545 75.7402 193.588 75.6849Z" fill="#F0F0FC"/>
<path d="M183.056 89.4103C183.098 89.355 186.691 92.0361 191.037 95.3709C195.382 98.7057 198.902 101.482 198.859 101.537C198.817 101.592 195.245 98.9263 190.879 95.5763C186.513 92.2264 183.01 89.4696 183.056 89.4103Z" fill="#F0F0FC"/>
<path d="M187.445 92.7785C187.39 92.736 189.701 89.6259 192.609 85.8369C195.516 82.048 197.922 79.0106 197.977 79.0531C198.033 79.0955 195.724 82.2017 192.814 85.9946C189.904 89.7874 187.505 92.824 187.445 92.7785Z" fill="#F0F0FC"/>
<path d="M196.769 84.4722C196.685 84.5824 196.635 84.7152 196.626 84.8538C196.616 84.9924 196.649 85.1305 196.718 85.2508C196.788 85.3711 196.891 85.468 197.016 85.5295C197.14 85.5909 197.28 85.614 197.418 85.5959C197.556 85.5778 197.685 85.5192 197.789 85.4276C197.894 85.3361 197.969 85.2156 198.004 85.0815C198.04 84.9473 198.036 84.8055 197.991 84.674C197.946 84.5425 197.864 84.4272 197.754 84.3426C197.606 84.2293 197.419 84.1792 197.235 84.2035C197.05 84.2278 196.883 84.3245 196.769 84.4722Z" fill="#F0F0FC"/>
<path d="M193.128 89.2173C193.044 89.3274 192.994 89.4602 192.985 89.5988C192.975 89.7374 193.008 89.8756 193.077 89.9958C193.147 90.1161 193.25 90.2131 193.375 90.2745C193.499 90.3359 193.639 90.359 193.777 90.3409C193.915 90.3228 194.044 90.2642 194.148 90.1727C194.253 90.0811 194.328 89.9606 194.363 89.8265C194.399 89.6923 194.395 89.5505 194.35 89.419C194.306 89.2875 194.223 89.1722 194.113 89.0877C193.965 88.9743 193.778 88.9243 193.594 88.9486C193.409 88.9729 193.242 89.0695 193.128 89.2173Z" fill="#F0F0FC"/>
<path d="M161.622 117.343C161.665 117.288 165.257 119.969 169.603 123.304C173.949 126.639 177.468 129.414 177.426 129.47C177.383 129.525 173.811 126.859 169.445 123.509C165.079 120.159 161.589 117.387 161.622 117.343Z" fill="#F0F0FC"/>
<path d="M166.012 120.711C165.956 120.669 168.268 117.559 171.175 113.77C174.082 109.981 176.488 106.943 176.544 106.986C176.599 107.028 174.316 110.135 171.405 113.928C168.495 117.721 166.071 120.757 166.012 120.711Z" fill="#F0F0FC"/>
<path d="M175.477 113.374C175.785 113.61 176.226 113.552 176.462 113.244C176.698 112.937 176.64 112.496 176.332 112.26C176.025 112.024 175.584 112.082 175.348 112.389C175.112 112.697 175.17 113.138 175.477 113.374Z" fill="#F0F0FC"/>
<path d="M171.833 118.123C172.141 118.359 172.582 118.301 172.818 117.993C173.054 117.686 172.996 117.245 172.688 117.009C172.38 116.773 171.94 116.831 171.704 117.138C171.468 117.446 171.526 117.887 171.833 118.123Z" fill="#F0F0FC"/>
<path d="M188.025 115.632C187.982 115.688 184.41 113.022 180.044 109.672C175.678 106.322 172.179 103.561 172.221 103.506C172.263 103.451 175.856 106.132 180.202 109.466C184.548 112.801 188.082 115.557 188.025 115.632Z" fill="#F0F0FC"/>
<path d="M183.631 112.261C183.576 112.219 185.887 109.109 188.795 105.32C191.702 101.531 194.108 98.4934 194.163 98.5359C194.219 98.5783 191.91 101.685 189 105.477C186.09 109.27 183.691 112.307 183.631 112.261Z" fill="#F0F0FC"/>
<path d="M189.256 101.086C189.171 101.195 189.056 101.277 188.924 101.32C188.792 101.364 188.651 101.368 188.517 101.331C188.383 101.295 188.263 101.219 188.172 101.115C188.081 101.01 188.024 100.881 188.006 100.743C187.988 100.606 188.012 100.466 188.073 100.342C188.135 100.218 188.232 100.115 188.352 100.045C188.473 99.9763 188.611 99.9444 188.749 99.9535C188.887 99.9627 189.02 100.013 189.13 100.097C189.203 100.153 189.265 100.224 189.311 100.304C189.357 100.384 189.387 100.473 189.399 100.565C189.411 100.657 189.404 100.75 189.38 100.84C189.355 100.929 189.313 101.012 189.256 101.086Z" fill="#F0F0FC"/>
<path d="M114.884 145.44C116.405 144.733 117.934 143.757 119.103 142.537C126.311 135.04 135.654 124.26 140.162 118.286L140.703 118.701L140.712 118.708L141.253 119.123C136.652 125.019 128.663 136.827 123.292 145.724C122.313 147.338 121.746 149.308 121.49 151.129C120.923 155.168 121.366 155.37 120.523 157.834C120.325 158.413 120.123 159.002 119.936 159.6C116.827 165.724 114.209 165.67 111.086 166.692C108.916 167.401 106.363 168.559 103.631 170.871C103.704 170.85 96.6343 178.007 97.2792 173.836C97.6807 171.757 99.8889 168.003 99.888 168.053C101.416 164.814 101.874 162.047 101.999 159.767C102.179 156.484 101.45 153.968 106.564 149.376C107.092 149.041 107.609 148.693 108.117 148.352C110.281 146.898 110.591 147.274 114.347 145.679C114.525 145.603 114.705 145.523 114.884 145.44Z" fill="#EBEBEB"/>
<path d="M185.615 105.831C185.531 105.941 185.416 106.023 185.284 106.068C185.153 106.113 185.011 106.117 184.877 106.081C184.743 106.045 184.622 105.971 184.53 105.866C184.439 105.762 184.38 105.633 184.362 105.495C184.344 105.357 184.367 105.217 184.429 105.093C184.49 104.968 184.587 104.865 184.707 104.795C184.828 104.726 184.966 104.693 185.104 104.702C185.243 104.712 185.376 104.762 185.486 104.846C185.559 104.902 185.62 104.972 185.667 105.052C185.713 105.132 185.743 105.22 185.755 105.312C185.767 105.403 185.761 105.496 185.737 105.585C185.713 105.674 185.672 105.757 185.615 105.831Z" fill="#F0F0FC"/>
<path d="M207.325 88.3853C207.294 88.3611 207.574 87.8731 207.959 87.0516C208.464 85.9859 208.839 84.8634 209.075 83.7082C209.197 83.0736 209.261 82.4291 209.265 81.7829C209.264 81.2555 209.214 80.7295 209.115 80.2114C208.942 79.325 208.707 78.8055 208.754 78.7851C208.836 78.8923 208.901 79.012 208.946 79.1398C209.018 79.2791 209.076 79.4248 209.12 79.575C209.189 79.769 209.247 79.9665 209.294 80.1666C209.419 80.6945 209.489 81.2341 209.503 81.7765C209.51 82.4394 209.452 83.1013 209.329 83.7528C209.089 84.9306 208.682 86.068 208.119 87.1301C207.953 87.4533 207.769 87.7668 207.568 88.0693C207.507 88.1887 207.425 88.2958 207.325 88.3853Z" fill="white"/>
<path d="M206.613 76.0692C206.658 76.0099 206.931 76.2191 207.202 76.5209C207.472 76.8227 207.654 77.0936 207.6 77.1468C207.547 77.2 207.285 76.9929 207.011 76.6951C206.738 76.3973 206.563 76.1184 206.613 76.0692Z" fill="white"/>
<path d="M197.817 34.105L184.216 40.3283C180.208 42.1596 176.71 44.9457 174.029 48.4427L118.05 121.396L123.014 135.092L129.766 140.273L143.628 141.023L199.361 68.3895C201.927 65.0303 203.668 61.1162 204.446 56.9618L207.42 41.3793C207.585 40.514 207.505 39.6199 207.191 38.797C206.877 37.9741 206.341 37.2546 205.641 36.7191L202.844 34.5727C202.135 34.0307 201.287 33.6995 200.398 33.6168C199.509 33.5341 198.614 33.7033 197.817 34.105Z" fill="#E9BF52"/>
<path d="M122.512 115.58L98.0168 96.7842C98.0168 96.7842 106.302 85.9864 122.443 86.1629C138.585 86.3394 155.931 72.0365 155.931 72.0365L122.512 115.58Z" fill="#E9BF52"/>
<path d="M148.083 135.201L172.578 153.997C172.578 153.997 180.864 143.199 176.515 127.654C172.167 112.108 181.497 91.6542 181.497 91.6542L148.083 135.201Z" fill="#E9BF52"/>
<path opacity="0.2" d="M122.512 115.58L98.0168 96.7842C98.0168 96.7842 106.302 85.9864 122.443 86.1629C138.585 86.3394 155.931 72.0365 155.931 72.0365L122.512 115.58Z" fill="black"/>
<path opacity="0.2" d="M148.083 135.201L172.578 153.997C172.578 153.997 180.864 143.199 176.515 127.654C172.167 112.108 181.497 91.6542 181.497 91.6542L148.083 135.201Z" fill="#BA9942"/>
<path d="M153.572 78.8326C153.517 78.7902 157.602 73.3687 162.701 66.7233C167.8 60.0779 171.98 54.7292 172.035 54.7716C172.09 54.8141 168.025 60.2507 162.938 66.8803C157.851 73.5099 153.628 78.8751 153.572 78.8326Z" fill="#FAFAFA"/>
<path d="M177.779 47.8424C177.609 48.2764 177.359 48.6744 177.042 49.0157C176.794 49.4104 176.474 49.755 176.099 50.0312C176.272 49.5986 176.521 49.2011 176.836 48.858C177.086 48.4651 177.405 48.1209 177.779 47.8424Z" fill="#FAFAFA"/>
<path d="M199.979 35.2802C200.012 35.3434 195.757 37.4202 190.481 39.919C185.205 42.4179 180.901 44.3946 180.871 44.3275C180.841 44.2604 185.093 42.1876 190.369 39.6887C195.645 37.1898 199.948 35.2132 199.979 35.2802Z" fill="#FAFAFA"/>
<path d="M144.536 81.3897C144.517 81.4251 144.492 81.4571 144.463 81.4845C144.405 81.5596 144.308 81.6292 144.2 81.7287L143.768 82.1124C143.572 82.2917 143.365 82.4578 143.148 82.6096C141.807 83.6371 140.34 84.488 138.782 85.1413C136.47 86.0992 134.057 86.7934 131.589 87.2107C128.81 87.7151 125.724 88.0148 122.49 88.295C119.454 88.5473 116.45 89.0974 113.521 89.9375C112.247 90.3123 110.994 90.7547 109.767 91.2628C108.701 91.7157 107.66 92.2239 106.647 92.7853C105.18 93.5985 103.79 94.5423 102.493 95.6053C102.026 95.9687 101.7 96.2958 101.455 96.4913L101.184 96.7224C101.156 96.7533 101.122 96.7783 101.084 96.796C101.103 96.7612 101.128 96.7293 101.156 96.7012L101.411 96.451C101.642 96.2394 101.96 95.8992 102.421 95.5188C103.698 94.4193 105.076 93.4445 106.538 92.6078C107.55 92.032 108.593 91.5118 109.661 91.0494C110.893 90.5296 112.151 90.0769 113.432 89.6934C116.375 88.8373 119.396 88.2766 122.45 88.0196C125.681 87.7434 128.761 87.4516 131.531 86.9591C133.99 86.5605 136.397 85.8922 138.709 84.9662C140.261 84.3332 141.731 83.516 143.088 82.5322C143.306 82.3842 143.516 82.225 143.718 82.055C143.891 81.9115 144.038 81.7926 144.163 81.6874C144.288 81.5822 144.369 81.5253 144.446 81.4654C144.472 81.4356 144.502 81.41 144.536 81.3897Z" fill="#FAFAFA"/>
<path d="M187.096 62.2543L182.872 59.0135C181.644 58.0712 180.841 56.6796 180.639 55.1449C180.437 53.6101 180.852 52.058 181.795 50.83C182.737 49.6019 184.129 48.7984 185.663 48.5964C187.198 48.3944 188.75 48.8102 189.978 49.7526L194.202 52.9934C194.81 53.4596 195.321 54.0412 195.705 54.705C196.088 55.3688 196.337 56.1017 196.437 56.8617C196.538 57.6218 196.487 58.3942 196.288 59.1347C196.089 59.8751 195.746 60.5691 195.279 61.1769C194.337 62.405 192.945 63.2084 191.411 63.4105C189.876 63.6125 188.324 63.1966 187.096 62.2543Z" fill="white"/>
<path opacity="0.4" d="M118.05 121.396L123.017 135.088L129.769 140.269L143.62 141.017L145.588 138.453L120.017 118.832L118.05 121.396Z" fill="black"/>
<path d="M70.3696 62.3015C71.698 56.6733 68.2123 51.0339 62.584 49.7055C56.9558 48.3771 51.3164 51.8628 49.988 57.491C48.6596 63.1193 52.1453 68.7587 57.7736 70.0871C63.4018 71.4155 69.0412 67.9298 70.3696 62.3015Z" fill="#50555C"/>
<path d="M58.8192 63.1655C58.8198 63.5038 58.7199 63.8346 58.5323 64.1161C58.3447 64.3976 58.0778 64.6172 57.7653 64.7469C57.4529 64.8766 57.109 64.9107 56.7771 64.8448C56.4453 64.7789 56.1405 64.6161 55.9013 64.3769C55.6621 64.1376 55.4992 63.8328 55.4333 63.501C55.3675 63.1692 55.4016 62.8253 55.5313 62.5128C55.661 62.2004 55.8805 61.9335 56.162 61.7458C56.4435 61.5582 56.7744 61.4584 57.1127 61.4589C57.5651 61.4597 57.9987 61.6397 58.3186 61.9596C58.6385 62.2794 58.8185 62.7131 58.8192 63.1655Z" fill="#F5F5F5"/>
<path d="M56.3959 58.2388C56.3953 58.435 56.3367 58.6266 56.2273 58.7895C56.1179 58.9523 55.9627 59.0791 55.7813 59.1538C55.5999 59.2285 55.4004 59.2478 55.2081 59.2092C55.0157 59.1706 54.8391 59.0758 54.7006 58.9369C54.5621 58.798 54.4678 58.6212 54.4298 58.4287C54.3917 58.2363 54.4115 58.0368 54.4867 57.8556C54.5619 57.6745 54.6891 57.5196 54.8523 57.4107C55.0154 57.3017 55.2072 57.2436 55.4034 57.2436C55.5339 57.2436 55.6632 57.2694 55.7838 57.3194C55.9044 57.3695 56.014 57.4428 56.1062 57.5353C56.1984 57.6277 56.2714 57.7375 56.3211 57.8582C56.3708 57.9789 56.3962 58.1083 56.3959 58.2388Z" fill="#F5F5F5"/>
<path d="M50.0218 62.4431C50.0687 62.6251 41.0591 71.2653 43.3832 73.1124C45.7073 74.9596 55.4723 70.2287 63.8009 63.5018C72.1296 56.7749 79.736 48.6144 77.6517 46.4475C75.5675 44.2805 65.1629 50.6876 65.1629 50.6876L66.409 51.4789C66.409 51.4789 72.7003 47.4427 74.6798 48.9976C76.6592 50.5525 70.9965 56.6867 62.9876 62.5314C54.9788 68.376 47.2456 72.4783 46.0436 70.8793C44.8416 69.2803 50.5098 63.9346 50.5098 63.9346L50.0218 62.4431Z" fill="#50555C"/>
<path d="M202.588 210.912C202.815 204.789 198.036 199.64 191.912 199.412C185.789 199.185 180.64 203.964 180.412 210.088C180.185 216.211 184.964 221.36 191.088 221.588C197.211 221.815 202.36 217.036 202.588 210.912Z" fill="#50555C"/>
<path d="M195.091 206.231C195.098 205.872 195.211 205.523 195.417 205.229C195.622 204.934 195.91 204.707 196.245 204.576C196.58 204.445 196.945 204.417 197.296 204.495C197.647 204.572 197.967 204.752 198.215 205.012C198.463 205.272 198.629 205.599 198.691 205.953C198.753 206.307 198.708 206.671 198.563 206.999C198.417 207.328 198.178 207.606 197.874 207.798C197.571 207.99 197.217 208.088 196.858 208.078C196.621 208.073 196.387 208.021 196.169 207.926C195.952 207.83 195.756 207.692 195.592 207.521C195.428 207.349 195.299 207.147 195.213 206.926C195.127 206.705 195.086 206.469 195.091 206.231Z" fill="#F0F0FC"/>
<path d="M198.712 210.467C198.716 210.258 198.782 210.055 198.902 209.883C199.021 209.711 199.189 209.579 199.385 209.503C199.58 209.427 199.793 209.41 199.997 209.456C200.202 209.501 200.388 209.606 200.533 209.757C200.678 209.908 200.774 210.099 200.81 210.305C200.846 210.512 200.82 210.724 200.736 210.915C200.651 211.107 200.511 211.269 200.335 211.381C200.158 211.493 199.952 211.55 199.742 211.545C199.463 211.538 199.198 211.421 199.005 211.219C198.812 211.017 198.706 210.747 198.712 210.467Z" fill="#F0F0FC"/>
<path d="M197.3 213.7C197.402 213.7 197.501 213.741 197.574 213.813C197.647 213.886 197.688 213.985 197.688 214.088C197.688 214.191 197.647 214.289 197.574 214.362C197.501 214.435 197.402 214.476 197.3 214.476C197.249 214.475 197.199 214.464 197.152 214.444C197.106 214.423 197.064 214.394 197.029 214.357C196.994 214.32 196.967 214.277 196.949 214.23C196.931 214.182 196.923 214.132 196.925 214.081C196.926 213.982 196.966 213.887 197.036 213.816C197.106 213.745 197.2 213.703 197.3 213.7Z" fill="#F0F0FC"/>
</svg>
