<svg width="244" height="168" viewBox="0 0 244 168" fill="none" xmlns="http://www.w3.org/2000/svg">
<path d="M38.7724 160.834C46.5505 154.466 47.5565 143.766 46.4549 134.313C46.2695 132.734 46.3088 131.053 45.4321 129.727C44.5554 128.401 42.7008 127.597 41.3183 128.384C40.1943 129.036 39.7671 130.446 39.1939 131.632C38.4232 133.225 37.2196 134.569 35.7207 135.51C34.7429 136.117 33.5065 136.538 32.4499 136.072C31.0056 135.431 30.6908 133.56 30.5728 131.986C30.348 129.053 30.127 126.117 29.9097 123.18C29.8727 121.598 29.5804 120.032 29.0442 118.543C28.426 117.093 27.2177 115.795 25.6722 115.503C24.1267 115.211 22.3002 116.222 22.1203 117.79C22.1131 118.448 22.1507 119.105 22.2327 119.757C22.2647 120.083 22.2009 120.412 22.0492 120.702C21.8975 120.993 21.6644 121.232 21.3785 121.393C20.7603 121.629 20.0859 121.235 19.5689 120.831C17.7929 119.381 16.506 117.425 15.2977 115.475C14.0894 113.525 12.9035 111.541 11.2681 109.911C9.6327 108.281 7.45214 107.101 5.15918 107.157C2.86622 107.213 0.545165 108.815 0.151765 111.091C-0.241635 113.367 1.24766 115.503 2.82126 117.178C5.16496 119.652 7.85267 121.775 10.8017 123.483C11.3668 123.735 11.8372 124.16 12.1448 124.697C12.5776 125.72 11.6559 126.844 10.6387 127.277C9.48096 127.766 8.17712 127.749 6.94634 127.996C5.71556 128.243 4.41172 128.895 4.03518 130.092C3.51814 131.778 5.01869 133.329 6.44616 134.324C9.32293 136.316 12.5176 137.804 15.8934 138.725C17.1017 139.051 18.3662 139.32 19.3778 140.057C20.3894 140.793 21.0638 142.158 20.5973 143.316C20.1309 144.474 18.6809 144.946 17.4333 144.822C16.1856 144.699 15.0335 144.131 13.8252 143.794C11.5772 143.159 8.76722 143.541 7.4971 145.525C7.12153 146.201 6.91009 146.957 6.87983 147.73C6.84957 148.503 7.00133 149.272 7.32288 149.976C7.97707 151.375 8.9059 152.629 10.0542 153.663C13.8795 157.504 18.6532 160.265 23.8906 161.666C29.1172 162.986 33.8661 163.071 38.7724 160.834" fill="#EBEBEB"/>
<path d="M39.4522 167.853C38.6443 163.494 37.4153 159.223 35.7823 155.101C33.7645 150.066 31.4545 145.154 28.8641 140.388L26.8353 136.634C26.1721 135.398 25.5146 134.172 24.7952 133.015C23.4166 130.796 21.9156 128.655 20.2992 126.602C18.7649 124.63 17.2307 122.809 15.8032 121.123C14.3757 119.437 12.9932 117.891 11.6613 116.531C9.5887 114.381 7.3507 112.397 4.96785 110.597C4.12485 109.956 3.45045 109.473 2.99523 109.169L2.47257 108.809C2.41288 108.769 2.35097 108.731 2.28711 108.697C2.28711 108.697 2.34331 108.748 2.45571 108.832L2.96713 109.208C3.41673 109.534 4.09113 110.018 4.91165 110.67C7.26726 112.494 9.48218 114.493 11.5376 116.649C12.8471 118.009 14.2184 119.56 15.6571 121.252C17.0958 122.944 18.6132 124.765 20.1531 126.737C21.7689 128.786 23.2699 130.923 24.6491 133.138C25.3628 134.29 26.0147 135.51 26.6779 136.746L28.6899 140.506C31.2587 145.265 33.559 150.164 35.58 155.18C37.2149 159.287 38.4568 163.54 39.2892 167.881" fill="#E0E0E0"/>
<path d="M24.7504 132.987C24.8031 132.762 24.8333 132.532 24.8403 132.301C24.8853 131.863 24.9302 131.216 24.9752 130.424C25.0707 128.839 25.1269 126.647 25.1831 124.242C25.2393 121.837 25.3293 119.634 25.4585 118.06C25.5147 117.267 25.5765 116.632 25.6215 116.188C25.6542 115.961 25.6693 115.732 25.6665 115.503C25.597 115.722 25.5499 115.948 25.526 116.177C25.4529 116.616 25.3686 117.256 25.2899 118.043C25.1157 119.628 24.9977 121.82 24.9415 124.225C24.8853 126.63 24.8459 128.794 24.8122 130.407C24.7841 131.166 24.7673 131.801 24.7504 132.284C24.7277 132.518 24.7277 132.753 24.7504 132.987V132.987Z" fill="#E0E0E0"/>
<path d="M3.93945 130.896H4.15301H4.76559C5.29387 130.896 6.05819 130.896 7.01359 130.924C8.90753 130.963 11.5096 131.11 14.4039 131.407C17.2982 131.705 19.8722 132.087 21.738 132.419C22.6709 132.582 23.424 132.728 23.9467 132.829L24.5424 132.947C24.6829 132.947 24.7559 132.981 24.7559 132.947C24.6927 132.914 24.6243 132.891 24.5536 132.88L23.9635 132.717C23.4521 132.588 22.699 132.413 21.7661 132.234C19.9059 131.857 17.3094 131.447 14.4264 131.143C11.5433 130.84 8.91877 130.727 7.01359 130.733C6.06381 130.733 5.32759 130.733 4.76559 130.784L4.15863 130.823C4.08219 130.836 4.00821 130.86 3.93945 130.896V130.896Z" fill="#E0E0E0"/>
<path d="M35.5244 154.742C35.5686 154.657 35.6062 154.568 35.6368 154.477C35.7155 154.281 35.8054 154.028 35.9234 153.719C36.1707 153.056 36.4854 152.083 36.9013 150.909C37.6937 148.509 38.6885 145.16 39.745 141.445C40.8016 137.73 41.7626 134.38 42.5157 131.969C42.8922 130.789 43.1957 129.823 43.4205 129.114C43.5217 128.8 43.6004 128.552 43.6622 128.339C43.6967 128.25 43.7212 128.158 43.7352 128.063C43.6851 128.144 43.6455 128.231 43.6172 128.322C43.5442 128.524 43.4486 128.777 43.3306 129.086C43.0833 129.749 42.7686 130.716 42.3583 131.896C41.5603 134.296 40.5656 137.646 39.5146 141.36C38.4637 145.075 37.5139 148.436 36.7383 150.836C36.3674 152.016 36.0583 152.983 35.8391 153.685C35.738 154.005 35.6593 154.247 35.5919 154.466C35.5604 154.556 35.5378 154.648 35.5244 154.742Z" fill="#E0E0E0"/>
<path d="M7.57031 148.318C7.65735 148.36 7.75018 148.388 7.84569 148.402L8.66059 148.593L11.6617 149.279C14.1907 149.841 17.6751 150.701 21.5248 151.645C25.3745 152.589 28.8645 153.41 31.4047 153.949C32.6748 154.219 33.7033 154.427 34.417 154.556L35.2376 154.702C35.3336 154.724 35.4314 154.737 35.5298 154.742C35.4405 154.701 35.3459 154.672 35.2488 154.657L34.4339 154.466L31.4385 153.781C28.9095 153.219 25.4251 152.359 21.581 151.415C17.7369 150.47 14.2413 149.65 11.701 149.11C10.4309 148.841 9.40243 148.633 8.68869 148.503L7.86255 148.352C7.76623 148.332 7.66849 148.321 7.57031 148.318V148.318Z" fill="#E0E0E0"/>
<path d="M112.603 0.244394L71.9697 12.4658L80.2074 39.8539L120.84 27.6326L112.603 0.244394Z" fill="white"/>
<path d="M120.847 27.606C120.847 27.606 120.785 27.4318 120.684 27.1058C120.583 26.7799 120.431 26.2853 120.235 25.6559C119.847 24.3857 119.274 22.5255 118.549 20.1539C117.099 15.3937 115.025 8.56544 112.496 0.253456L112.642 0.332136L72.0207 12.6006L72.1219 12.4151L80.3495 39.807L80.1809 39.7171L109.45 30.978L117.829 28.4996L120.077 27.842L120.639 27.6734L120.842 27.6229L120.662 27.6847L120.1 27.8645L117.897 28.5389L109.568 31.0848L80.254 39.97L80.1247 40.0093L80.0854 39.8801C77.5733 31.5344 74.7745 22.2558 71.8352 12.4938L71.7959 12.3533L71.9308 12.314L112.569 0.118573L112.681 0.0848541L112.715 0.197257C115.205 8.5542 117.245 15.4162 118.672 20.1988C119.369 22.5705 119.92 24.4251 120.291 25.7008C120.476 26.319 120.611 26.7967 120.712 27.1339C120.814 27.4711 120.847 27.606 120.847 27.606Z" fill="#E0E0E0"/>
<path d="M112.608 0.236598C112.593 0.279455 112.574 0.320841 112.552 0.360235L112.361 0.708676C112.175 1.02902 111.923 1.473 111.608 2.035L108.77 6.90753L99.2494 23.0538L99.182 23.1606L99.0696 23.1156L97.8276 22.6379L79.5232 15.4949L73.9875 13.3031L72.4926 12.6905L72.1048 12.5275C72.0585 12.5121 72.0148 12.4893 71.9756 12.4601C72.0245 12.4643 72.0721 12.4777 72.1161 12.4994L72.5095 12.6343L74.0325 13.1963L79.5963 15.3038L97.9287 22.3625L99.1764 22.8459L98.9965 22.9077C102.762 16.5852 106.145 10.9202 108.596 6.80076L111.512 1.9788C111.849 1.4168 112.119 0.995298 112.31 0.674958L112.53 0.343375C112.574 0.270315 112.603 0.230978 112.608 0.236598Z" fill="#E0E0E0"/>
<path d="M230.841 109.658C230.841 109.658 228.205 107.05 223.069 113.564C220.376 116.861 217.903 120.332 215.667 123.955C215.667 123.955 214.386 125.282 213.543 124.079C212.7 122.876 211.829 119.774 209.952 119.931C208.074 120.089 206.995 122.022 206.743 125.107C206.49 128.193 205.697 134.942 205.619 135.549C205.54 136.156 205.057 136.949 204.332 136.224C203.607 135.499 199.959 129.328 197.121 131.228C194.283 133.127 195.002 141.861 195.064 142.81C195.126 143.76 194.867 144.12 194.395 144.255C193.923 144.39 192.884 142.198 191.765 140.484C190.647 138.77 189.056 136.966 187.516 138.208C185.977 139.45 184.341 145.559 188.23 156.782L190.371 161.84L195.851 162.621C207.692 163.571 213.2 160.463 214.015 158.659C214.83 156.855 212.694 155.764 210.75 155.113C208.805 154.461 206.422 153.989 206.439 153.511C206.456 153.033 206.731 152.685 207.67 152.505C208.608 152.325 217.224 150.819 218.348 147.61C219.472 144.401 212.587 142.389 211.705 141.883C210.823 141.377 211.475 140.686 212.037 140.467C212.599 140.248 218.938 137.78 221.866 136.769C224.794 135.757 226.407 134.285 226.075 132.363C225.744 130.441 222.535 130.446 221.158 129.924C219.781 129.401 220.748 127.839 220.748 127.839C223.708 124.774 226.462 121.517 228.992 118.088C234.011 111.479 230.74 109.551 230.74 109.551" fill="#EBEBEB"/>
<path d="M226.211 115.458C226.186 115.508 226.156 115.555 226.121 115.598L225.834 116.003C225.565 116.363 225.188 116.874 224.71 117.526C223.727 118.847 222.294 120.746 220.507 123.084C216.938 127.76 211.947 134.178 206.406 141.237L192.233 159.339L187.956 164.841L186.787 166.33L186.478 166.712C186.405 166.797 186.371 166.842 186.365 166.836C186.39 166.786 186.421 166.739 186.455 166.695L186.742 166.296L187.866 164.768C188.844 163.447 190.282 161.547 192.064 159.21C195.633 154.534 200.629 148.116 206.176 141.057C211.723 133.998 216.708 127.603 220.344 122.955C222.137 120.645 223.598 118.774 224.621 117.459C225.115 116.824 225.509 116.335 225.784 115.964L226.099 115.581C226.166 115.497 226.205 115.452 226.211 115.458Z" fill="#E0E0E0"/>
<path d="M210.997 124.321C211.119 124.802 211.189 125.296 211.205 125.793C211.289 126.703 211.363 127.968 211.413 129.367C211.464 130.767 211.486 131.924 211.514 132.942C211.556 133.435 211.556 133.932 211.514 134.425C211.393 133.944 211.325 133.45 211.312 132.953C211.239 132.037 211.177 130.772 211.126 129.379C211.076 127.985 211.042 126.821 211.003 125.804C210.958 125.311 210.956 124.814 210.997 124.321V124.321Z" fill="#E0E0E0"/>
<path d="M211.986 134.622C213.909 134.312 215.847 134.1 217.792 133.987C221.001 133.723 223.614 133.571 223.62 133.65C221.696 133.957 219.759 134.167 217.814 134.279C214.605 134.549 211.998 134.701 211.986 134.622Z" fill="#E0E0E0"/>
<path d="M202.663 145.457C203.167 145.496 203.667 145.577 204.158 145.699C205.08 145.873 206.344 146.115 207.749 146.34C209.154 146.565 210.43 146.733 211.357 146.851C211.863 146.891 212.365 146.972 212.858 147.093C212.352 147.136 211.843 147.125 211.34 147.059C210.402 146.992 209.092 146.857 207.704 146.626C206.316 146.396 205.023 146.126 204.113 145.901C203.615 145.806 203.129 145.657 202.663 145.457Z" fill="#E0E0E0"/>
<path d="M199.718 136.342C199.951 136.749 200.139 137.181 200.28 137.629C200.578 138.444 200.977 139.568 201.404 140.815C201.831 142.063 202.191 143.198 202.443 144.03C202.602 144.469 202.718 144.923 202.792 145.384C202.555 144.977 202.367 144.543 202.23 144.092C201.926 143.282 201.533 142.158 201.106 140.911C200.679 139.663 200.319 138.522 200.066 137.696C199.901 137.259 199.784 136.805 199.718 136.342V136.342Z" fill="#E0E0E0"/>
<path d="M190.271 144.862C190.541 145.396 190.77 145.95 190.956 146.52C191.344 147.559 191.861 148.998 192.417 150.594C192.974 152.19 193.457 153.64 193.8 154.691C194.011 155.253 194.175 155.832 194.289 156.422C194.014 155.88 193.784 155.316 193.603 154.736C193.215 153.702 192.698 152.263 192.142 150.667C191.586 149.071 191.097 147.621 190.759 146.565C190.549 146.012 190.385 145.442 190.271 144.862V144.862Z" fill="#E0E0E0"/>
<path d="M194.272 156.119C194.913 156.155 195.549 156.238 196.178 156.366C197.347 156.551 198.988 156.804 200.758 157.04C202.528 157.276 204.175 157.456 205.35 157.602C205.989 157.644 206.626 157.729 207.255 157.855C206.614 157.894 205.971 157.879 205.333 157.81C204.147 157.731 202.523 157.585 200.719 157.344C198.915 157.102 197.302 156.821 196.138 156.591C195.505 156.484 194.881 156.326 194.272 156.119V156.119Z" fill="#E0E0E0"/>
<path d="M206.035 54.3642L204.703 97.9494L236.554 98.9225L237.885 55.3373L206.035 54.3642Z" fill="#F5F5F5"/>
<path d="M200.171 60.1582L198.839 103.743L230.689 104.717L232.021 61.1313L200.171 60.1582Z" fill="white"/>
<path d="M230.684 104.707C230.68 104.636 230.68 104.564 230.684 104.493C230.684 104.347 230.684 104.145 230.684 103.881C230.684 103.319 230.712 102.532 230.74 101.498C230.797 99.4128 230.875 96.3836 230.976 92.5451C231.196 84.8738 231.505 73.9991 231.87 61.1237L231.999 61.2586L200.151 60.2975L200.302 60.157C199.791 76.455 199.325 91.511 198.942 103.74L198.824 103.617L221.956 104.386L228.391 104.611L230.077 104.679L230.667 104.707H230.105L228.419 104.667L222.012 104.504L198.807 103.858H198.689V103.74C199.055 91.5054 199.504 76.4326 199.993 60.1514V60.0053H200.145L231.988 60.9944H232.123V61.1293C231.701 74.0553 231.347 84.9469 231.094 92.635C230.965 96.4566 230.858 99.4802 230.791 101.554C230.752 102.577 230.723 103.364 230.701 103.909C230.701 104.167 230.701 104.37 230.673 104.51C230.645 104.651 230.684 104.707 230.684 104.707Z" fill="#E0E0E0"/>
<path d="M219.602 70.2393C219.602 70.3236 216.134 70.2787 211.863 70.1494C207.592 70.0201 204.124 69.8459 204.124 69.7672C204.124 69.6886 207.597 69.7279 211.868 69.8572C216.14 69.9864 219.602 70.1606 219.602 70.2393Z" fill="#E0E0E0"/>
<path d="M227.829 74.2857C227.829 74.3644 222.49 74.2857 215.903 74.0665C209.317 73.8474 203.978 73.6338 203.983 73.5551C203.989 73.4764 209.322 73.5551 215.915 73.7743C222.507 73.9935 227.835 74.2014 227.829 74.2857Z" fill="#E0E0E0"/>
<path d="M227.712 78.2366C227.712 78.3152 222.367 78.2366 215.78 78.0174C209.194 77.7982 203.86 77.5846 203.86 77.506C203.86 77.4273 209.205 77.506 215.792 77.7251C222.378 77.9443 227.712 78.1523 227.712 78.2366Z" fill="#E0E0E0"/>
<path d="M227.588 82.1874C227.588 82.2661 222.249 82.1874 215.662 81.9683C209.076 81.7491 203.742 81.5355 203.742 81.4569C203.742 81.3782 209.087 81.4568 215.673 81.676C222.26 81.8952 227.593 82.12 227.588 82.1874Z" fill="#E0E0E0"/>
<path d="M227.469 86.1383C227.469 86.217 222.125 86.1383 215.544 85.9191C208.963 85.6999 203.618 85.4864 203.618 85.4077C203.618 85.329 208.963 85.4077 215.549 85.6269C222.136 85.8461 227.469 86.054 227.469 86.1383Z" fill="#E0E0E0"/>
<path d="M227.351 90.0892C227.351 90.1678 222.007 90.0892 215.42 89.87C208.833 89.6508 203.5 89.4373 203.5 89.3586C203.5 89.2799 208.845 89.3586 215.431 89.5777C222.018 89.7969 227.351 89.988 227.351 90.0892Z" fill="#E0E0E0"/>
<path d="M227.228 94.04C227.228 94.1187 221.883 94.04 215.302 93.8208C208.721 93.6017 203.376 93.3881 203.382 93.3094C203.387 93.2308 208.721 93.3094 215.307 93.5286C221.894 93.7478 227.233 93.9557 227.228 94.04Z" fill="#E0E0E0"/>
<path d="M216.078 97.6537C216.078 97.7324 213.206 97.7099 209.666 97.6031C206.125 97.4963 203.259 97.339 203.259 97.2603C203.259 97.1816 206.131 97.2041 209.671 97.3109C213.212 97.4176 216.078 97.5694 216.078 97.6537Z" fill="#E0E0E0"/>
<path d="M136.343 20.2812L126.377 45.3124L157.684 57.7774L167.65 32.7462L136.343 20.2812Z" fill="white"/>
<path d="M167.644 32.7483L167.492 32.6921L167.054 32.5235L165.368 31.8491L158.944 29.292L136.318 20.3L136.386 20.2719L126.427 45.2978L126.393 45.2191L157.697 57.6955H157.635C160.647 50.1534 163.148 43.904 164.89 39.5373C165.767 37.3567 166.453 35.6426 166.919 34.4793L167.481 33.1473L167.667 32.6865L167.492 33.1417C167.374 33.4452 167.2 33.8892 166.97 34.468C166.509 35.637 165.846 37.3511 164.969 39.526C163.233 43.8984 160.743 50.1647 157.747 57.7236V57.7685H157.702L126.354 45.3652H126.298V45.309C129.9 36.272 133.3 27.7297 136.268 20.2832V20.2326H136.313L158.995 29.292L165.385 31.8547L167.071 32.5291L167.504 32.7034L167.644 32.7483Z" fill="#E0E0E0"/>
<path d="M136.771 22.3145L128.061 44.192L157.17 55.7818L165.88 33.9043L136.771 22.3145Z" fill="#EBEBEB"/>
<path d="M128.176 44.2581L143.76 34.7041L146.671 45.7193L152.752 42.8755L157.287 55.8465L128.176 44.2581Z" fill="#E0E0E0"/>
<path d="M153.392 36.598C153.212 37.0515 152.901 37.4413 152.499 37.718C152.097 37.9947 151.622 38.146 151.134 38.1526C150.645 38.1592 150.166 38.021 149.757 37.7553C149.348 37.4895 149.026 37.1084 148.833 36.6599C148.641 36.2115 148.585 35.716 148.674 35.236C148.763 34.7561 148.992 34.3133 149.333 33.9638C149.674 33.6142 150.11 33.3735 150.588 33.2722C151.065 33.1709 151.562 33.2135 152.015 33.3946C152.316 33.5141 152.591 33.6918 152.823 33.9176C153.055 34.1434 153.241 34.4129 153.369 34.7105C153.497 35.0081 153.565 35.328 153.569 35.6519C153.573 35.9758 153.513 36.2973 153.392 36.598V36.598Z" fill="#E0E0E0"/>
<path d="M55.7509 71.3633C55.9624 71.4506 56.1915 71.4872 56.4197 71.4701C56.6932 71.4387 56.9474 71.3136 57.139 71.116C57.3614 70.8082 57.5587 70.4831 57.7291 70.1438L61.3765 63.7819L62.5904 61.6801L63.2367 60.5561C63.3492 60.377 63.447 60.189 63.529 59.9941C63.5881 59.7999 63.5881 59.5925 63.529 59.3983C63.4784 59.1985 63.3664 59.0196 63.2086 58.8869C63.0286 58.7595 62.8409 58.6431 62.6466 58.5385L61.3934 57.8416L58.7857 56.3804L47.1748 49.8668C46.9457 49.7443 46.6794 49.711 46.4272 49.7732C46.175 49.8355 45.9548 49.989 45.8091 50.204L44.938 51.6989C44.376 52.6881 43.814 53.6716 43.252 54.6326L39.9924 60.202C39.8632 60.4212 39.7339 60.6404 39.6103 60.8595C39.485 61.0494 39.4204 61.2728 39.4248 61.5002C39.4337 61.7222 39.5145 61.9353 39.6552 62.1072C39.8148 62.2726 40.0059 62.4044 40.2172 62.495L42.6732 63.8887L47.068 66.384L53.4298 70.0201L55.1552 71.0205L55.5992 71.2846C55.7003 71.3465 55.7509 71.3802 55.7453 71.3858L55.5879 71.3127L55.1271 71.0711L53.3793 70.1157L46.9668 66.5638L42.572 64.0742L40.1104 62.6973C39.8719 62.592 39.6562 62.4412 39.4754 62.2533C39.2998 62.0362 39.1992 61.768 39.1888 61.489C39.1767 61.2109 39.2513 60.936 39.4023 60.7022C39.526 60.483 39.6552 60.2638 39.7845 60.0446L43.0047 54.4865L44.6907 51.5528L45.5731 50.041C45.7591 49.7653 46.0409 49.5684 46.3637 49.4884C46.6866 49.4085 47.0277 49.4512 47.3209 49.6083L58.9206 56.1444L61.5283 57.6168L62.7703 58.3249C62.9848 58.4339 63.1913 58.5579 63.3885 58.6958C63.5844 58.8631 63.7238 59.0869 63.7875 59.3365C63.855 59.5754 63.855 59.8283 63.7875 60.0671C63.6979 60.2799 63.5908 60.4848 63.4672 60.6797L62.8096 61.8037L61.5845 63.9C60.0165 66.5526 58.7464 68.7051 57.8584 70.2169C57.674 70.5567 57.4636 70.8818 57.229 71.1891C57.0198 71.3941 56.7453 71.5194 56.4534 71.5432C56.2768 71.5562 56.0997 71.5273 55.9364 71.4589C55.8704 71.4357 55.808 71.4036 55.7509 71.3633Z" fill="#E0E0E0"/>
<path d="M52.7831 59.8423L54.1993 62.3545L51.2769 62.4107L48.3545 62.4612L49.8607 59.8929L51.3668 57.3246L52.7831 59.8423Z" fill="#E0E0E0"/>
<path d="M243.375 166.982C243.375 167.066 189.619 167.134 123.332 167.134C57.0437 167.134 3.27148 167.078 3.27148 166.982C3.27148 166.886 57.0156 166.825 123.332 166.825C189.648 166.825 243.375 166.909 243.375 166.982Z" fill="#263238"/>
<path d="M62.6972 131.289L45.7305 114.244L54.2616 98.5754C62.7928 87.6501 80.8555 88.3526 80.8555 88.3526C89.7666 87.7469 98.7186 88.2966 107.489 89.988C121.837 92.798 120.679 102.273 120.679 102.273L122.601 137.438L124.663 166.072L71.7511 167.139L62.6972 131.312" fill="#369BED"/>
<path d="M91.2016 165.465L43.8081 166.027C41.1973 166.057 38.6216 165.423 36.323 164.185C34.0243 162.947 32.0782 161.144 30.6673 158.947C29.2564 156.75 28.4271 154.231 28.2572 151.625C28.0874 149.02 28.5826 146.414 29.6963 144.052L49.962 106.471L68.4237 118.948L55.8293 145.064L94.1914 145.75L91.2016 165.465Z" fill="#369BED"/>
<path d="M119.004 96.5409L157.034 155.259L134.847 156.709C134.847 156.709 121.595 135.83 121.893 136.257C122.421 137.044 119.004 96.5409 119.004 96.5409Z" fill="#369BED"/>
<path d="M67.4685 122.325C67.4698 122.222 67.4869 122.12 67.519 122.022C67.5752 121.797 67.637 121.516 67.7213 121.168C67.8956 120.432 68.1541 119.364 68.4182 118.037C68.6824 116.711 68.9802 115.115 69.1657 113.339C69.394 111.414 69.394 109.47 69.1657 107.545C68.8608 105.636 68.1951 103.803 67.2043 102.144C66.408 100.778 65.4659 99.5022 64.3943 98.3393C63.6721 97.5444 62.9026 96.7937 62.0901 96.0913C61.7804 95.849 61.484 95.5901 61.2021 95.3158C61.2936 95.3612 61.3802 95.4158 61.4607 95.4787C61.618 95.5968 61.8709 95.7597 62.1632 96.0014C63.0083 96.6687 63.8046 97.3955 64.5461 98.1763C65.6538 99.3306 66.6267 100.607 67.446 101.981C68.4716 103.666 69.1588 105.535 69.4692 107.483C69.6917 109.432 69.6766 111.4 69.4242 113.345C69.2344 114.927 68.9643 116.499 68.6149 118.054C68.3227 119.386 68.0529 120.448 67.8225 121.179C67.7213 121.544 67.6314 121.825 67.5696 122.016C67.5459 122.122 67.5121 122.226 67.4685 122.325V122.325Z" fill="#263238"/>
<path d="M65.9395 124.349C65.8584 124.641 65.7492 124.926 65.6136 125.197C65.3888 125.759 65.0516 126.512 64.6188 127.445C63.759 129.35 62.5394 131.969 61.1344 134.836C59.7294 137.702 58.4031 140.27 57.4196 142.142C56.9251 143.063 56.5204 143.828 56.2338 144.317C56.0969 144.589 55.9391 144.85 55.7617 145.098C55.8627 144.811 55.9867 144.533 56.1326 144.266C56.4193 143.704 56.7902 142.951 57.2566 142.046L60.8928 134.74C62.2697 131.891 63.5229 129.317 64.4559 127.389C64.8942 126.484 65.2539 125.731 65.5349 125.141C65.6474 124.866 65.7827 124.601 65.9395 124.349V124.349Z" fill="#263238"/>
<path d="M91.2013 165.465C91.2013 165.465 91.2013 165.431 91.2013 165.369C91.2013 165.307 91.2013 165.195 91.2013 165.077C91.2294 164.807 91.2687 164.431 91.3137 163.953C91.4261 162.952 91.5834 161.531 91.7801 159.738C92.196 156.102 92.7917 150.987 93.4661 144.957L93.601 145.103H79.6016L55.149 145.064L47.7306 145.019L45.713 144.991H45.1847H45.0049C45.0646 144.984 45.125 144.984 45.1847 144.991H45.713L47.7306 144.963L55.149 144.918L79.6409 144.879H93.6404H93.7921V145.025C93.0503 151.049 92.4264 156.163 91.9768 159.794C91.752 161.581 91.5666 163.003 91.4148 164.003C91.3549 164.475 91.3043 164.85 91.2631 165.127L91.2181 165.414C91.2125 165.431 91.2069 165.465 91.2013 165.465Z" fill="#263238"/>
<path d="M56.1604 145.48C55.821 145.105 55.5056 144.709 55.2163 144.294C53.7016 142.393 51.8261 140.809 49.6974 139.635C49.2428 139.415 48.8001 139.171 48.3711 138.904C48.87 139.021 49.349 139.211 49.793 139.466C52.01 140.562 53.9272 142.18 55.3792 144.182C55.6983 144.576 55.9612 145.013 56.1604 145.48V145.48Z" fill="#263238"/>
<path d="M123.387 149.2C123.346 149.04 123.32 148.876 123.308 148.711C123.269 148.369 123.219 147.902 123.151 147.312C123.022 146.098 122.848 144.339 122.662 142.164C122.274 137.809 121.83 131.784 121.437 125.13C121.044 118.476 120.768 112.44 120.611 108.073C120.532 105.887 120.476 104.139 120.453 102.897C120.453 102.307 120.453 101.841 120.425 101.492C120.417 101.329 120.417 101.166 120.425 101.003C120.456 101.164 120.473 101.328 120.476 101.492C120.476 101.835 120.521 102.307 120.555 102.897C120.616 104.145 120.701 105.904 120.808 108.062C121.015 112.429 121.325 118.453 121.718 125.113C122.111 131.773 122.527 137.786 122.842 142.147C123.011 144.3 123.145 146.081 123.241 147.306C123.286 147.868 123.32 148.363 123.348 148.706C123.376 148.869 123.389 149.035 123.387 149.2V149.2Z" fill="#263238"/>
<path d="M81.0796 117.251C81.0821 116.993 81.1027 116.736 81.1414 116.481C81.2089 115.947 81.2932 115.233 81.4 114.356C81.6472 112.502 81.962 109.961 82.3778 107.017L82.5914 107.151L78.9553 109.697L75.2573 112.271L74.9932 112.457L75.0381 112.136C75.4877 109.22 75.8699 106.702 76.1621 104.83C76.3082 103.971 76.4206 103.262 76.5106 102.734C76.5407 102.481 76.5934 102.231 76.6679 101.987C76.6683 102.243 76.6457 102.499 76.6005 102.751C76.533 103.279 76.4487 103.987 76.3363 104.859C76.0834 106.702 75.7294 109.225 75.3247 112.165L75.1112 112.03L78.8035 109.444L82.4453 106.91L82.7094 106.724L82.6645 107.045C82.2317 109.978 81.8552 112.519 81.5854 114.351C81.4449 115.222 81.3325 115.936 81.2482 116.464C81.2157 116.731 81.1592 116.994 81.0796 117.251V117.251Z" fill="#E0E0E0"/>
<path d="M102.234 119.527C102.031 119.365 101.843 119.187 101.672 118.993C101.306 118.599 100.812 118.077 100.205 117.436L95.1863 111.996L95.428 111.912C95.3099 113.289 95.1863 114.783 95.057 116.335C94.9278 117.886 94.7929 119.426 94.6749 120.831L94.6468 121.157L94.4332 120.915L89.5494 115.407L88.1557 113.8C87.9783 113.616 87.8201 113.415 87.6836 113.199C87.8857 113.371 88.0737 113.558 88.2456 113.761L89.6956 115.312L94.6524 120.746L94.4107 120.831C94.5288 119.431 94.6524 117.914 94.7873 116.335C94.9222 114.755 95.0458 113.289 95.1638 111.912L95.1919 111.591L95.4055 111.827L100.351 117.341L101.762 118.953C101.934 119.132 102.092 119.324 102.234 119.527Z" fill="#E0E0E0"/>
<path d="M112.878 118.774C112.773 119.011 112.645 119.236 112.496 119.448L111.372 121.258L107.359 127.485L107.224 127.271L111.585 126.518L116.025 125.771L116.346 125.714L116.194 125.956L112.091 132.059L110.855 133.824C110.718 134.04 110.564 134.245 110.394 134.437C110.505 134.206 110.633 133.985 110.776 133.773L111.9 131.975L115.919 125.793L116.059 126.007L111.619 126.777L107.241 127.518L106.921 127.569L107.101 127.305L111.198 121.123L112.4 119.352C112.548 119.15 112.707 118.957 112.878 118.774V118.774Z" fill="#E0E0E0"/>
<path d="M98.7213 129.665C98.6157 129.9 98.4877 130.124 98.3392 130.334L97.2152 132.149L93.2081 138.371L93.0676 138.157L97.44 137.404L101.885 136.651L102.206 136.6L102.02 136.864L97.9177 142.973L96.7094 144.727C96.5752 144.943 96.4209 145.146 96.2485 145.334C96.361 145.104 96.4887 144.883 96.6307 144.671C96.9229 144.221 97.3051 143.62 97.7547 142.878L101.773 136.696L101.913 136.909L97.4737 137.679L93.0957 138.416L92.7754 138.472L92.9552 138.202L97.0522 132.02C97.5468 131.289 97.9514 130.694 98.2605 130.25C98.3998 130.044 98.5538 129.849 98.7213 129.665V129.665Z" fill="#E0E0E0"/>
<path d="M129.311 118.65C129.199 118.882 129.072 119.105 128.929 119.319L127.805 121.134L123.797 127.355L123.657 127.142L128.029 126.389L132.475 125.636L132.795 125.585L132.615 125.849L128.507 131.958C128.012 132.678 127.608 133.268 127.299 133.706C127.166 133.925 127.011 134.13 126.838 134.319C126.951 134.089 127.081 133.867 127.226 133.655L128.35 131.863L132.368 125.681L132.508 125.894L128.069 126.658L123.691 127.4L123.376 127.457L123.55 127.187L127.647 121.005L128.855 119.234C128.988 119.025 129.14 118.83 129.311 118.65V118.65Z" fill="#E0E0E0"/>
<path d="M146.958 146.941C146.757 146.788 146.569 146.619 146.396 146.435L144.856 144.952L139.568 139.77L139.804 139.674C139.759 141.057 139.714 142.552 139.663 144.109C139.613 145.665 139.551 147.211 139.5 148.605V148.931L139.27 148.7L134.122 143.445L132.649 141.911C132.466 141.737 132.297 141.549 132.144 141.349C132.344 141.503 132.532 141.672 132.706 141.855L134.234 143.333L139.461 148.515L139.219 148.61C139.264 147.205 139.315 145.688 139.365 144.114C139.416 142.541 139.478 141.063 139.528 139.68V139.36L139.753 139.584L144.963 144.845L146.452 146.385C146.636 146.556 146.805 146.742 146.958 146.941V146.941Z" fill="#E0E0E0"/>
<path d="M57.6837 109.624C57.5738 109.857 57.446 110.08 57.3016 110.293L56.1776 112.108L52.1705 118.335L52.03 118.122L56.4024 117.363L60.8478 116.616L61.1681 116.559L60.9883 116.829L56.8801 122.932L55.6774 124.686C55.5409 124.901 55.3868 125.104 55.2166 125.293C55.3243 125.063 55.4522 124.843 55.5987 124.635L56.7227 122.837C57.7399 121.28 59.1337 119.145 60.741 116.655L60.8815 116.868L56.4417 117.638L52.0637 118.38L51.749 118.431L51.9232 118.167C53.5699 115.694 54.9861 113.558 56.0202 111.985L57.2285 110.214C57.3645 110.006 57.5167 109.809 57.6837 109.624Z" fill="#E0E0E0"/>
<path d="M35.4629 151.651C35.6522 151.822 35.8253 152.01 35.9799 152.213L37.3512 153.859L42.0102 159.609L41.7629 159.676C41.9652 158.31 42.1788 156.827 42.4092 155.281C42.6396 153.736 42.8644 152.213 43.0724 150.824L43.1173 150.504L43.3197 150.763L47.8494 156.563L49.1363 158.249C49.2999 158.444 49.4465 158.652 49.5747 158.872C49.3902 158.698 49.2192 158.51 49.0633 158.31L47.7145 156.669L43.1342 150.931L43.3815 150.869C43.1792 152.258 42.96 153.764 42.7295 155.326C42.4991 156.888 42.28 158.35 42.072 159.715L42.027 160.036L41.8247 159.783L37.2388 153.972L35.9294 152.286C35.7598 152.085 35.6039 151.873 35.4629 151.651V151.651Z" fill="#E0E0E0"/>
<path d="M86.2111 124.439C85.9594 124.493 85.7038 124.526 85.4468 124.54L83.3112 124.725L75.9265 125.287L76.0164 125.051L79.2535 128.086L82.53 131.177L82.766 131.402H82.4401L75.0947 131.806L72.9704 131.896C72.7161 131.918 72.4604 131.918 72.2061 131.896C72.4563 131.846 72.7099 131.814 72.9648 131.801L75.0835 131.632L82.4232 131.126L82.3389 131.362L79.0512 128.283L75.8253 125.237L75.5893 125.012H75.9096L83.2999 124.568L85.4355 124.461C85.6931 124.434 85.9524 124.427 86.2111 124.439V124.439Z" fill="#E0E0E0"/>
<path d="M73.7568 152.763C73.9444 152.94 74.1208 153.127 74.2851 153.325L75.6845 154.944L80.4671 160.598L80.2198 160.665C80.3941 159.294 80.5851 157.81 80.7818 156.265C80.9785 154.719 81.1809 153.185 81.3438 151.797L81.3888 151.471L81.5911 151.724L86.2445 157.428L87.5652 159.114C87.7289 159.31 87.8791 159.516 88.0148 159.732C87.8252 159.56 87.6504 159.372 87.4921 159.17L86.1096 157.557L81.3888 151.937L81.6305 151.864C81.4562 153.258 81.2652 154.764 81.0685 156.332C80.8718 157.9 80.6751 159.367 80.5065 160.738L80.4615 161.059L80.2592 160.811L75.5552 155.09L74.2177 153.404C74.0433 153.206 73.889 152.992 73.7568 152.763V152.763Z" fill="#E0E0E0"/>
<path d="M51.4962 131.992C51.2448 132.047 50.9891 132.081 50.7319 132.093L48.6019 132.273L41.2173 132.835L41.3016 132.593L44.5443 135.634L47.8208 138.725L48.0568 138.949H47.7308L40.3855 139.354L38.2611 139.444C38.0124 139.465 37.7624 139.465 37.5137 139.444C37.7633 139.39 38.0172 139.358 38.2724 139.348L40.3911 139.18L47.7308 138.668L47.6465 138.91L44.3588 135.83L41.1273 132.784L40.8969 132.56H41.2173L48.6076 132.11L50.7432 132.009C50.9934 131.984 51.2451 131.979 51.4962 131.992Z" fill="#E0E0E0"/>
<path d="M70.6213 152.128C70.3696 152.182 70.1139 152.214 69.8569 152.224L67.7213 152.409L60.3366 152.971L60.4266 152.73L63.6637 155.77L66.9402 158.861L67.1762 159.086H66.8559L59.5049 159.485L57.3805 159.58C57.1262 159.602 56.8705 159.602 56.6162 159.58C56.8659 159.527 57.1197 159.495 57.3749 159.485L59.4936 159.316L66.8334 158.805L66.7491 159.047L63.4614 155.967L60.2355 152.932L59.9994 152.713H60.3198L67.7101 152.263L69.8513 152.162C70.1064 152.128 70.3641 152.116 70.6213 152.128Z" fill="#E0E0E0"/>
<path d="M113.788 100.896C113.537 100.95 113.281 100.984 113.024 100.998L110.888 101.177L103.509 101.739L103.594 101.503L106.831 104.538L110.107 107.629L110.343 107.854H110.023L102.672 108.259L100.548 108.349C100.293 108.371 100.037 108.371 99.7832 108.349C100.033 108.295 100.287 108.263 100.542 108.253L102.661 108.084L110.006 107.579L109.916 107.815L106.64 104.74L103.414 101.694L103.178 101.47H103.498L110.888 101.02L113.03 100.919C113.282 100.892 113.535 100.885 113.788 100.896V100.896Z" fill="#E0E0E0"/>
<path d="M92.7923 152.128C92.7923 152.128 102.245 149.403 105.376 148.605C106.595 148.295 111.816 151.049 115.424 153.342C115.424 153.342 120.392 156.287 119.993 157.192C119.549 158.192 117.745 157.99 114.795 156.63C114.795 156.63 115.817 159.592 113.811 159.524C113.811 159.524 114.806 162.728 112.929 163.059C111.052 163.391 110.613 159.305 108.961 159.086C107.309 158.867 103.903 158.642 103.903 158.642C103.903 158.642 101.054 163.363 98.8451 163.7C96.6364 164.037 91.5391 163.436 91.5391 163.436L92.7923 152.128Z" fill="#89544C"/>
<path d="M108.927 152.78C109.852 153.192 110.737 153.691 111.568 154.27C112.451 154.769 113.282 155.352 114.052 156.012C112.242 155.105 110.525 154.023 108.927 152.78V152.78Z" fill="#72463F"/>
<path d="M108.371 154.618C109.451 154.958 110.5 155.388 111.507 155.905C112.548 156.328 113.552 156.838 114.508 157.428C113.428 157.092 112.379 156.663 111.372 156.147C110.329 155.726 109.325 155.214 108.371 154.618Z" fill="#72463F"/>
<path d="M109.382 159.007C110.81 159.002 112.231 159.191 113.608 159.569C112.18 159.573 110.759 159.384 109.382 159.007V159.007Z" fill="#72463F"/>
<path d="M80.4901 54.582C80.6014 54.9462 80.603 55.3351 80.4947 55.7002C80.3863 56.0652 80.1729 56.3903 79.881 56.6349C79.5891 56.8794 79.2317 57.0326 78.8532 57.0753C78.4748 57.118 78.0922 57.0483 77.7532 56.875C76.4718 56.2287 76.3088 54.4584 76.5617 53.0477C76.8146 51.6371 77.2923 50.1253 76.7022 48.8159C76.247 47.8155 75.2635 47.1805 74.4992 46.3937C73.8247 45.7098 73.3179 44.8789 73.0186 43.9662C72.7192 43.0535 72.6354 42.0839 72.7739 41.1333C72.9358 40.1857 73.3563 39.3011 73.989 38.5772C74.6217 37.8533 75.442 37.3182 76.3594 37.0307C78.2421 36.5081 80.5632 37.0869 81.9794 35.7213C82.9966 34.7322 83.0585 33.1192 83.8453 31.939C85.0648 30.1069 87.6444 29.8147 89.8249 30.1125C92.0055 30.4104 94.2198 31.1129 96.3554 30.579C98.1369 30.135 99.5981 28.893 101.273 28.1287C103.098 27.2943 105.139 27.0513 107.109 27.4335C109.079 27.8157 110.88 28.8042 112.261 30.2606C113.642 31.717 114.533 33.5685 114.81 35.5563C115.087 37.544 114.736 39.5686 113.805 41.3469C113.185 42.6483 112.13 43.6919 110.821 44.2974" fill="#263238"/>
<path d="M91.3366 101.009C92.7698 101.006 94.1881 100.719 95.5094 100.164C96.8307 99.6086 98.0287 98.7969 99.034 97.7754C100.039 96.7539 100.832 95.5431 101.366 94.2131C101.899 92.8831 102.164 91.4604 102.144 90.0273L102.003 79.6978C102.003 79.6978 110.681 78.8267 111.254 70.2281C111.827 61.6295 111.417 41.7853 111.417 41.7853C106.642 39.4166 101.322 38.3643 96.0057 38.7367C90.689 39.1091 85.5678 40.8929 81.1701 43.904L79.8438 44.8201L80.49 90.3083C80.5241 93.161 81.6824 95.8851 83.7133 97.8886C85.7443 99.8922 88.4838 101.013 91.3366 101.009V101.009Z" fill="#89544C"/>
<path d="M109.146 57.392C108.832 57.3559 108.542 57.2057 108.332 56.9699C108.122 56.7341 108.006 56.4293 108.006 56.1135C108.006 55.7976 108.122 55.4928 108.332 55.257C108.542 55.0212 108.832 54.871 109.146 54.8349C109.214 54.818 109.285 54.818 109.354 54.8349C109.668 54.871 109.957 55.0212 110.167 55.257C110.377 55.4928 110.494 55.7976 110.494 56.1135C110.494 56.4293 110.377 56.7341 110.167 56.9699C109.957 57.2057 109.668 57.3559 109.354 57.392C109.285 57.4032 109.215 57.4032 109.146 57.392Z" fill="#263238"/>
<path d="M110.832 54.6157C110.692 54.7618 109.883 54.0537 108.697 53.9919C107.511 53.9301 106.617 54.4865 106.499 54.3291C106.381 54.1717 106.584 53.9975 106.977 53.7334C107.503 53.3961 108.123 53.2364 108.746 53.2779C109.369 53.3194 109.963 53.5598 110.439 53.9638C110.793 54.2785 110.905 54.582 110.832 54.6157Z" fill="#263238"/>
<path d="M97.1249 54.908C97.3288 55.0491 97.4862 55.2476 97.5772 55.4783C97.6683 55.709 97.6888 55.9615 97.6363 56.2038C97.5838 56.4462 97.4605 56.6675 97.2821 56.8398C97.1038 57.0121 96.8783 57.1276 96.6343 57.1717C96.3902 57.2157 96.1386 57.1864 95.9112 57.0875C95.6838 56.9885 95.4909 56.8242 95.3569 56.6156C95.2229 56.4069 95.1538 56.1632 95.1584 55.9152C95.163 55.6673 95.241 55.4263 95.3827 55.2227C95.5722 54.9502 95.8621 54.7641 96.1887 54.7051C96.5153 54.6461 96.852 54.719 97.1249 54.908V54.908Z" fill="#263238"/>
<path d="M97.9067 54.9585C97.7606 55.1047 96.9513 54.3965 95.7711 54.3347C94.5909 54.2729 93.6917 54.8293 93.568 54.6719C93.5062 54.5989 93.658 54.3403 94.0457 54.0762C94.5714 53.7389 95.1915 53.5792 95.8147 53.6207C96.4379 53.6622 97.0313 53.9026 97.5077 54.3066C97.8617 54.6213 97.9741 54.8967 97.9067 54.9585Z" fill="#263238"/>
<path d="M102.144 64.9959C102.144 64.9059 102.88 64.7935 104.082 64.6924C104.392 64.6924 104.644 64.6193 104.673 64.4563C104.695 64.1465 104.635 63.8361 104.498 63.5571C104.234 62.7535 103.97 61.9442 103.689 61.0956C102.565 57.5943 101.829 54.7113 102.003 54.6551C102.177 54.5989 103.223 57.392 104.33 60.8933C104.588 61.7475 104.841 62.5793 105.083 63.3661C105.261 63.7752 105.297 64.2324 105.184 64.6643C105.134 64.7809 105.057 64.884 104.959 64.965C104.861 65.0461 104.746 65.1029 104.622 65.1307C104.447 65.1699 104.267 65.1831 104.088 65.1701C102.874 65.1476 102.144 65.0914 102.144 64.9959Z" fill="#263238"/>
<path d="M98.2093 66.0974C100.016 67.0247 101.941 67.6997 103.93 68.1037C103.494 68.703 102.868 69.1369 102.154 69.3349C101.439 69.5329 100.679 69.4832 99.9965 69.194C97.4619 68.1093 98.2093 66.0974 98.2093 66.0974Z" fill="white"/>
<path d="M102.037 79.5741C98.0588 79.4323 94.2126 78.1098 90.9883 75.775C90.9883 75.775 93.3037 82.1088 101.93 81.8053L102.037 79.5741Z" fill="#72463F"/>
<path d="M111.49 43.9602C111.49 43.9602 106.291 46.6016 99.4066 43.3308C94.9106 41.1839 89.6447 40.1892 88.5095 41.1165C87.3742 42.0438 87.2225 46.6522 82.8164 48.0853C82.8164 48.0853 83.2941 56.8862 79.776 56.6389C76.2579 56.3916 78.1911 42.7182 78.1911 42.7182L86.6942 38.3571L96.029 36.4069L104.881 37.4803L111.748 39.2169L111.49 43.9602Z" fill="#263238"/>
<path d="M80.4168 53.8121C80.2763 53.739 74.6001 51.7383 74.4708 57.6336C74.3416 63.529 80.2819 62.4444 80.2931 62.2758C80.3044 62.1072 80.4168 53.8121 80.4168 53.8121Z" fill="#89544C"/>
<path d="M78.5393 59.9997C78.5393 59.9997 78.4325 60.0727 78.2583 60.1458C78.0115 60.2461 77.7352 60.2461 77.4884 60.1458C76.8702 59.9041 76.3644 58.9038 76.3644 57.8416C76.3637 57.3352 76.4729 56.8347 76.6847 56.3748C76.7452 56.1922 76.8488 56.0269 76.9868 55.8929C77.1247 55.7589 77.2929 55.6601 77.4771 55.6048C77.5961 55.5832 77.7188 55.6005 77.8271 55.6542C77.9355 55.7078 78.0236 55.795 78.0785 55.9027C78.1515 56.0657 78.1122 56.1837 78.1403 56.1949C78.1684 56.2062 78.2695 56.0994 78.2302 55.8577C78.1993 55.7107 78.1202 55.5782 78.0054 55.4812C77.8463 55.3561 77.6448 55.2977 77.4434 55.3182C77.2001 55.3602 76.9716 55.4639 76.7797 55.6193C76.5878 55.7748 76.439 55.9768 76.3475 56.2062C76.0879 56.7122 75.9531 57.2729 75.9541 57.8416C75.9541 59.0274 76.5498 60.157 77.3928 60.4212C77.5505 60.4693 77.7168 60.4822 77.8799 60.4589C78.0431 60.4355 78.1991 60.3766 78.337 60.2863C78.5393 60.1458 78.5393 60.0109 78.5393 59.9997Z" fill="#72463F"/>
<path d="M77.416 35.3616C78.0885 35.1643 78.8068 35.1902 79.4633 35.4354C80.1198 35.6806 80.6792 36.1319 81.0578 36.7216C80.5338 36.3248 79.9685 35.9856 79.3718 35.71C78.7337 35.5262 78.0783 35.4095 77.416 35.3616V35.3616Z" fill="#263238"/>
<path d="M80.9622 31.8322C81.069 31.8322 80.906 33.0743 81.1083 34.5467C81.2832 35.432 81.5605 36.2938 81.9345 37.115C81.9345 37.115 81.6872 36.9071 81.4399 36.4687C81.1226 35.8853 80.9132 35.2495 80.8217 34.5917C80.658 33.6731 80.706 32.7294 80.9622 31.8322Z" fill="#263238"/>
<path d="M105.179 51.772C105.145 51.7046 105.398 51.4966 105.876 51.3055C107.144 50.8151 108.552 50.8292 109.81 51.3449C110.282 51.5472 110.535 51.7551 110.501 51.8226C110.428 51.9799 109.293 51.536 107.837 51.536C106.381 51.536 105.246 51.9462 105.179 51.772Z" fill="#263238"/>
<path d="M92.0274 50.5468C91.9937 50.4794 92.2466 50.2771 92.7243 50.0804C93.3531 49.8373 94.0228 49.7171 94.6969 49.7263C95.3739 49.7262 96.0443 49.8599 96.6695 50.1197C97.1416 50.322 97.3889 50.53 97.3608 50.603C97.3327 50.6761 96.1525 50.3164 94.6913 50.3108C93.2301 50.3052 92.1061 50.7042 92.0274 50.5468Z" fill="#263238"/>
<path d="M104.161 52.7162C104.174 52.832 104.174 52.9488 104.161 53.0646C104.161 53.3119 104.161 53.6266 104.19 54.0144C104.218 54.4022 104.19 54.9248 104.223 55.4868C104.202 56.1354 104.297 56.7826 104.504 57.3976C104.775 58.1955 105.244 58.9115 105.868 59.4786C106.491 60.0458 107.248 60.4455 108.067 60.6404C108.538 60.7553 109.023 60.797 109.506 60.764C110.009 60.7414 110.504 60.637 110.973 60.4549C111.973 60.0803 112.824 59.3922 113.401 58.4935C113.946 57.6353 114.22 56.6325 114.187 55.6161C114.187 54.6101 114.187 53.6435 114.187 52.7162L114.322 52.851L107.016 52.7836L104.898 52.7443H104.336H104.128C104.368 52.7175 104.611 52.7063 104.853 52.7105L106.938 52.6712L114.322 52.6038H114.508V52.7443C114.508 53.6716 114.508 54.6382 114.508 55.6442C114.546 56.716 114.258 57.7741 113.682 58.679C113.071 59.6305 112.167 60.3582 111.108 60.7528C110.61 60.944 110.084 61.0523 109.551 61.0731C109.043 61.1033 108.533 61.0559 108.039 60.9326C107.18 60.7248 106.388 60.2993 105.74 59.6969C105.092 59.0945 104.611 58.3356 104.341 57.4932C104.139 56.8504 104.056 56.1763 104.094 55.5037C104.094 54.9417 104.094 54.419 104.122 53.9919C104.15 53.5648 104.122 53.3006 104.15 53.0534C104.145 52.9408 104.149 52.8281 104.161 52.7162V52.7162Z" fill="#263238"/>
<path d="M90.3864 52.4239C90.3864 52.4239 90.3864 52.5532 90.3864 52.7724V53.7221C90.3864 54.138 90.3864 54.6326 90.4145 55.2002C90.3997 55.8484 90.4947 56.4945 90.6955 57.111C90.9544 57.851 91.3792 58.5219 91.9375 59.0724C92.5822 59.6989 93.3841 60.1397 94.2586 60.3481C95.2255 60.5811 96.2402 60.5164 97.1697 60.1627C98.1666 59.7885 99.0161 59.1026 99.5919 58.2069C100.139 57.3493 100.416 56.3465 100.384 55.3295C100.384 54.3235 100.384 53.3512 100.384 52.4239L100.519 52.5588L93.2132 52.4914L91.1001 52.4576H90.5381H90.3302C90.569 52.431 90.8093 52.4198 91.0495 52.4239L93.1346 52.3902L100.519 52.3228H100.654V52.4576C100.654 53.3849 100.654 54.3572 100.654 55.3632C100.688 56.4354 100.398 57.4929 99.8223 58.398C99.2115 59.3462 98.3107 60.0716 97.254 60.4661C96.756 60.6569 96.2302 60.7651 95.6973 60.7865C95.1873 60.8165 94.6757 60.7692 94.1799 60.646C93.2615 60.4198 92.4222 59.9477 91.752 59.2803C91.1723 58.6979 90.7373 57.9876 90.4819 57.2065C90.2801 56.5637 90.1963 55.8897 90.2346 55.2171C90.2346 54.6551 90.2346 54.1324 90.2683 53.7053C90.3021 53.2782 90.2683 53.014 90.2683 52.7667C90.2889 52.6468 90.3287 52.5311 90.3864 52.4239V52.4239Z" fill="#263238"/>
<path d="M104.285 53.1264C103 53.3214 101.692 53.3214 100.407 53.1264C101.692 52.9241 103 52.9241 104.285 53.1264V53.1264Z" fill="#263238"/>
<path d="M79.6641 53.1995C81.4508 53.0505 83.2443 52.9961 85.0368 53.0365C86.8306 52.9856 88.6258 53.0288 90.4151 53.1658C88.6287 53.3217 86.835 53.3761 85.0424 53.3287C83.2486 53.3861 81.453 53.3429 79.6641 53.1995V53.1995Z" fill="#263238"/>
<path d="M137.477 159.254C138.739 161.598 140.652 163.528 142.985 164.811C145.318 166.094 147.972 166.676 150.627 166.487V166.487C153.765 166.268 156.734 164.985 159.044 162.85C161.354 160.716 162.868 157.858 163.334 154.747L166.594 117.436L153.539 114.21L148.205 143.434C148.205 143.434 145.418 155.68 137.477 159.254Z" fill="#89544C"/>
<path d="M153.421 116.913L153.854 110.366C153.854 110.366 155.703 95.6754 155.703 94.2367C155.703 92.5844 156.495 92.1798 157.108 92.2248C158.057 92.2866 158.732 93.4612 158.794 94.883C158.794 95.372 158.749 103.139 158.749 103.139C159.198 102.405 159.699 101.704 160.249 101.043C161.373 99.587 164.093 98.7552 166.864 98.8451C169.635 98.935 170.393 99.2048 170.41 100.278C170.4 100.483 170.345 100.684 170.248 100.865C170.15 101.045 170.014 101.202 169.848 101.324C169.337 101.75 168.687 101.974 168.022 101.953C163.587 101.874 162.402 104.24 162.402 104.24L162.345 105.1C162.345 105.1 165.037 103.173 167.184 103.976C167.501 104.094 167.792 104.273 168.039 104.504C168.643 104.507 169.236 104.667 169.76 104.97C170.283 105.272 170.718 105.706 171.022 106.229C171.326 106.751 171.488 107.344 171.492 107.949C171.496 108.553 171.342 109.148 171.045 109.675C170.93 109.945 170.734 110.173 170.485 110.329C170.236 110.485 169.945 110.56 169.651 110.546C169.354 110.457 169.085 110.292 168.87 110.068C168.744 109.961 168.611 109.864 168.471 109.776L167.977 112.153C167.977 112.153 166.577 117.436 166.229 119.808" fill="#89544C"/>
<path d="M154.696 116.402C155.505 116.627 156.343 116.031 156.781 115.312C157.219 114.592 157.405 113.744 157.787 112.991C158.945 110.743 161.721 109.675 162.783 107.371C162.929 107.05 163.008 106.612 162.727 106.398C162.446 106.185 162.098 106.359 161.811 106.516L154.505 110.563" fill="#89544C"/>
<path d="M154.5 110.552C154.727 110.35 154.978 110.176 155.247 110.035C155.742 109.725 156.467 109.298 157.366 108.776L160.541 106.96L161.458 106.443C161.799 106.173 162.234 106.05 162.666 106.101C162.799 106.144 162.917 106.227 163.002 106.338C163.087 106.449 163.137 106.584 163.144 106.724C163.158 106.955 163.118 107.186 163.026 107.399C162.857 107.774 162.645 108.128 162.396 108.455C161.384 109.77 160.075 110.597 159.131 111.558C158.672 111.993 158.281 112.495 157.973 113.047C157.698 113.564 157.524 114.103 157.31 114.592C157.179 115 156.96 115.375 156.669 115.689C156.377 116.004 156.021 116.251 155.624 116.413C155.023 116.593 154.685 116.413 154.708 116.38C154.999 116.388 155.289 116.341 155.562 116.239C155.914 116.06 156.224 115.809 156.474 115.503C156.723 115.198 156.907 114.843 157.012 114.463C157.192 113.919 157.4 113.384 157.636 112.861C157.946 112.263 158.35 111.719 158.833 111.248C159.8 110.237 161.081 109.388 162.025 108.169C162.248 107.874 162.436 107.556 162.587 107.219C162.728 106.899 162.705 106.578 162.525 106.545C162.346 106.511 161.991 106.663 161.682 106.837L160.749 107.343L157.529 109.096C156.607 109.585 155.843 109.967 155.337 110.22C155.075 110.369 154.793 110.481 154.5 110.552V110.552Z" fill="#72463F"/>
<path d="M162.244 105.162C162.293 104.63 162.469 104.118 162.755 103.667C163.088 103.205 163.561 102.862 164.104 102.689C164.784 102.466 165.495 102.352 166.211 102.352C166.946 102.359 167.68 102.295 168.403 102.161C169.009 102.037 169.571 101.756 170.033 101.346C170.187 101.204 170.306 101.029 170.382 100.835C170.458 100.64 170.488 100.43 170.471 100.222C170.463 100.069 170.413 99.921 170.325 99.7949C170.297 99.7949 170.325 99.9579 170.353 100.228C170.351 100.416 170.307 100.602 170.226 100.771C170.144 100.941 170.027 101.091 169.881 101.211C169.432 101.565 168.904 101.804 168.341 101.908C167.634 102.024 166.917 102.077 166.2 102.065C165.457 102.057 164.719 102.173 164.014 102.408C163.425 102.613 162.921 103.009 162.581 103.532C162.361 103.884 162.233 104.286 162.21 104.701C162.178 104.855 162.19 105.015 162.244 105.162V105.162Z" fill="#72463F"/>
<path d="M158.754 94.3323C158.706 94.8463 158.706 95.3637 158.754 95.8778C158.754 96.9343 158.754 98.1988 158.793 99.5926C158.832 100.986 158.793 102.251 158.793 103.307C158.759 103.823 158.77 104.34 158.827 104.853C158.95 104.349 159.012 103.832 159.012 103.313C159.08 102.363 159.124 101.065 159.119 99.5926C159.113 98.1201 159.057 96.8163 158.99 95.8665C158.966 95.3481 158.887 94.8337 158.754 94.3323V94.3323Z" fill="#72463F"/>
<path d="M163.998 106.887C164.155 106.85 164.306 106.791 164.447 106.713C164.63 106.619 164.831 106.566 165.037 106.556C165.242 106.547 165.448 106.581 165.639 106.657C165.756 106.721 165.855 106.814 165.926 106.927C165.997 107.04 166.037 107.17 166.043 107.303C166.061 107.638 166.037 107.975 165.97 108.304C165.877 108.717 165.944 109.151 166.156 109.518C166.29 109.706 166.467 109.86 166.672 109.968C166.877 110.075 167.104 110.133 167.336 110.136C167.563 110.134 167.788 110.087 167.997 109.996C168.206 109.905 168.394 109.773 168.55 109.607C168.843 109.314 169.039 108.937 169.112 108.528C169.2 107.867 169.191 107.197 169.084 106.539C169.026 106.094 168.891 105.662 168.685 105.263C168.527 104.982 168.381 104.875 168.37 104.887C168.359 104.898 168.46 105.038 168.578 105.314C168.732 105.718 168.829 106.142 168.865 106.573C168.938 107.206 168.929 107.847 168.836 108.478C168.765 108.835 168.58 109.16 168.308 109.403C168.036 109.646 167.693 109.795 167.33 109.827C167.148 109.826 166.967 109.782 166.805 109.699C166.642 109.616 166.5 109.496 166.392 109.349C166.222 109.041 166.168 108.682 166.24 108.337C166.303 107.983 166.318 107.622 166.285 107.264C166.269 107.093 166.208 106.929 166.11 106.788C166.011 106.647 165.878 106.534 165.723 106.46C165.504 106.377 165.269 106.347 165.037 106.372C164.804 106.398 164.581 106.478 164.385 106.606C164.121 106.764 163.964 106.848 163.998 106.887Z" fill="#72463F"/>
<path d="M168.421 109.371C168.381 109.518 168.398 109.674 168.466 109.81C168.545 110.003 168.667 110.175 168.823 110.313C168.979 110.451 169.164 110.552 169.365 110.608C169.668 110.673 169.982 110.658 170.278 110.566C170.573 110.473 170.84 110.306 171.051 110.08C171.558 109.523 171.83 108.792 171.81 108.039C171.81 107.296 171.578 106.571 171.147 105.966C170.795 105.472 170.315 105.083 169.758 104.842C169.394 104.677 169.001 104.584 168.601 104.566C168.32 104.566 168.168 104.566 168.168 104.611C168.687 104.678 169.192 104.822 169.668 105.038C170.168 105.286 170.597 105.655 170.916 106.112C171.29 106.678 171.485 107.344 171.478 108.023C171.497 108.697 171.264 109.354 170.826 109.866C170.648 110.068 170.421 110.221 170.168 110.31C169.914 110.4 169.642 110.423 169.376 110.377C169.199 110.338 169.033 110.261 168.888 110.151C168.744 110.041 168.625 109.902 168.539 109.742C168.46 109.529 168.46 109.371 168.421 109.371Z" fill="#72463F"/>
<path d="M163.081 114.564C162.84 114.488 162.581 114.488 162.339 114.564C161.707 114.703 161.138 115.046 160.721 115.542L160.979 115.621C160.945 115.273 160.889 114.927 160.811 114.587C160.587 113.378 160.033 112.256 159.209 111.344C159.759 112.398 160.196 113.508 160.513 114.654C160.591 115.003 160.648 115.34 160.687 115.655L160.732 116.003L160.951 115.728C161.324 115.268 161.822 114.927 162.384 114.744C162.806 114.615 163.081 114.604 163.081 114.564Z" fill="#72463F"/>
<path d="M163.222 101.352C163.149 101.385 163.447 101.914 164.132 102.234C164.818 102.554 165.425 102.369 165.397 102.29C165.369 102.212 164.835 102.217 164.273 101.953C163.711 101.689 163.295 101.295 163.222 101.352Z" fill="#72463F"/>
<path d="M151.173 121.151L167.578 122.325C167.578 122.325 165.054 151.353 164.566 155.854C164.077 160.356 161.193 167.145 151.173 167.145C141.153 167.145 139.287 163.734 134.83 156.709C140.085 153.067 148.43 142.192 148.43 142.192L151.173 121.151Z" fill="#369BED"/>
<path d="M158.906 125.057C158.822 125.302 158.72 125.54 158.602 125.771L157.686 127.704L154.449 134.386L154.286 134.189L158.541 132.925L162.862 131.655L163.177 131.565L163.025 131.851L159.653 138.399L158.659 140.281C158.549 140.511 158.419 140.731 158.271 140.939C158.357 140.698 158.458 140.464 158.574 140.236C158.81 139.753 159.136 139.112 159.496 138.32L162.761 131.728L162.924 131.924L158.608 133.206L154.348 134.453L154.039 134.543L154.185 134.257L157.54 127.642C157.951 126.861 158.282 126.22 158.529 125.742C158.635 125.504 158.761 125.274 158.906 125.057V125.057Z" fill="#E0E0E0"/>
<path d="M157.355 152.977C157.103 153.031 156.847 153.065 156.59 153.078L154.455 153.264L147.07 153.826L147.16 153.584L150.397 156.619L153.674 159.71L153.91 159.935H153.584L146.238 160.339L144.114 160.429C143.86 160.451 143.604 160.451 143.35 160.429C143.6 160.379 143.853 160.349 144.108 160.339L146.227 160.165L153.567 159.659L153.482 159.901L150.195 156.815L146.969 153.769L146.733 153.55H147.053L154.443 153.106L156.585 152.999C156.84 152.972 157.098 152.965 157.355 152.977V152.977Z" fill="#E0E0E0"/>
<path d="M186.562 49.2823L169.831 43.2746L153.286 49.2037C151.173 50.1984 149.318 50.7997 149.318 52.7667V62.5793C149.279 69.4712 151.161 76.2378 154.753 82.12C158.341 88.0561 163.66 92.7527 169.994 95.5799C176.738 93.3825 181.796 87.5152 184.915 82.5022C188.517 76.6229 190.408 69.8561 190.378 62.9614V54.138C190.378 51.328 188.883 49.9567 186.562 49.2823Z" fill="#369BED"/>
<g opacity="0.3">
<path opacity="0.3" d="M169.994 89.87C164.974 87.6061 160.768 83.8603 157.939 79.1358C155.092 74.4873 153.595 69.1376 153.617 63.6864V56.83C153.617 55.2676 154.561 53.8064 156.427 52.9353L169.837 47.9223V43.297L153.286 49.2036C151.549 49.9623 149.318 50.7997 149.318 52.7667V62.5792C149.279 69.4712 151.161 76.2378 154.753 82.12C158.341 88.0561 163.66 92.7527 169.994 95.5799V89.87Z" fill="black"/>
</g>
<g opacity="0.4">
<path opacity="0.4" d="M169.994 95.563C171.129 95.1923 172.229 94.7221 173.281 94.158C175.87 92.694 178.223 90.8487 180.262 88.6842C182.105 86.6983 183.728 84.518 185.1 82.1818C188.744 76.2592 190.578 69.4009 190.378 62.45V54.3516C190.378 50.3164 188.298 50.0186 186.556 49.2599L169.825 43.2521V47.8773L183.392 52.9747C185.258 53.8458 186.202 55.307 186.202 56.8637V63.7482C186.224 69.1977 184.728 74.5456 181.88 79.192C179.112 83.8948 174.956 87.625 169.983 89.87L169.994 95.563Z" fill="black"/>
</g>
<path opacity="0.5" d="M174.27 63.248V61.9217C174.27 60.7695 173.813 59.6646 172.998 58.8499C172.183 58.0352 171.078 57.5775 169.926 57.5775C168.774 57.5775 167.669 58.0352 166.854 58.8499C166.04 59.6646 165.582 60.7695 165.582 61.9217V63.2705C165.007 63.3566 164.482 63.6462 164.102 64.0866C163.723 64.527 163.514 65.0889 163.514 65.6703V73.4821C163.514 74.126 163.769 74.7435 164.225 75.1988C164.68 75.6541 165.298 75.9099 165.941 75.9099H174.079C174.723 75.9099 175.341 75.6541 175.796 75.1988C176.251 74.7435 176.507 74.126 176.507 73.4821V65.6703C176.508 65.0591 176.278 64.4703 175.863 64.0213C175.448 63.5723 174.88 63.2961 174.27 63.248V63.248ZM171.106 71.5319H168.982L169.313 69.9977C169.081 69.8462 168.904 69.6238 168.808 69.3635C168.712 69.1031 168.703 68.8188 168.782 68.5529C168.861 68.287 169.024 68.0537 169.246 67.8878C169.469 67.722 169.739 67.6323 170.016 67.6323C170.293 67.6323 170.563 67.722 170.786 67.8878C171.008 68.0537 171.171 68.287 171.25 68.5529C171.329 68.8188 171.32 69.1031 171.224 69.3635C171.128 69.6238 170.951 69.8462 170.718 69.9977C170.865 70.5709 171.106 71.5319 171.106 71.5319ZM173.354 63.2368H166.52V61.9217C166.556 61.0417 166.931 60.2096 167.566 59.5995C168.201 58.9895 169.048 58.6488 169.929 58.6488C170.81 58.6488 171.656 58.9895 172.292 59.5995C172.927 60.2096 173.302 61.0417 173.337 61.9217L173.354 63.2368Z" fill="white"/>
<path d="M156.332 63.1525C156.186 62.7129 156.101 62.2552 156.079 61.7925C155.954 60.6863 155.909 59.5725 155.944 58.4598C155.944 57.8079 156.006 57.1897 156.062 56.6277C156.09 56.1151 156.218 55.613 156.439 55.1496C156.597 54.8322 156.853 54.574 157.169 54.4134C157.4 54.3066 157.54 54.3122 157.54 54.3291C157.137 54.5143 156.812 54.837 156.624 55.2395C156.445 55.6889 156.346 56.1664 156.332 56.6502C156.287 57.2122 156.253 57.8247 156.236 58.471C156.197 59.758 156.236 60.927 156.287 61.7756C156.338 62.2327 156.353 62.6931 156.332 63.1525V63.1525Z" fill="white"/>
<path d="M156.573 67.4181C156.495 67.4181 156.422 67.0191 156.411 66.5189C156.399 66.0187 156.461 65.6141 156.54 65.6141C156.618 65.6141 156.691 66.0131 156.703 66.5133C156.714 67.0134 156.658 67.4181 156.573 67.4181Z" fill="white"/>
<path d="M139.978 118.779L121.325 164.908H87.6895V166.993H187.877L208.373 118.779H139.978Z" fill="#263238"/>
<path d="M168.494 146.014C167.82 148.335 165.853 149.802 164.099 149.296C162.346 148.79 161.475 146.486 162.149 144.165C162.823 141.844 164.796 140.377 166.549 140.883C168.303 141.389 169.174 143.693 168.494 146.014Z" fill="#FAFAFA"/>
</svg>
